G04 #@! TF.GenerationSoftware,KiCad,Pcbnew,(5.1.12)-1*
G04 #@! TF.CreationDate,2021-12-21T12:41:33-06:00*
G04 #@! TF.ProjectId,UTCPW_MountingBoard,55544350-575f-44d6-9f75-6e74696e6742,rev?*
G04 #@! TF.SameCoordinates,Original*
G04 #@! TF.FileFunction,Copper,L2,Bot*
G04 #@! TF.FilePolarity,Positive*
%FSLAX46Y46*%
G04 Gerber Fmt 4.6, Leading zero omitted, Abs format (unit mm)*
G04 Created by KiCad (PCBNEW (5.1.12)-1) date 2021-12-21 12:41:33*
%MOMM*%
%LPD*%
G01*
G04 APERTURE LIST*
G04 #@! TA.AperFunction,SMDPad,CuDef*
%ADD10R,5.080000X1.500000*%
G04 #@! TD*
G04 #@! TA.AperFunction,SMDPad,CuDef*
%ADD11R,1.500000X5.080000*%
G04 #@! TD*
G04 #@! TA.AperFunction,Conductor*
%ADD12C,0.254000*%
G04 #@! TD*
G04 #@! TA.AperFunction,Conductor*
%ADD13C,0.100000*%
G04 #@! TD*
G04 APERTURE END LIST*
D10*
G04 #@! TO.P,REF\u002A\u002A,2*
G04 #@! TO.N,/GND*
X143510000Y-105850000D03*
X143510000Y-97350000D03*
G04 #@! TD*
D11*
G04 #@! TO.P,REF\u002A\u002A,2*
G04 #@! TO.N,/GND*
X135450000Y-119380000D03*
X143950000Y-119380000D03*
G04 #@! TD*
G04 #@! TO.P,REF\u002A\u002A,2*
G04 #@! TO.N,/GND*
X122750000Y-119380000D03*
X131250000Y-119380000D03*
G04 #@! TD*
G04 #@! TO.P,REF\u002A\u002A,2*
G04 #@! TO.N,/GND*
X118550000Y-119380000D03*
X110050000Y-119380000D03*
G04 #@! TD*
D12*
G04 #@! TO.N,/GND*
X145669000Y-96421478D02*
X143681450Y-96422200D01*
X143637000Y-96466650D01*
X143637000Y-97223000D01*
X143657000Y-97223000D01*
X143657000Y-97477000D01*
X143637000Y-97477000D01*
X143637000Y-98233350D01*
X143681450Y-98277800D01*
X145669000Y-98278522D01*
X145669000Y-104921478D01*
X143681450Y-104922200D01*
X143637000Y-104966650D01*
X143637000Y-105723000D01*
X143657000Y-105723000D01*
X143657000Y-105977000D01*
X143637000Y-105977000D01*
X143637000Y-106733350D01*
X143681450Y-106777800D01*
X145669000Y-106778522D01*
X145669000Y-121539000D01*
X144878522Y-121539000D01*
X144877800Y-119551450D01*
X144833350Y-119507000D01*
X144077000Y-119507000D01*
X144077000Y-119527000D01*
X143823000Y-119527000D01*
X143823000Y-119507000D01*
X143066650Y-119507000D01*
X143022200Y-119551450D01*
X143021478Y-121539000D01*
X136378522Y-121539000D01*
X136377800Y-119551450D01*
X136333350Y-119507000D01*
X135577000Y-119507000D01*
X135577000Y-119527000D01*
X135323000Y-119527000D01*
X135323000Y-119507000D01*
X134566650Y-119507000D01*
X134522200Y-119551450D01*
X134521478Y-121539000D01*
X132178522Y-121539000D01*
X132177800Y-119551450D01*
X132133350Y-119507000D01*
X131377000Y-119507000D01*
X131377000Y-119527000D01*
X131123000Y-119527000D01*
X131123000Y-119507000D01*
X130366650Y-119507000D01*
X130322200Y-119551450D01*
X130321478Y-121539000D01*
X123678522Y-121539000D01*
X123677800Y-119551450D01*
X123633350Y-119507000D01*
X122877000Y-119507000D01*
X122877000Y-119527000D01*
X122623000Y-119527000D01*
X122623000Y-119507000D01*
X121866650Y-119507000D01*
X121822200Y-119551450D01*
X121821478Y-121539000D01*
X119478522Y-121539000D01*
X119477800Y-119551450D01*
X119433350Y-119507000D01*
X118677000Y-119507000D01*
X118677000Y-119527000D01*
X118423000Y-119527000D01*
X118423000Y-119507000D01*
X117666650Y-119507000D01*
X117622200Y-119551450D01*
X117621478Y-121539000D01*
X110978522Y-121539000D01*
X110977800Y-119551450D01*
X110933350Y-119507000D01*
X110177000Y-119507000D01*
X110177000Y-119527000D01*
X109923000Y-119527000D01*
X109923000Y-119507000D01*
X109166650Y-119507000D01*
X109122200Y-119551450D01*
X109121478Y-121539000D01*
X108331000Y-121539000D01*
X108331000Y-116840000D01*
X109121340Y-116840000D01*
X109122200Y-119208550D01*
X109166650Y-119253000D01*
X109923000Y-119253000D01*
X109923000Y-116706650D01*
X110177000Y-116706650D01*
X110177000Y-119253000D01*
X110933350Y-119253000D01*
X110977800Y-119208550D01*
X110978660Y-116840000D01*
X117621340Y-116840000D01*
X117622200Y-119208550D01*
X117666650Y-119253000D01*
X118423000Y-119253000D01*
X118423000Y-116706650D01*
X118677000Y-116706650D01*
X118677000Y-119253000D01*
X119433350Y-119253000D01*
X119477800Y-119208550D01*
X119478660Y-116840000D01*
X121821340Y-116840000D01*
X121822200Y-119208550D01*
X121866650Y-119253000D01*
X122623000Y-119253000D01*
X122623000Y-116706650D01*
X122877000Y-116706650D01*
X122877000Y-119253000D01*
X123633350Y-119253000D01*
X123677800Y-119208550D01*
X123678660Y-116840000D01*
X130321340Y-116840000D01*
X130322200Y-119208550D01*
X130366650Y-119253000D01*
X131123000Y-119253000D01*
X131123000Y-116706650D01*
X131377000Y-116706650D01*
X131377000Y-119253000D01*
X132133350Y-119253000D01*
X132177800Y-119208550D01*
X132178660Y-116840000D01*
X134521340Y-116840000D01*
X134522200Y-119208550D01*
X134566650Y-119253000D01*
X135323000Y-119253000D01*
X135323000Y-116706650D01*
X135577000Y-116706650D01*
X135577000Y-119253000D01*
X136333350Y-119253000D01*
X136377800Y-119208550D01*
X136378660Y-116840000D01*
X143021340Y-116840000D01*
X143022200Y-119208550D01*
X143066650Y-119253000D01*
X143823000Y-119253000D01*
X143823000Y-116706650D01*
X144077000Y-116706650D01*
X144077000Y-119253000D01*
X144833350Y-119253000D01*
X144877800Y-119208550D01*
X144878660Y-116840000D01*
X144875227Y-116805145D01*
X144865060Y-116771630D01*
X144848550Y-116740742D01*
X144826332Y-116713668D01*
X144799258Y-116691450D01*
X144768370Y-116674940D01*
X144734855Y-116664773D01*
X144700000Y-116661340D01*
X144121450Y-116662200D01*
X144077000Y-116706650D01*
X143823000Y-116706650D01*
X143778550Y-116662200D01*
X143200000Y-116661340D01*
X143165145Y-116664773D01*
X143131630Y-116674940D01*
X143100742Y-116691450D01*
X143073668Y-116713668D01*
X143051450Y-116740742D01*
X143034940Y-116771630D01*
X143024773Y-116805145D01*
X143021340Y-116840000D01*
X136378660Y-116840000D01*
X136375227Y-116805145D01*
X136365060Y-116771630D01*
X136348550Y-116740742D01*
X136326332Y-116713668D01*
X136299258Y-116691450D01*
X136268370Y-116674940D01*
X136234855Y-116664773D01*
X136200000Y-116661340D01*
X135621450Y-116662200D01*
X135577000Y-116706650D01*
X135323000Y-116706650D01*
X135278550Y-116662200D01*
X134700000Y-116661340D01*
X134665145Y-116664773D01*
X134631630Y-116674940D01*
X134600742Y-116691450D01*
X134573668Y-116713668D01*
X134551450Y-116740742D01*
X134534940Y-116771630D01*
X134524773Y-116805145D01*
X134521340Y-116840000D01*
X132178660Y-116840000D01*
X132175227Y-116805145D01*
X132165060Y-116771630D01*
X132148550Y-116740742D01*
X132126332Y-116713668D01*
X132099258Y-116691450D01*
X132068370Y-116674940D01*
X132034855Y-116664773D01*
X132000000Y-116661340D01*
X131421450Y-116662200D01*
X131377000Y-116706650D01*
X131123000Y-116706650D01*
X131078550Y-116662200D01*
X130500000Y-116661340D01*
X130465145Y-116664773D01*
X130431630Y-116674940D01*
X130400742Y-116691450D01*
X130373668Y-116713668D01*
X130351450Y-116740742D01*
X130334940Y-116771630D01*
X130324773Y-116805145D01*
X130321340Y-116840000D01*
X123678660Y-116840000D01*
X123675227Y-116805145D01*
X123665060Y-116771630D01*
X123648550Y-116740742D01*
X123626332Y-116713668D01*
X123599258Y-116691450D01*
X123568370Y-116674940D01*
X123534855Y-116664773D01*
X123500000Y-116661340D01*
X122921450Y-116662200D01*
X122877000Y-116706650D01*
X122623000Y-116706650D01*
X122578550Y-116662200D01*
X122000000Y-116661340D01*
X121965145Y-116664773D01*
X121931630Y-116674940D01*
X121900742Y-116691450D01*
X121873668Y-116713668D01*
X121851450Y-116740742D01*
X121834940Y-116771630D01*
X121824773Y-116805145D01*
X121821340Y-116840000D01*
X119478660Y-116840000D01*
X119475227Y-116805145D01*
X119465060Y-116771630D01*
X119448550Y-116740742D01*
X119426332Y-116713668D01*
X119399258Y-116691450D01*
X119368370Y-116674940D01*
X119334855Y-116664773D01*
X119300000Y-116661340D01*
X118721450Y-116662200D01*
X118677000Y-116706650D01*
X118423000Y-116706650D01*
X118378550Y-116662200D01*
X117800000Y-116661340D01*
X117765145Y-116664773D01*
X117731630Y-116674940D01*
X117700742Y-116691450D01*
X117673668Y-116713668D01*
X117651450Y-116740742D01*
X117634940Y-116771630D01*
X117624773Y-116805145D01*
X117621340Y-116840000D01*
X110978660Y-116840000D01*
X110975227Y-116805145D01*
X110965060Y-116771630D01*
X110948550Y-116740742D01*
X110926332Y-116713668D01*
X110899258Y-116691450D01*
X110868370Y-116674940D01*
X110834855Y-116664773D01*
X110800000Y-116661340D01*
X110221450Y-116662200D01*
X110177000Y-116706650D01*
X109923000Y-116706650D01*
X109878550Y-116662200D01*
X109300000Y-116661340D01*
X109265145Y-116664773D01*
X109231630Y-116674940D01*
X109200742Y-116691450D01*
X109173668Y-116713668D01*
X109151450Y-116740742D01*
X109134940Y-116771630D01*
X109124773Y-116805145D01*
X109121340Y-116840000D01*
X108331000Y-116840000D01*
X108331000Y-111729797D01*
X109271000Y-111729797D01*
X109271000Y-112095003D01*
X109342248Y-112453192D01*
X109482006Y-112790598D01*
X109684904Y-113094256D01*
X109943144Y-113352496D01*
X110246802Y-113555394D01*
X110584208Y-113695152D01*
X110942397Y-113766400D01*
X111307603Y-113766400D01*
X111665792Y-113695152D01*
X112003198Y-113555394D01*
X112306856Y-113352496D01*
X112565096Y-113094256D01*
X112767994Y-112790598D01*
X112907752Y-112453192D01*
X112979000Y-112095003D01*
X112979000Y-111729797D01*
X141021000Y-111729797D01*
X141021000Y-112095003D01*
X141092248Y-112453192D01*
X141232006Y-112790598D01*
X141434904Y-113094256D01*
X141693144Y-113352496D01*
X141996802Y-113555394D01*
X142334208Y-113695152D01*
X142692397Y-113766400D01*
X143057603Y-113766400D01*
X143415792Y-113695152D01*
X143753198Y-113555394D01*
X144056856Y-113352496D01*
X144315096Y-113094256D01*
X144517994Y-112790598D01*
X144657752Y-112453192D01*
X144729000Y-112095003D01*
X144729000Y-111729797D01*
X144657752Y-111371608D01*
X144517994Y-111034202D01*
X144315096Y-110730544D01*
X144056856Y-110472304D01*
X143753198Y-110269406D01*
X143415792Y-110129648D01*
X143057603Y-110058400D01*
X142692397Y-110058400D01*
X142334208Y-110129648D01*
X141996802Y-110269406D01*
X141693144Y-110472304D01*
X141434904Y-110730544D01*
X141232006Y-111034202D01*
X141092248Y-111371608D01*
X141021000Y-111729797D01*
X112979000Y-111729797D01*
X112907752Y-111371608D01*
X112767994Y-111034202D01*
X112565096Y-110730544D01*
X112306856Y-110472304D01*
X112003198Y-110269406D01*
X111665792Y-110129648D01*
X111307603Y-110058400D01*
X110942397Y-110058400D01*
X110584208Y-110129648D01*
X110246802Y-110269406D01*
X109943144Y-110472304D01*
X109684904Y-110730544D01*
X109482006Y-111034202D01*
X109342248Y-111371608D01*
X109271000Y-111729797D01*
X108331000Y-111729797D01*
X108331000Y-106600000D01*
X140791340Y-106600000D01*
X140794773Y-106634855D01*
X140804940Y-106668370D01*
X140821450Y-106699258D01*
X140843668Y-106726332D01*
X140870742Y-106748550D01*
X140901630Y-106765060D01*
X140935145Y-106775227D01*
X140970000Y-106778660D01*
X143338550Y-106777800D01*
X143383000Y-106733350D01*
X143383000Y-105977000D01*
X140836650Y-105977000D01*
X140792200Y-106021450D01*
X140791340Y-106600000D01*
X108331000Y-106600000D01*
X108331000Y-105100000D01*
X140791340Y-105100000D01*
X140792200Y-105678550D01*
X140836650Y-105723000D01*
X143383000Y-105723000D01*
X143383000Y-104966650D01*
X143338550Y-104922200D01*
X140970000Y-104921340D01*
X140935145Y-104924773D01*
X140901630Y-104934940D01*
X140870742Y-104951450D01*
X140843668Y-104973668D01*
X140821450Y-105000742D01*
X140804940Y-105031630D01*
X140794773Y-105065145D01*
X140791340Y-105100000D01*
X108331000Y-105100000D01*
X108331000Y-103964006D01*
X114195006Y-98100000D01*
X140791340Y-98100000D01*
X140794773Y-98134855D01*
X140804940Y-98168370D01*
X140821450Y-98199258D01*
X140843668Y-98226332D01*
X140870742Y-98248550D01*
X140901630Y-98265060D01*
X140935145Y-98275227D01*
X140970000Y-98278660D01*
X143338550Y-98277800D01*
X143383000Y-98233350D01*
X143383000Y-97477000D01*
X140836650Y-97477000D01*
X140792200Y-97521450D01*
X140791340Y-98100000D01*
X114195006Y-98100000D01*
X115695006Y-96600000D01*
X140791340Y-96600000D01*
X140792200Y-97178550D01*
X140836650Y-97223000D01*
X143383000Y-97223000D01*
X143383000Y-96466650D01*
X143338550Y-96422200D01*
X140970000Y-96421340D01*
X140935145Y-96424773D01*
X140901630Y-96434940D01*
X140870742Y-96451450D01*
X140843668Y-96473668D01*
X140821450Y-96500742D01*
X140804940Y-96531630D01*
X140794773Y-96565145D01*
X140791340Y-96600000D01*
X115695006Y-96600000D01*
X121190009Y-91104997D01*
X141021000Y-91104997D01*
X141021000Y-91470203D01*
X141092248Y-91828392D01*
X141232006Y-92165798D01*
X141434904Y-92469456D01*
X141693144Y-92727696D01*
X141996802Y-92930594D01*
X142334208Y-93070352D01*
X142692397Y-93141600D01*
X143057603Y-93141600D01*
X143415792Y-93070352D01*
X143753198Y-92930594D01*
X144056856Y-92727696D01*
X144315096Y-92469456D01*
X144517994Y-92165798D01*
X144657752Y-91828392D01*
X144729000Y-91470203D01*
X144729000Y-91104997D01*
X144657752Y-90746808D01*
X144517994Y-90409402D01*
X144315096Y-90105744D01*
X144056856Y-89847504D01*
X143753198Y-89644606D01*
X143415792Y-89504848D01*
X143057603Y-89433600D01*
X142692397Y-89433600D01*
X142334208Y-89504848D01*
X141996802Y-89644606D01*
X141693144Y-89847504D01*
X141434904Y-90105744D01*
X141232006Y-90409402D01*
X141092248Y-90746808D01*
X141021000Y-91104997D01*
X121190009Y-91104997D01*
X125554006Y-86741000D01*
X145669000Y-86741000D01*
X145669000Y-96421478D01*
G04 #@! TA.AperFunction,Conductor*
D13*
G36*
X145669000Y-96421478D02*
G01*
X143681450Y-96422200D01*
X143637000Y-96466650D01*
X143637000Y-97223000D01*
X143657000Y-97223000D01*
X143657000Y-97477000D01*
X143637000Y-97477000D01*
X143637000Y-98233350D01*
X143681450Y-98277800D01*
X145669000Y-98278522D01*
X145669000Y-104921478D01*
X143681450Y-104922200D01*
X143637000Y-104966650D01*
X143637000Y-105723000D01*
X143657000Y-105723000D01*
X143657000Y-105977000D01*
X143637000Y-105977000D01*
X143637000Y-106733350D01*
X143681450Y-106777800D01*
X145669000Y-106778522D01*
X145669000Y-121539000D01*
X144878522Y-121539000D01*
X144877800Y-119551450D01*
X144833350Y-119507000D01*
X144077000Y-119507000D01*
X144077000Y-119527000D01*
X143823000Y-119527000D01*
X143823000Y-119507000D01*
X143066650Y-119507000D01*
X143022200Y-119551450D01*
X143021478Y-121539000D01*
X136378522Y-121539000D01*
X136377800Y-119551450D01*
X136333350Y-119507000D01*
X135577000Y-119507000D01*
X135577000Y-119527000D01*
X135323000Y-119527000D01*
X135323000Y-119507000D01*
X134566650Y-119507000D01*
X134522200Y-119551450D01*
X134521478Y-121539000D01*
X132178522Y-121539000D01*
X132177800Y-119551450D01*
X132133350Y-119507000D01*
X131377000Y-119507000D01*
X131377000Y-119527000D01*
X131123000Y-119527000D01*
X131123000Y-119507000D01*
X130366650Y-119507000D01*
X130322200Y-119551450D01*
X130321478Y-121539000D01*
X123678522Y-121539000D01*
X123677800Y-119551450D01*
X123633350Y-119507000D01*
X122877000Y-119507000D01*
X122877000Y-119527000D01*
X122623000Y-119527000D01*
X122623000Y-119507000D01*
X121866650Y-119507000D01*
X121822200Y-119551450D01*
X121821478Y-121539000D01*
X119478522Y-121539000D01*
X119477800Y-119551450D01*
X119433350Y-119507000D01*
X118677000Y-119507000D01*
X118677000Y-119527000D01*
X118423000Y-119527000D01*
X118423000Y-119507000D01*
X117666650Y-119507000D01*
X117622200Y-119551450D01*
X117621478Y-121539000D01*
X110978522Y-121539000D01*
X110977800Y-119551450D01*
X110933350Y-119507000D01*
X110177000Y-119507000D01*
X110177000Y-119527000D01*
X109923000Y-119527000D01*
X109923000Y-119507000D01*
X109166650Y-119507000D01*
X109122200Y-119551450D01*
X109121478Y-121539000D01*
X108331000Y-121539000D01*
X108331000Y-116840000D01*
X109121340Y-116840000D01*
X109122200Y-119208550D01*
X109166650Y-119253000D01*
X109923000Y-119253000D01*
X109923000Y-116706650D01*
X110177000Y-116706650D01*
X110177000Y-119253000D01*
X110933350Y-119253000D01*
X110977800Y-119208550D01*
X110978660Y-116840000D01*
X117621340Y-116840000D01*
X117622200Y-119208550D01*
X117666650Y-119253000D01*
X118423000Y-119253000D01*
X118423000Y-116706650D01*
X118677000Y-116706650D01*
X118677000Y-119253000D01*
X119433350Y-119253000D01*
X119477800Y-119208550D01*
X119478660Y-116840000D01*
X121821340Y-116840000D01*
X121822200Y-119208550D01*
X121866650Y-119253000D01*
X122623000Y-119253000D01*
X122623000Y-116706650D01*
X122877000Y-116706650D01*
X122877000Y-119253000D01*
X123633350Y-119253000D01*
X123677800Y-119208550D01*
X123678660Y-116840000D01*
X130321340Y-116840000D01*
X130322200Y-119208550D01*
X130366650Y-119253000D01*
X131123000Y-119253000D01*
X131123000Y-116706650D01*
X131377000Y-116706650D01*
X131377000Y-119253000D01*
X132133350Y-119253000D01*
X132177800Y-119208550D01*
X132178660Y-116840000D01*
X134521340Y-116840000D01*
X134522200Y-119208550D01*
X134566650Y-119253000D01*
X135323000Y-119253000D01*
X135323000Y-116706650D01*
X135577000Y-116706650D01*
X135577000Y-119253000D01*
X136333350Y-119253000D01*
X136377800Y-119208550D01*
X136378660Y-116840000D01*
X143021340Y-116840000D01*
X143022200Y-119208550D01*
X143066650Y-119253000D01*
X143823000Y-119253000D01*
X143823000Y-116706650D01*
X144077000Y-116706650D01*
X144077000Y-119253000D01*
X144833350Y-119253000D01*
X144877800Y-119208550D01*
X144878660Y-116840000D01*
X144875227Y-116805145D01*
X144865060Y-116771630D01*
X144848550Y-116740742D01*
X144826332Y-116713668D01*
X144799258Y-116691450D01*
X144768370Y-116674940D01*
X144734855Y-116664773D01*
X144700000Y-116661340D01*
X144121450Y-116662200D01*
X144077000Y-116706650D01*
X143823000Y-116706650D01*
X143778550Y-116662200D01*
X143200000Y-116661340D01*
X143165145Y-116664773D01*
X143131630Y-116674940D01*
X143100742Y-116691450D01*
X143073668Y-116713668D01*
X143051450Y-116740742D01*
X143034940Y-116771630D01*
X143024773Y-116805145D01*
X143021340Y-116840000D01*
X136378660Y-116840000D01*
X136375227Y-116805145D01*
X136365060Y-116771630D01*
X136348550Y-116740742D01*
X136326332Y-116713668D01*
X136299258Y-116691450D01*
X136268370Y-116674940D01*
X136234855Y-116664773D01*
X136200000Y-116661340D01*
X135621450Y-116662200D01*
X135577000Y-116706650D01*
X135323000Y-116706650D01*
X135278550Y-116662200D01*
X134700000Y-116661340D01*
X134665145Y-116664773D01*
X134631630Y-116674940D01*
X134600742Y-116691450D01*
X134573668Y-116713668D01*
X134551450Y-116740742D01*
X134534940Y-116771630D01*
X134524773Y-116805145D01*
X134521340Y-116840000D01*
X132178660Y-116840000D01*
X132175227Y-116805145D01*
X132165060Y-116771630D01*
X132148550Y-116740742D01*
X132126332Y-116713668D01*
X132099258Y-116691450D01*
X132068370Y-116674940D01*
X132034855Y-116664773D01*
X132000000Y-116661340D01*
X131421450Y-116662200D01*
X131377000Y-116706650D01*
X131123000Y-116706650D01*
X131078550Y-116662200D01*
X130500000Y-116661340D01*
X130465145Y-116664773D01*
X130431630Y-116674940D01*
X130400742Y-116691450D01*
X130373668Y-116713668D01*
X130351450Y-116740742D01*
X130334940Y-116771630D01*
X130324773Y-116805145D01*
X130321340Y-116840000D01*
X123678660Y-116840000D01*
X123675227Y-116805145D01*
X123665060Y-116771630D01*
X123648550Y-116740742D01*
X123626332Y-116713668D01*
X123599258Y-116691450D01*
X123568370Y-116674940D01*
X123534855Y-116664773D01*
X123500000Y-116661340D01*
X122921450Y-116662200D01*
X122877000Y-116706650D01*
X122623000Y-116706650D01*
X122578550Y-116662200D01*
X122000000Y-116661340D01*
X121965145Y-116664773D01*
X121931630Y-116674940D01*
X121900742Y-116691450D01*
X121873668Y-116713668D01*
X121851450Y-116740742D01*
X121834940Y-116771630D01*
X121824773Y-116805145D01*
X121821340Y-116840000D01*
X119478660Y-116840000D01*
X119475227Y-116805145D01*
X119465060Y-116771630D01*
X119448550Y-116740742D01*
X119426332Y-116713668D01*
X119399258Y-116691450D01*
X119368370Y-116674940D01*
X119334855Y-116664773D01*
X119300000Y-116661340D01*
X118721450Y-116662200D01*
X118677000Y-116706650D01*
X118423000Y-116706650D01*
X118378550Y-116662200D01*
X117800000Y-116661340D01*
X117765145Y-116664773D01*
X117731630Y-116674940D01*
X117700742Y-116691450D01*
X117673668Y-116713668D01*
X117651450Y-116740742D01*
X117634940Y-116771630D01*
X117624773Y-116805145D01*
X117621340Y-116840000D01*
X110978660Y-116840000D01*
X110975227Y-116805145D01*
X110965060Y-116771630D01*
X110948550Y-116740742D01*
X110926332Y-116713668D01*
X110899258Y-116691450D01*
X110868370Y-116674940D01*
X110834855Y-116664773D01*
X110800000Y-116661340D01*
X110221450Y-116662200D01*
X110177000Y-116706650D01*
X109923000Y-116706650D01*
X109878550Y-116662200D01*
X109300000Y-116661340D01*
X109265145Y-116664773D01*
X109231630Y-116674940D01*
X109200742Y-116691450D01*
X109173668Y-116713668D01*
X109151450Y-116740742D01*
X109134940Y-116771630D01*
X109124773Y-116805145D01*
X109121340Y-116840000D01*
X108331000Y-116840000D01*
X108331000Y-111729797D01*
X109271000Y-111729797D01*
X109271000Y-112095003D01*
X109342248Y-112453192D01*
X109482006Y-112790598D01*
X109684904Y-113094256D01*
X109943144Y-113352496D01*
X110246802Y-113555394D01*
X110584208Y-113695152D01*
X110942397Y-113766400D01*
X111307603Y-113766400D01*
X111665792Y-113695152D01*
X112003198Y-113555394D01*
X112306856Y-113352496D01*
X112565096Y-113094256D01*
X112767994Y-112790598D01*
X112907752Y-112453192D01*
X112979000Y-112095003D01*
X112979000Y-111729797D01*
X141021000Y-111729797D01*
X141021000Y-112095003D01*
X141092248Y-112453192D01*
X141232006Y-112790598D01*
X141434904Y-113094256D01*
X141693144Y-113352496D01*
X141996802Y-113555394D01*
X142334208Y-113695152D01*
X142692397Y-113766400D01*
X143057603Y-113766400D01*
X143415792Y-113695152D01*
X143753198Y-113555394D01*
X144056856Y-113352496D01*
X144315096Y-113094256D01*
X144517994Y-112790598D01*
X144657752Y-112453192D01*
X144729000Y-112095003D01*
X144729000Y-111729797D01*
X144657752Y-111371608D01*
X144517994Y-111034202D01*
X144315096Y-110730544D01*
X144056856Y-110472304D01*
X143753198Y-110269406D01*
X143415792Y-110129648D01*
X143057603Y-110058400D01*
X142692397Y-110058400D01*
X142334208Y-110129648D01*
X141996802Y-110269406D01*
X141693144Y-110472304D01*
X141434904Y-110730544D01*
X141232006Y-111034202D01*
X141092248Y-111371608D01*
X141021000Y-111729797D01*
X112979000Y-111729797D01*
X112907752Y-111371608D01*
X112767994Y-111034202D01*
X112565096Y-110730544D01*
X112306856Y-110472304D01*
X112003198Y-110269406D01*
X111665792Y-110129648D01*
X111307603Y-110058400D01*
X110942397Y-110058400D01*
X110584208Y-110129648D01*
X110246802Y-110269406D01*
X109943144Y-110472304D01*
X109684904Y-110730544D01*
X109482006Y-111034202D01*
X109342248Y-111371608D01*
X109271000Y-111729797D01*
X108331000Y-111729797D01*
X108331000Y-106600000D01*
X140791340Y-106600000D01*
X140794773Y-106634855D01*
X140804940Y-106668370D01*
X140821450Y-106699258D01*
X140843668Y-106726332D01*
X140870742Y-106748550D01*
X140901630Y-106765060D01*
X140935145Y-106775227D01*
X140970000Y-106778660D01*
X143338550Y-106777800D01*
X143383000Y-106733350D01*
X143383000Y-105977000D01*
X140836650Y-105977000D01*
X140792200Y-106021450D01*
X140791340Y-106600000D01*
X108331000Y-106600000D01*
X108331000Y-105100000D01*
X140791340Y-105100000D01*
X140792200Y-105678550D01*
X140836650Y-105723000D01*
X143383000Y-105723000D01*
X143383000Y-104966650D01*
X143338550Y-104922200D01*
X140970000Y-104921340D01*
X140935145Y-104924773D01*
X140901630Y-104934940D01*
X140870742Y-104951450D01*
X140843668Y-104973668D01*
X140821450Y-105000742D01*
X140804940Y-105031630D01*
X140794773Y-105065145D01*
X140791340Y-105100000D01*
X108331000Y-105100000D01*
X108331000Y-103964006D01*
X114195006Y-98100000D01*
X140791340Y-98100000D01*
X140794773Y-98134855D01*
X140804940Y-98168370D01*
X140821450Y-98199258D01*
X140843668Y-98226332D01*
X140870742Y-98248550D01*
X140901630Y-98265060D01*
X140935145Y-98275227D01*
X140970000Y-98278660D01*
X143338550Y-98277800D01*
X143383000Y-98233350D01*
X143383000Y-97477000D01*
X140836650Y-97477000D01*
X140792200Y-97521450D01*
X140791340Y-98100000D01*
X114195006Y-98100000D01*
X115695006Y-96600000D01*
X140791340Y-96600000D01*
X140792200Y-97178550D01*
X140836650Y-97223000D01*
X143383000Y-97223000D01*
X143383000Y-96466650D01*
X143338550Y-96422200D01*
X140970000Y-96421340D01*
X140935145Y-96424773D01*
X140901630Y-96434940D01*
X140870742Y-96451450D01*
X140843668Y-96473668D01*
X140821450Y-96500742D01*
X140804940Y-96531630D01*
X140794773Y-96565145D01*
X140791340Y-96600000D01*
X115695006Y-96600000D01*
X121190009Y-91104997D01*
X141021000Y-91104997D01*
X141021000Y-91470203D01*
X141092248Y-91828392D01*
X141232006Y-92165798D01*
X141434904Y-92469456D01*
X141693144Y-92727696D01*
X141996802Y-92930594D01*
X142334208Y-93070352D01*
X142692397Y-93141600D01*
X143057603Y-93141600D01*
X143415792Y-93070352D01*
X143753198Y-92930594D01*
X144056856Y-92727696D01*
X144315096Y-92469456D01*
X144517994Y-92165798D01*
X144657752Y-91828392D01*
X144729000Y-91470203D01*
X144729000Y-91104997D01*
X144657752Y-90746808D01*
X144517994Y-90409402D01*
X144315096Y-90105744D01*
X144056856Y-89847504D01*
X143753198Y-89644606D01*
X143415792Y-89504848D01*
X143057603Y-89433600D01*
X142692397Y-89433600D01*
X142334208Y-89504848D01*
X141996802Y-89644606D01*
X141693144Y-89847504D01*
X141434904Y-90105744D01*
X141232006Y-90409402D01*
X141092248Y-90746808D01*
X141021000Y-91104997D01*
X121190009Y-91104997D01*
X125554006Y-86741000D01*
X145669000Y-86741000D01*
X145669000Y-96421478D01*
G37*
G04 #@! TD.AperFunction*
G04 #@! TD*
M02*
