G04 #@! TF.GenerationSoftware,KiCad,Pcbnew,(6.0.7)*
G04 #@! TF.CreationDate,2022-08-31T16:19:09-05:00*
G04 #@! TF.ProjectId,UTCPW_MountingBoard,55544350-575f-44d6-9f75-6e74696e6742,rev?*
G04 #@! TF.SameCoordinates,Original*
G04 #@! TF.FileFunction,Copper,L2,Bot*
G04 #@! TF.FilePolarity,Positive*
%FSLAX46Y46*%
G04 Gerber Fmt 4.6, Leading zero omitted, Abs format (unit mm)*
G04 Created by KiCad (PCBNEW (6.0.7)) date 2022-08-31 16:19:09*
%MOMM*%
%LPD*%
G01*
G04 APERTURE LIST*
G04 #@! TA.AperFunction,ComponentPad*
%ADD10C,1.219200*%
G04 #@! TD*
G04 APERTURE END LIST*
D10*
G04 #@! TO.P,REF\u002A\u002A,*
G04 #@! TO.N,/GND*
X138480800Y-117957600D03*
X140919200Y-117957600D03*
X140919200Y-120167400D03*
X138480800Y-120167400D03*
G04 #@! TD*
G04 #@! TO.P,REF\u002A\u002A,*
G04 #@! TO.N,/GND*
X113080800Y-120167400D03*
X115519200Y-120167400D03*
X113080800Y-117957600D03*
X115519200Y-117957600D03*
G04 #@! TD*
G04 #@! TO.P,REF\u002A\u002A,*
G04 #@! TO.N,/GND*
X125180800Y-120167400D03*
X125180800Y-117957600D03*
X127619200Y-120167400D03*
X127619200Y-117957600D03*
G04 #@! TD*
G04 #@! TA.AperFunction,Conductor*
G04 #@! TO.N,/GND*
G36*
X145864621Y-86507502D02*
G01*
X145911114Y-86561158D01*
X145922500Y-86613500D01*
X145922500Y-121666500D01*
X145902498Y-121734621D01*
X145848842Y-121781114D01*
X145796500Y-121792500D01*
X108203500Y-121792500D01*
X108135379Y-121772498D01*
X108088886Y-121718842D01*
X108077500Y-121666500D01*
X108077500Y-111912400D01*
X109519551Y-111912400D01*
X109539317Y-112163548D01*
X109598127Y-112408511D01*
X109694534Y-112641259D01*
X109826164Y-112856059D01*
X109829376Y-112859819D01*
X109829379Y-112859824D01*
X109974256Y-113029452D01*
X109989776Y-113047624D01*
X109993538Y-113050837D01*
X110177576Y-113208021D01*
X110177581Y-113208024D01*
X110181341Y-113211236D01*
X110396141Y-113342866D01*
X110400711Y-113344759D01*
X110400715Y-113344761D01*
X110624316Y-113437379D01*
X110628889Y-113439273D01*
X110713289Y-113459535D01*
X110869039Y-113496928D01*
X110869045Y-113496929D01*
X110873852Y-113498083D01*
X110962149Y-113505032D01*
X111059661Y-113512707D01*
X111059670Y-113512707D01*
X111062118Y-113512900D01*
X111187882Y-113512900D01*
X111190330Y-113512707D01*
X111190339Y-113512707D01*
X111287851Y-113505032D01*
X111376148Y-113498083D01*
X111380955Y-113496929D01*
X111380961Y-113496928D01*
X111536711Y-113459535D01*
X111621111Y-113439273D01*
X111625684Y-113437379D01*
X111849285Y-113344761D01*
X111849289Y-113344759D01*
X111853859Y-113342866D01*
X112068659Y-113211236D01*
X112072419Y-113208024D01*
X112072424Y-113208021D01*
X112256462Y-113050837D01*
X112260224Y-113047624D01*
X112275744Y-113029452D01*
X112420621Y-112859824D01*
X112420624Y-112859819D01*
X112423836Y-112856059D01*
X112555466Y-112641259D01*
X112651873Y-112408511D01*
X112710683Y-112163548D01*
X112730449Y-111912400D01*
X141269551Y-111912400D01*
X141289317Y-112163548D01*
X141348127Y-112408511D01*
X141444534Y-112641259D01*
X141576164Y-112856059D01*
X141579376Y-112859819D01*
X141579379Y-112859824D01*
X141724256Y-113029452D01*
X141739776Y-113047624D01*
X141743538Y-113050837D01*
X141927576Y-113208021D01*
X141927581Y-113208024D01*
X141931341Y-113211236D01*
X142146141Y-113342866D01*
X142150711Y-113344759D01*
X142150715Y-113344761D01*
X142374316Y-113437379D01*
X142378889Y-113439273D01*
X142463289Y-113459535D01*
X142619039Y-113496928D01*
X142619045Y-113496929D01*
X142623852Y-113498083D01*
X142712149Y-113505032D01*
X142809661Y-113512707D01*
X142809670Y-113512707D01*
X142812118Y-113512900D01*
X142937882Y-113512900D01*
X142940330Y-113512707D01*
X142940339Y-113512707D01*
X143037851Y-113505032D01*
X143126148Y-113498083D01*
X143130955Y-113496929D01*
X143130961Y-113496928D01*
X143286711Y-113459535D01*
X143371111Y-113439273D01*
X143375684Y-113437379D01*
X143599285Y-113344761D01*
X143599289Y-113344759D01*
X143603859Y-113342866D01*
X143818659Y-113211236D01*
X143822419Y-113208024D01*
X143822424Y-113208021D01*
X144006462Y-113050837D01*
X144010224Y-113047624D01*
X144025744Y-113029452D01*
X144170621Y-112859824D01*
X144170624Y-112859819D01*
X144173836Y-112856059D01*
X144305466Y-112641259D01*
X144401873Y-112408511D01*
X144460683Y-112163548D01*
X144480449Y-111912400D01*
X144460683Y-111661252D01*
X144401873Y-111416289D01*
X144305466Y-111183541D01*
X144173836Y-110968741D01*
X144170624Y-110964981D01*
X144170621Y-110964976D01*
X144013437Y-110780938D01*
X144010224Y-110777176D01*
X143992052Y-110761656D01*
X143822424Y-110616779D01*
X143822419Y-110616776D01*
X143818659Y-110613564D01*
X143603859Y-110481934D01*
X143599289Y-110480041D01*
X143599285Y-110480039D01*
X143375684Y-110387421D01*
X143375682Y-110387420D01*
X143371111Y-110385527D01*
X143286711Y-110365265D01*
X143130961Y-110327872D01*
X143130955Y-110327871D01*
X143126148Y-110326717D01*
X143037851Y-110319768D01*
X142940339Y-110312093D01*
X142940330Y-110312093D01*
X142937882Y-110311900D01*
X142812118Y-110311900D01*
X142809670Y-110312093D01*
X142809661Y-110312093D01*
X142712149Y-110319768D01*
X142623852Y-110326717D01*
X142619045Y-110327871D01*
X142619039Y-110327872D01*
X142463289Y-110365265D01*
X142378889Y-110385527D01*
X142374318Y-110387420D01*
X142374316Y-110387421D01*
X142150715Y-110480039D01*
X142150711Y-110480041D01*
X142146141Y-110481934D01*
X141931341Y-110613564D01*
X141927581Y-110616776D01*
X141927576Y-110616779D01*
X141757948Y-110761656D01*
X141739776Y-110777176D01*
X141736563Y-110780938D01*
X141579379Y-110964976D01*
X141579376Y-110964981D01*
X141576164Y-110968741D01*
X141444534Y-111183541D01*
X141348127Y-111416289D01*
X141289317Y-111661252D01*
X141269551Y-111912400D01*
X112730449Y-111912400D01*
X112710683Y-111661252D01*
X112651873Y-111416289D01*
X112555466Y-111183541D01*
X112423836Y-110968741D01*
X112420624Y-110964981D01*
X112420621Y-110964976D01*
X112263437Y-110780938D01*
X112260224Y-110777176D01*
X112242052Y-110761656D01*
X112072424Y-110616779D01*
X112072419Y-110616776D01*
X112068659Y-110613564D01*
X111853859Y-110481934D01*
X111849289Y-110480041D01*
X111849285Y-110480039D01*
X111625684Y-110387421D01*
X111625682Y-110387420D01*
X111621111Y-110385527D01*
X111536711Y-110365265D01*
X111380961Y-110327872D01*
X111380955Y-110327871D01*
X111376148Y-110326717D01*
X111287851Y-110319768D01*
X111190339Y-110312093D01*
X111190330Y-110312093D01*
X111187882Y-110311900D01*
X111062118Y-110311900D01*
X111059670Y-110312093D01*
X111059661Y-110312093D01*
X110962149Y-110319768D01*
X110873852Y-110326717D01*
X110869045Y-110327871D01*
X110869039Y-110327872D01*
X110713289Y-110365265D01*
X110628889Y-110385527D01*
X110624318Y-110387420D01*
X110624316Y-110387421D01*
X110400715Y-110480039D01*
X110400711Y-110480041D01*
X110396141Y-110481934D01*
X110181341Y-110613564D01*
X110177581Y-110616776D01*
X110177576Y-110616779D01*
X110007948Y-110761656D01*
X109989776Y-110777176D01*
X109986563Y-110780938D01*
X109829379Y-110964976D01*
X109829376Y-110964981D01*
X109826164Y-110968741D01*
X109694534Y-111183541D01*
X109598127Y-111416289D01*
X109539317Y-111661252D01*
X109519551Y-111912400D01*
X108077500Y-111912400D01*
X108077500Y-91287600D01*
X109519551Y-91287600D01*
X109539317Y-91538748D01*
X109598127Y-91783711D01*
X109694534Y-92016459D01*
X109826164Y-92231259D01*
X109829376Y-92235019D01*
X109829379Y-92235024D01*
X109974256Y-92404652D01*
X109989776Y-92422824D01*
X109993538Y-92426037D01*
X110177576Y-92583221D01*
X110177581Y-92583224D01*
X110181341Y-92586436D01*
X110396141Y-92718066D01*
X110400711Y-92719959D01*
X110400715Y-92719961D01*
X110624316Y-92812579D01*
X110628889Y-92814473D01*
X110713289Y-92834735D01*
X110869039Y-92872128D01*
X110869045Y-92872129D01*
X110873852Y-92873283D01*
X110962149Y-92880232D01*
X111059661Y-92887907D01*
X111059670Y-92887907D01*
X111062118Y-92888100D01*
X111187882Y-92888100D01*
X111190330Y-92887907D01*
X111190339Y-92887907D01*
X111287851Y-92880232D01*
X111376148Y-92873283D01*
X111380955Y-92872129D01*
X111380961Y-92872128D01*
X111536711Y-92834735D01*
X111621111Y-92814473D01*
X111625684Y-92812579D01*
X111849285Y-92719961D01*
X111849289Y-92719959D01*
X111853859Y-92718066D01*
X112068659Y-92586436D01*
X112072419Y-92583224D01*
X112072424Y-92583221D01*
X112256462Y-92426037D01*
X112260224Y-92422824D01*
X112275744Y-92404652D01*
X112420621Y-92235024D01*
X112420624Y-92235019D01*
X112423836Y-92231259D01*
X112555466Y-92016459D01*
X112651873Y-91783711D01*
X112710683Y-91538748D01*
X112730449Y-91287600D01*
X141269551Y-91287600D01*
X141289317Y-91538748D01*
X141348127Y-91783711D01*
X141444534Y-92016459D01*
X141576164Y-92231259D01*
X141579376Y-92235019D01*
X141579379Y-92235024D01*
X141724256Y-92404652D01*
X141739776Y-92422824D01*
X141743538Y-92426037D01*
X141927576Y-92583221D01*
X141927581Y-92583224D01*
X141931341Y-92586436D01*
X142146141Y-92718066D01*
X142150711Y-92719959D01*
X142150715Y-92719961D01*
X142374316Y-92812579D01*
X142378889Y-92814473D01*
X142463289Y-92834735D01*
X142619039Y-92872128D01*
X142619045Y-92872129D01*
X142623852Y-92873283D01*
X142712149Y-92880232D01*
X142809661Y-92887907D01*
X142809670Y-92887907D01*
X142812118Y-92888100D01*
X142937882Y-92888100D01*
X142940330Y-92887907D01*
X142940339Y-92887907D01*
X143037851Y-92880232D01*
X143126148Y-92873283D01*
X143130955Y-92872129D01*
X143130961Y-92872128D01*
X143286711Y-92834735D01*
X143371111Y-92814473D01*
X143375684Y-92812579D01*
X143599285Y-92719961D01*
X143599289Y-92719959D01*
X143603859Y-92718066D01*
X143818659Y-92586436D01*
X143822419Y-92583224D01*
X143822424Y-92583221D01*
X144006462Y-92426037D01*
X144010224Y-92422824D01*
X144025744Y-92404652D01*
X144170621Y-92235024D01*
X144170624Y-92235019D01*
X144173836Y-92231259D01*
X144305466Y-92016459D01*
X144401873Y-91783711D01*
X144460683Y-91538748D01*
X144480449Y-91287600D01*
X144460683Y-91036452D01*
X144401873Y-90791489D01*
X144305466Y-90558741D01*
X144173836Y-90343941D01*
X144170624Y-90340181D01*
X144170621Y-90340176D01*
X144013437Y-90156138D01*
X144010224Y-90152376D01*
X143992052Y-90136856D01*
X143822424Y-89991979D01*
X143822419Y-89991976D01*
X143818659Y-89988764D01*
X143603859Y-89857134D01*
X143599289Y-89855241D01*
X143599285Y-89855239D01*
X143375684Y-89762621D01*
X143375682Y-89762620D01*
X143371111Y-89760727D01*
X143286711Y-89740465D01*
X143130961Y-89703072D01*
X143130955Y-89703071D01*
X143126148Y-89701917D01*
X143037851Y-89694968D01*
X142940339Y-89687293D01*
X142940330Y-89687293D01*
X142937882Y-89687100D01*
X142812118Y-89687100D01*
X142809670Y-89687293D01*
X142809661Y-89687293D01*
X142712149Y-89694968D01*
X142623852Y-89701917D01*
X142619045Y-89703071D01*
X142619039Y-89703072D01*
X142463289Y-89740465D01*
X142378889Y-89760727D01*
X142374318Y-89762620D01*
X142374316Y-89762621D01*
X142150715Y-89855239D01*
X142150711Y-89855241D01*
X142146141Y-89857134D01*
X141931341Y-89988764D01*
X141927581Y-89991976D01*
X141927576Y-89991979D01*
X141757948Y-90136856D01*
X141739776Y-90152376D01*
X141736563Y-90156138D01*
X141579379Y-90340176D01*
X141579376Y-90340181D01*
X141576164Y-90343941D01*
X141444534Y-90558741D01*
X141348127Y-90791489D01*
X141289317Y-91036452D01*
X141269551Y-91287600D01*
X112730449Y-91287600D01*
X112710683Y-91036452D01*
X112651873Y-90791489D01*
X112555466Y-90558741D01*
X112423836Y-90343941D01*
X112420624Y-90340181D01*
X112420621Y-90340176D01*
X112263437Y-90156138D01*
X112260224Y-90152376D01*
X112242052Y-90136856D01*
X112072424Y-89991979D01*
X112072419Y-89991976D01*
X112068659Y-89988764D01*
X111853859Y-89857134D01*
X111849289Y-89855241D01*
X111849285Y-89855239D01*
X111625684Y-89762621D01*
X111625682Y-89762620D01*
X111621111Y-89760727D01*
X111536711Y-89740465D01*
X111380961Y-89703072D01*
X111380955Y-89703071D01*
X111376148Y-89701917D01*
X111287851Y-89694968D01*
X111190339Y-89687293D01*
X111190330Y-89687293D01*
X111187882Y-89687100D01*
X111062118Y-89687100D01*
X111059670Y-89687293D01*
X111059661Y-89687293D01*
X110962149Y-89694968D01*
X110873852Y-89701917D01*
X110869045Y-89703071D01*
X110869039Y-89703072D01*
X110713289Y-89740465D01*
X110628889Y-89760727D01*
X110624318Y-89762620D01*
X110624316Y-89762621D01*
X110400715Y-89855239D01*
X110400711Y-89855241D01*
X110396141Y-89857134D01*
X110181341Y-89988764D01*
X110177581Y-89991976D01*
X110177576Y-89991979D01*
X110007948Y-90136856D01*
X109989776Y-90152376D01*
X109986563Y-90156138D01*
X109829379Y-90340176D01*
X109829376Y-90340181D01*
X109826164Y-90343941D01*
X109694534Y-90558741D01*
X109598127Y-90791489D01*
X109539317Y-91036452D01*
X109519551Y-91287600D01*
X108077500Y-91287600D01*
X108077500Y-86613500D01*
X108097502Y-86545379D01*
X108151158Y-86498886D01*
X108203500Y-86487500D01*
X145796500Y-86487500D01*
X145864621Y-86507502D01*
G37*
G04 #@! TD.AperFunction*
G04 #@! TD*
M02*
