G04 #@! TF.GenerationSoftware,KiCad,Pcbnew,(6.0.7)*
G04 #@! TF.CreationDate,2022-08-26T14:01:08-05:00*
G04 #@! TF.ProjectId,UTCPW_MountingBoard,55544350-575f-44d6-9f75-6e74696e6742,rev?*
G04 #@! TF.SameCoordinates,Original*
G04 #@! TF.FileFunction,Copper,L1,Top*
G04 #@! TF.FilePolarity,Positive*
%FSLAX46Y46*%
G04 Gerber Fmt 4.6, Leading zero omitted, Abs format (unit mm)*
G04 Created by KiCad (PCBNEW (6.0.7)) date 2022-08-26 14:01:08*
%MOMM*%
%LPD*%
G01*
G04 APERTURE LIST*
G04 #@! TA.AperFunction,ConnectorPad*
%ADD10R,0.330200X0.101600*%
G04 #@! TD*
G04 #@! TA.AperFunction,ComponentPad*
%ADD11C,1.219200*%
G04 #@! TD*
G04 #@! TA.AperFunction,SMDPad,CuDef*
%ADD12R,0.406400X5.537200*%
G04 #@! TD*
G04 #@! TA.AperFunction,SMDPad,CuDef*
%ADD13R,3.609340X5.537200*%
G04 #@! TD*
G04 #@! TA.AperFunction,Conductor*
%ADD14C,0.330200*%
G04 #@! TD*
G04 #@! TA.AperFunction,Conductor*
%ADD15C,0.250000*%
G04 #@! TD*
G04 APERTURE END LIST*
D10*
G04 #@! TO.P,U1,2*
G04 #@! TO.N,/Dev2*
X126400000Y-101600000D03*
G04 #@! TO.P,U1,1*
G04 #@! TO.N,/Dev1*
X125200000Y-101600000D03*
G04 #@! TO.P,U1,3*
G04 #@! TO.N,/Dev3*
X127600000Y-101600000D03*
G04 #@! TO.P,U1,4*
G04 #@! TO.N,/Dev4*
X128800000Y-101600000D03*
G04 #@! TD*
D11*
G04 #@! TO.P,REF\u002A\u002A,*
G04 #@! TO.N,*
X140919200Y-120167400D03*
X138480800Y-120167400D03*
X138480800Y-117957600D03*
X140919200Y-117957600D03*
D12*
G04 #@! TO.P,REF\u002A\u002A,1*
G04 #@! TO.N,/Dev3*
X139700000Y-119151400D03*
D13*
G04 #@! TO.P,REF\u002A\u002A,2*
G04 #@! TO.N,/GND*
X137439400Y-119151400D03*
X141960600Y-119151400D03*
G04 #@! TD*
D11*
G04 #@! TO.P,REF\u002A\u002A,*
G04 #@! TO.N,*
X115519200Y-120167400D03*
X113080800Y-120167400D03*
X113080800Y-117957600D03*
X115519200Y-117957600D03*
D12*
G04 #@! TO.P,REF\u002A\u002A,1*
G04 #@! TO.N,/Dev1*
X114300000Y-119151400D03*
D13*
G04 #@! TO.P,REF\u002A\u002A,2*
G04 #@! TO.N,/GND*
X112039400Y-119151400D03*
X116560600Y-119151400D03*
G04 #@! TD*
D11*
G04 #@! TO.P,REF\u002A\u002A,*
G04 #@! TO.N,*
X127619200Y-120167400D03*
X125180800Y-120167400D03*
X125180800Y-117957600D03*
X127619200Y-117957600D03*
D12*
G04 #@! TO.P,REF\u002A\u002A,1*
G04 #@! TO.N,/Dev2*
X126400000Y-119151400D03*
D13*
G04 #@! TO.P,REF\u002A\u002A,2*
G04 #@! TO.N,/GND*
X124139400Y-119151400D03*
X128660600Y-119151400D03*
G04 #@! TD*
D14*
G04 #@! TO.N,/Dev2*
X126400000Y-101600000D02*
X126400000Y-119151400D01*
G04 #@! TO.N,/Dev3*
X139700000Y-114300000D02*
X136652000Y-111252000D01*
X132080000Y-111252000D02*
X127600000Y-106772000D01*
X127600000Y-106772000D02*
X127600000Y-101600000D01*
X136652000Y-111252000D02*
X132080000Y-111252000D01*
X139700000Y-119151400D02*
X139700000Y-114300000D01*
G04 #@! TO.N,/Dev1*
X125200000Y-101600000D02*
X125200000Y-106680000D01*
X120628000Y-111252000D02*
X125200000Y-106680000D01*
D15*
X125200000Y-101602814D02*
X125200000Y-101600000D01*
X125200000Y-101602814D02*
X125200000Y-101622000D01*
D14*
X114300000Y-119151400D02*
X114300000Y-114300000D01*
X117348000Y-111252000D02*
X120628000Y-111252000D01*
X114300000Y-114300000D02*
X117348000Y-111252000D01*
G04 #@! TD*
G04 #@! TA.AperFunction,Conductor*
G04 #@! TO.N,/GND*
G36*
X145737621Y-86634502D02*
G01*
X145784114Y-86688158D01*
X145795500Y-86740500D01*
X145795500Y-121539500D01*
X145775498Y-121607621D01*
X145721842Y-121654114D01*
X145669500Y-121665500D01*
X140283700Y-121665500D01*
X140215579Y-121645498D01*
X140169086Y-121591842D01*
X140157700Y-121539500D01*
X140157700Y-120929514D01*
X140177702Y-120861393D01*
X140231358Y-120814900D01*
X140301632Y-120804796D01*
X140357761Y-120827578D01*
X140479428Y-120915974D01*
X140484770Y-120919855D01*
X140490798Y-120922539D01*
X140490800Y-120922540D01*
X140506462Y-120929513D01*
X140650707Y-120993735D01*
X140739543Y-121012617D01*
X140821922Y-121030128D01*
X140821926Y-121030128D01*
X140828379Y-121031500D01*
X141010021Y-121031500D01*
X141016474Y-121030128D01*
X141016478Y-121030128D01*
X141098857Y-121012617D01*
X141187693Y-120993735D01*
X141331938Y-120929513D01*
X141347600Y-120922540D01*
X141347602Y-120922539D01*
X141353630Y-120919855D01*
X141358972Y-120915974D01*
X141495237Y-120816972D01*
X141495239Y-120816970D01*
X141500581Y-120813089D01*
X141622123Y-120678103D01*
X141712943Y-120520797D01*
X141769073Y-120348046D01*
X141788060Y-120167400D01*
X141769073Y-119986754D01*
X141712943Y-119814003D01*
X141622123Y-119656697D01*
X141500581Y-119521711D01*
X141491345Y-119515000D01*
X141358972Y-119418826D01*
X141358971Y-119418825D01*
X141353630Y-119414945D01*
X141347602Y-119412261D01*
X141347600Y-119412260D01*
X141193724Y-119343750D01*
X141193723Y-119343750D01*
X141187693Y-119341065D01*
X141098857Y-119322182D01*
X141016478Y-119304672D01*
X141016474Y-119304672D01*
X141010021Y-119303300D01*
X140828379Y-119303300D01*
X140821926Y-119304672D01*
X140821922Y-119304672D01*
X140739543Y-119322182D01*
X140650707Y-119341065D01*
X140644677Y-119343750D01*
X140644676Y-119343750D01*
X140490800Y-119412260D01*
X140490798Y-119412261D01*
X140484770Y-119414945D01*
X140479429Y-119418825D01*
X140479428Y-119418826D01*
X140357761Y-119507222D01*
X140290893Y-119531081D01*
X140221741Y-119515000D01*
X140172261Y-119464086D01*
X140157700Y-119405286D01*
X140157699Y-118719713D01*
X140177701Y-118651592D01*
X140231357Y-118605099D01*
X140301630Y-118594995D01*
X140357760Y-118617777D01*
X140484770Y-118710055D01*
X140490798Y-118712739D01*
X140490800Y-118712740D01*
X140506462Y-118719713D01*
X140650707Y-118783935D01*
X140739543Y-118802817D01*
X140821922Y-118820328D01*
X140821926Y-118820328D01*
X140828379Y-118821700D01*
X141010021Y-118821700D01*
X141016474Y-118820328D01*
X141016478Y-118820328D01*
X141098857Y-118802817D01*
X141187693Y-118783935D01*
X141331938Y-118719713D01*
X141347600Y-118712740D01*
X141347602Y-118712739D01*
X141353630Y-118710055D01*
X141480640Y-118617777D01*
X141495237Y-118607172D01*
X141495239Y-118607170D01*
X141500581Y-118603289D01*
X141622123Y-118468303D01*
X141712943Y-118310997D01*
X141769073Y-118138246D01*
X141788060Y-117957600D01*
X141769073Y-117776954D01*
X141712943Y-117604203D01*
X141622123Y-117446897D01*
X141500581Y-117311911D01*
X141491346Y-117305201D01*
X141358972Y-117209026D01*
X141358971Y-117209025D01*
X141353630Y-117205145D01*
X141347602Y-117202461D01*
X141347600Y-117202460D01*
X141193724Y-117133950D01*
X141193723Y-117133950D01*
X141187693Y-117131265D01*
X141098857Y-117112382D01*
X141016478Y-117094872D01*
X141016474Y-117094872D01*
X141010021Y-117093500D01*
X140828379Y-117093500D01*
X140821926Y-117094872D01*
X140821922Y-117094872D01*
X140739543Y-117112382D01*
X140650707Y-117131265D01*
X140644677Y-117133950D01*
X140644676Y-117133950D01*
X140490800Y-117202460D01*
X140490798Y-117202461D01*
X140484770Y-117205145D01*
X140479429Y-117209025D01*
X140479428Y-117209026D01*
X140357760Y-117297423D01*
X140290892Y-117321282D01*
X140221741Y-117305201D01*
X140172260Y-117254287D01*
X140157699Y-117195487D01*
X140157699Y-116357734D01*
X140142934Y-116283499D01*
X140136038Y-116273178D01*
X140131289Y-116261714D01*
X140134745Y-116260283D01*
X140119600Y-116210356D01*
X140119600Y-114233542D01*
X140116536Y-114224111D01*
X140116535Y-114224107D01*
X140112332Y-114211172D01*
X140107716Y-114191948D01*
X140105588Y-114178512D01*
X140105588Y-114178511D01*
X140104037Y-114168720D01*
X140093359Y-114147763D01*
X140085794Y-114129501D01*
X140078526Y-114107132D01*
X140064705Y-114088109D01*
X140054374Y-114071250D01*
X140053712Y-114069951D01*
X140043695Y-114050291D01*
X137905804Y-111912400D01*
X141265539Y-111912400D01*
X141285354Y-112164175D01*
X141286508Y-112168982D01*
X141286509Y-112168988D01*
X141323613Y-112323535D01*
X141344312Y-112409751D01*
X141440960Y-112643080D01*
X141572919Y-112858417D01*
X141736939Y-113050461D01*
X141928983Y-113214481D01*
X142144320Y-113346440D01*
X142148890Y-113348333D01*
X142148894Y-113348335D01*
X142373076Y-113441194D01*
X142377649Y-113443088D01*
X142463865Y-113463787D01*
X142618412Y-113500891D01*
X142618418Y-113500892D01*
X142623225Y-113502046D01*
X142711253Y-113508974D01*
X142809507Y-113516707D01*
X142809516Y-113516707D01*
X142811964Y-113516900D01*
X142938036Y-113516900D01*
X142940484Y-113516707D01*
X142940493Y-113516707D01*
X143038747Y-113508974D01*
X143126775Y-113502046D01*
X143131582Y-113500892D01*
X143131588Y-113500891D01*
X143286135Y-113463787D01*
X143372351Y-113443088D01*
X143376924Y-113441194D01*
X143601106Y-113348335D01*
X143601110Y-113348333D01*
X143605680Y-113346440D01*
X143821017Y-113214481D01*
X144013061Y-113050461D01*
X144177081Y-112858417D01*
X144309040Y-112643080D01*
X144405688Y-112409751D01*
X144426387Y-112323535D01*
X144463491Y-112168988D01*
X144463492Y-112168982D01*
X144464646Y-112164175D01*
X144484461Y-111912400D01*
X144464646Y-111660625D01*
X144463492Y-111655818D01*
X144463491Y-111655812D01*
X144406843Y-111419861D01*
X144405688Y-111415049D01*
X144309040Y-111181720D01*
X144177081Y-110966383D01*
X144013061Y-110774339D01*
X143821017Y-110610319D01*
X143605680Y-110478360D01*
X143601110Y-110476467D01*
X143601106Y-110476465D01*
X143376924Y-110383606D01*
X143376922Y-110383605D01*
X143372351Y-110381712D01*
X143286135Y-110361013D01*
X143131588Y-110323909D01*
X143131582Y-110323908D01*
X143126775Y-110322754D01*
X143038747Y-110315826D01*
X142940493Y-110308093D01*
X142940484Y-110308093D01*
X142938036Y-110307900D01*
X142811964Y-110307900D01*
X142809516Y-110308093D01*
X142809507Y-110308093D01*
X142711253Y-110315826D01*
X142623225Y-110322754D01*
X142618418Y-110323908D01*
X142618412Y-110323909D01*
X142463865Y-110361013D01*
X142377649Y-110381712D01*
X142373078Y-110383605D01*
X142373076Y-110383606D01*
X142148894Y-110476465D01*
X142148890Y-110476467D01*
X142144320Y-110478360D01*
X141928983Y-110610319D01*
X141736939Y-110774339D01*
X141572919Y-110966383D01*
X141440960Y-111181720D01*
X141344312Y-111415049D01*
X141343157Y-111419861D01*
X141286509Y-111655812D01*
X141286508Y-111655818D01*
X141285354Y-111660625D01*
X141265539Y-111912400D01*
X137905804Y-111912400D01*
X136901709Y-110908305D01*
X136880751Y-110897626D01*
X136863891Y-110887295D01*
X136852892Y-110879304D01*
X136844868Y-110873474D01*
X136822499Y-110866206D01*
X136804234Y-110858640D01*
X136783280Y-110847963D01*
X136773489Y-110846412D01*
X136773488Y-110846412D01*
X136760052Y-110844284D01*
X136740828Y-110839668D01*
X136727893Y-110835465D01*
X136727889Y-110835464D01*
X136718458Y-110832400D01*
X132305994Y-110832400D01*
X132237873Y-110812398D01*
X132216899Y-110795495D01*
X128056505Y-106635101D01*
X128022479Y-106572789D01*
X128019600Y-106546006D01*
X128019600Y-101566980D01*
X128019599Y-101566975D01*
X128019599Y-101524134D01*
X128019599Y-101524133D01*
X128380400Y-101524133D01*
X128380401Y-101675866D01*
X128395166Y-101750101D01*
X128451416Y-101834284D01*
X128535599Y-101890534D01*
X128609833Y-101905300D01*
X128799969Y-101905300D01*
X128990166Y-101905299D01*
X129025918Y-101898188D01*
X129052226Y-101892956D01*
X129052228Y-101892955D01*
X129064401Y-101890534D01*
X129074721Y-101883639D01*
X129074722Y-101883638D01*
X129138268Y-101841177D01*
X129148584Y-101834284D01*
X129204834Y-101750101D01*
X129219600Y-101675867D01*
X129219599Y-101524134D01*
X129204834Y-101449899D01*
X129148584Y-101365716D01*
X129064401Y-101309466D01*
X128990167Y-101294700D01*
X128800031Y-101294700D01*
X128609834Y-101294701D01*
X128574082Y-101301812D01*
X128547774Y-101307044D01*
X128547772Y-101307045D01*
X128535599Y-101309466D01*
X128525279Y-101316361D01*
X128525278Y-101316362D01*
X128485002Y-101343274D01*
X128451416Y-101365716D01*
X128395166Y-101449899D01*
X128380400Y-101524133D01*
X128019599Y-101524133D01*
X128004834Y-101449899D01*
X127997941Y-101439583D01*
X127997939Y-101439578D01*
X127965219Y-101390610D01*
X127957718Y-101377812D01*
X127948200Y-101359132D01*
X127948199Y-101359130D01*
X127943695Y-101350291D01*
X127849709Y-101256305D01*
X127789020Y-101225383D01*
X127740117Y-101200465D01*
X127740114Y-101200464D01*
X127731280Y-101195963D01*
X127600000Y-101175170D01*
X127468720Y-101195963D01*
X127459886Y-101200464D01*
X127459883Y-101200465D01*
X127410980Y-101225383D01*
X127350291Y-101256305D01*
X127256305Y-101350291D01*
X127251801Y-101359130D01*
X127251800Y-101359132D01*
X127242282Y-101377812D01*
X127234781Y-101390610D01*
X127202060Y-101439580D01*
X127202058Y-101439584D01*
X127195166Y-101449899D01*
X127192745Y-101462068D01*
X127192745Y-101462069D01*
X127192744Y-101462074D01*
X127180400Y-101524133D01*
X127180400Y-106838458D01*
X127183464Y-106847889D01*
X127183465Y-106847893D01*
X127187668Y-106860828D01*
X127192284Y-106880052D01*
X127195963Y-106903280D01*
X127200465Y-106912115D01*
X127206640Y-106924234D01*
X127214206Y-106942499D01*
X127221474Y-106964868D01*
X127227304Y-106972892D01*
X127235295Y-106983891D01*
X127245626Y-107000750D01*
X127256305Y-107021709D01*
X131830291Y-111595695D01*
X131849951Y-111605712D01*
X131851250Y-111606374D01*
X131868109Y-111616705D01*
X131887132Y-111630526D01*
X131909501Y-111637794D01*
X131927763Y-111645359D01*
X131948720Y-111656037D01*
X131958511Y-111657588D01*
X131958512Y-111657588D01*
X131971948Y-111659716D01*
X131991172Y-111664332D01*
X132004107Y-111668535D01*
X132004111Y-111668536D01*
X132013542Y-111671600D01*
X136426006Y-111671600D01*
X136494127Y-111691602D01*
X136515101Y-111708505D01*
X139243495Y-114436899D01*
X139277521Y-114499211D01*
X139280400Y-114525994D01*
X139280400Y-116210356D01*
X139265255Y-116260284D01*
X139268710Y-116261715D01*
X139263960Y-116273181D01*
X139257066Y-116283499D01*
X139242300Y-116357733D01*
X139242300Y-117195486D01*
X139222298Y-117263607D01*
X139168642Y-117310100D01*
X139098368Y-117320204D01*
X139042239Y-117297422D01*
X138920572Y-117209026D01*
X138920571Y-117209025D01*
X138915230Y-117205145D01*
X138909202Y-117202461D01*
X138909200Y-117202460D01*
X138755324Y-117133950D01*
X138755323Y-117133950D01*
X138749293Y-117131265D01*
X138660457Y-117112382D01*
X138578078Y-117094872D01*
X138578074Y-117094872D01*
X138571621Y-117093500D01*
X138389979Y-117093500D01*
X138383526Y-117094872D01*
X138383522Y-117094872D01*
X138301143Y-117112382D01*
X138212307Y-117131265D01*
X138206277Y-117133950D01*
X138206276Y-117133950D01*
X138052400Y-117202460D01*
X138052398Y-117202461D01*
X138046370Y-117205145D01*
X138041029Y-117209025D01*
X138041028Y-117209026D01*
X137908655Y-117305201D01*
X137899419Y-117311911D01*
X137777877Y-117446897D01*
X137687057Y-117604203D01*
X137630927Y-117776954D01*
X137611940Y-117957600D01*
X137630927Y-118138246D01*
X137687057Y-118310997D01*
X137777877Y-118468303D01*
X137899419Y-118603289D01*
X137904761Y-118607170D01*
X137904763Y-118607172D01*
X137919360Y-118617777D01*
X138046370Y-118710055D01*
X138052398Y-118712739D01*
X138052400Y-118712740D01*
X138068062Y-118719713D01*
X138212307Y-118783935D01*
X138301143Y-118802817D01*
X138383522Y-118820328D01*
X138383526Y-118820328D01*
X138389979Y-118821700D01*
X138571621Y-118821700D01*
X138578074Y-118820328D01*
X138578078Y-118820328D01*
X138660457Y-118802817D01*
X138749293Y-118783935D01*
X138893538Y-118719713D01*
X138909200Y-118712740D01*
X138909202Y-118712739D01*
X138915230Y-118710055D01*
X139042238Y-118617778D01*
X139109107Y-118593919D01*
X139178259Y-118610000D01*
X139227739Y-118660914D01*
X139242300Y-118719714D01*
X139242301Y-119405287D01*
X139222299Y-119473408D01*
X139168643Y-119519901D01*
X139098370Y-119530005D01*
X139042240Y-119507223D01*
X138920572Y-119418826D01*
X138920571Y-119418825D01*
X138915230Y-119414945D01*
X138909202Y-119412261D01*
X138909200Y-119412260D01*
X138755324Y-119343750D01*
X138755323Y-119343750D01*
X138749293Y-119341065D01*
X138660457Y-119322182D01*
X138578078Y-119304672D01*
X138578074Y-119304672D01*
X138571621Y-119303300D01*
X138389979Y-119303300D01*
X138383526Y-119304672D01*
X138383522Y-119304672D01*
X138301143Y-119322182D01*
X138212307Y-119341065D01*
X138206277Y-119343750D01*
X138206276Y-119343750D01*
X138052400Y-119412260D01*
X138052398Y-119412261D01*
X138046370Y-119414945D01*
X138041029Y-119418825D01*
X138041028Y-119418826D01*
X137908656Y-119515000D01*
X137899419Y-119521711D01*
X137777877Y-119656697D01*
X137687057Y-119814003D01*
X137630927Y-119986754D01*
X137611940Y-120167400D01*
X137630927Y-120348046D01*
X137687057Y-120520797D01*
X137777877Y-120678103D01*
X137899419Y-120813089D01*
X137904761Y-120816970D01*
X137904763Y-120816972D01*
X138041028Y-120915974D01*
X138046370Y-120919855D01*
X138052398Y-120922539D01*
X138052400Y-120922540D01*
X138068062Y-120929513D01*
X138212307Y-120993735D01*
X138301143Y-121012617D01*
X138383522Y-121030128D01*
X138383526Y-121030128D01*
X138389979Y-121031500D01*
X138571621Y-121031500D01*
X138578074Y-121030128D01*
X138578078Y-121030128D01*
X138660457Y-121012617D01*
X138749293Y-120993735D01*
X138893538Y-120929513D01*
X138909200Y-120922540D01*
X138909202Y-120922539D01*
X138915230Y-120919855D01*
X139042240Y-120827577D01*
X139109108Y-120803718D01*
X139178259Y-120819799D01*
X139227740Y-120870713D01*
X139242301Y-120929513D01*
X139242301Y-121539500D01*
X139222299Y-121607621D01*
X139168643Y-121654114D01*
X139116301Y-121665500D01*
X126983700Y-121665500D01*
X126915579Y-121645498D01*
X126869086Y-121591842D01*
X126857700Y-121539500D01*
X126857700Y-120929514D01*
X126877702Y-120861393D01*
X126931358Y-120814900D01*
X127001632Y-120804796D01*
X127057761Y-120827578D01*
X127179428Y-120915974D01*
X127184770Y-120919855D01*
X127190798Y-120922539D01*
X127190800Y-120922540D01*
X127206462Y-120929513D01*
X127350707Y-120993735D01*
X127439543Y-121012617D01*
X127521922Y-121030128D01*
X127521926Y-121030128D01*
X127528379Y-121031500D01*
X127710021Y-121031500D01*
X127716474Y-121030128D01*
X127716478Y-121030128D01*
X127798857Y-121012617D01*
X127887693Y-120993735D01*
X128031938Y-120929513D01*
X128047600Y-120922540D01*
X128047602Y-120922539D01*
X128053630Y-120919855D01*
X128058972Y-120915974D01*
X128195237Y-120816972D01*
X128195239Y-120816970D01*
X128200581Y-120813089D01*
X128322123Y-120678103D01*
X128412943Y-120520797D01*
X128469073Y-120348046D01*
X128488060Y-120167400D01*
X128469073Y-119986754D01*
X128412943Y-119814003D01*
X128322123Y-119656697D01*
X128200581Y-119521711D01*
X128191345Y-119515000D01*
X128058972Y-119418826D01*
X128058971Y-119418825D01*
X128053630Y-119414945D01*
X128047602Y-119412261D01*
X128047600Y-119412260D01*
X127893724Y-119343750D01*
X127893723Y-119343750D01*
X127887693Y-119341065D01*
X127798857Y-119322182D01*
X127716478Y-119304672D01*
X127716474Y-119304672D01*
X127710021Y-119303300D01*
X127528379Y-119303300D01*
X127521926Y-119304672D01*
X127521922Y-119304672D01*
X127439543Y-119322182D01*
X127350707Y-119341065D01*
X127344677Y-119343750D01*
X127344676Y-119343750D01*
X127190800Y-119412260D01*
X127190798Y-119412261D01*
X127184770Y-119414945D01*
X127179429Y-119418825D01*
X127179428Y-119418826D01*
X127057761Y-119507222D01*
X126990893Y-119531081D01*
X126921741Y-119515000D01*
X126872261Y-119464086D01*
X126857700Y-119405286D01*
X126857699Y-118719713D01*
X126877701Y-118651592D01*
X126931357Y-118605099D01*
X127001630Y-118594995D01*
X127057760Y-118617777D01*
X127184770Y-118710055D01*
X127190798Y-118712739D01*
X127190800Y-118712740D01*
X127206462Y-118719713D01*
X127350707Y-118783935D01*
X127439543Y-118802817D01*
X127521922Y-118820328D01*
X127521926Y-118820328D01*
X127528379Y-118821700D01*
X127710021Y-118821700D01*
X127716474Y-118820328D01*
X127716478Y-118820328D01*
X127798857Y-118802817D01*
X127887693Y-118783935D01*
X128031938Y-118719713D01*
X128047600Y-118712740D01*
X128047602Y-118712739D01*
X128053630Y-118710055D01*
X128180640Y-118617777D01*
X128195237Y-118607172D01*
X128195239Y-118607170D01*
X128200581Y-118603289D01*
X128322123Y-118468303D01*
X128412943Y-118310997D01*
X128469073Y-118138246D01*
X128488060Y-117957600D01*
X128469073Y-117776954D01*
X128412943Y-117604203D01*
X128322123Y-117446897D01*
X128200581Y-117311911D01*
X128191346Y-117305201D01*
X128058972Y-117209026D01*
X128058971Y-117209025D01*
X128053630Y-117205145D01*
X128047602Y-117202461D01*
X128047600Y-117202460D01*
X127893724Y-117133950D01*
X127893723Y-117133950D01*
X127887693Y-117131265D01*
X127798857Y-117112382D01*
X127716478Y-117094872D01*
X127716474Y-117094872D01*
X127710021Y-117093500D01*
X127528379Y-117093500D01*
X127521926Y-117094872D01*
X127521922Y-117094872D01*
X127439543Y-117112382D01*
X127350707Y-117131265D01*
X127344677Y-117133950D01*
X127344676Y-117133950D01*
X127190800Y-117202460D01*
X127190798Y-117202461D01*
X127184770Y-117205145D01*
X127179429Y-117209025D01*
X127179428Y-117209026D01*
X127057760Y-117297423D01*
X126990892Y-117321282D01*
X126921741Y-117305201D01*
X126872260Y-117254287D01*
X126857699Y-117195487D01*
X126857699Y-116357734D01*
X126842934Y-116283499D01*
X126836038Y-116273178D01*
X126831289Y-116261714D01*
X126834745Y-116260283D01*
X126819600Y-116210356D01*
X126819600Y-101566980D01*
X126819599Y-101566975D01*
X126819599Y-101524134D01*
X126804834Y-101449899D01*
X126797941Y-101439583D01*
X126797939Y-101439578D01*
X126765219Y-101390610D01*
X126757718Y-101377812D01*
X126748200Y-101359132D01*
X126748199Y-101359130D01*
X126743695Y-101350291D01*
X126649709Y-101256305D01*
X126589020Y-101225383D01*
X126540117Y-101200465D01*
X126540114Y-101200464D01*
X126531280Y-101195963D01*
X126400000Y-101175170D01*
X126268720Y-101195963D01*
X126259886Y-101200464D01*
X126259883Y-101200465D01*
X126210980Y-101225383D01*
X126150291Y-101256305D01*
X126056305Y-101350291D01*
X126051801Y-101359130D01*
X126051800Y-101359132D01*
X126042282Y-101377812D01*
X126034781Y-101390610D01*
X126002060Y-101439580D01*
X126002058Y-101439584D01*
X125995166Y-101449899D01*
X125992745Y-101462068D01*
X125992745Y-101462069D01*
X125992744Y-101462074D01*
X125980400Y-101524133D01*
X125980400Y-116210356D01*
X125965255Y-116260284D01*
X125968710Y-116261715D01*
X125963960Y-116273181D01*
X125957066Y-116283499D01*
X125942300Y-116357733D01*
X125942300Y-117195486D01*
X125922298Y-117263607D01*
X125868642Y-117310100D01*
X125798368Y-117320204D01*
X125742239Y-117297422D01*
X125620572Y-117209026D01*
X125620571Y-117209025D01*
X125615230Y-117205145D01*
X125609202Y-117202461D01*
X125609200Y-117202460D01*
X125455324Y-117133950D01*
X125455323Y-117133950D01*
X125449293Y-117131265D01*
X125360457Y-117112382D01*
X125278078Y-117094872D01*
X125278074Y-117094872D01*
X125271621Y-117093500D01*
X125089979Y-117093500D01*
X125083526Y-117094872D01*
X125083522Y-117094872D01*
X125001143Y-117112382D01*
X124912307Y-117131265D01*
X124906277Y-117133950D01*
X124906276Y-117133950D01*
X124752400Y-117202460D01*
X124752398Y-117202461D01*
X124746370Y-117205145D01*
X124741029Y-117209025D01*
X124741028Y-117209026D01*
X124608655Y-117305201D01*
X124599419Y-117311911D01*
X124477877Y-117446897D01*
X124387057Y-117604203D01*
X124330927Y-117776954D01*
X124311940Y-117957600D01*
X124330927Y-118138246D01*
X124387057Y-118310997D01*
X124477877Y-118468303D01*
X124599419Y-118603289D01*
X124604761Y-118607170D01*
X124604763Y-118607172D01*
X124619360Y-118617777D01*
X124746370Y-118710055D01*
X124752398Y-118712739D01*
X124752400Y-118712740D01*
X124768062Y-118719713D01*
X124912307Y-118783935D01*
X125001143Y-118802817D01*
X125083522Y-118820328D01*
X125083526Y-118820328D01*
X125089979Y-118821700D01*
X125271621Y-118821700D01*
X125278074Y-118820328D01*
X125278078Y-118820328D01*
X125360457Y-118802817D01*
X125449293Y-118783935D01*
X125593538Y-118719713D01*
X125609200Y-118712740D01*
X125609202Y-118712739D01*
X125615230Y-118710055D01*
X125742238Y-118617778D01*
X125809107Y-118593919D01*
X125878259Y-118610000D01*
X125927739Y-118660914D01*
X125942300Y-118719714D01*
X125942301Y-119405287D01*
X125922299Y-119473408D01*
X125868643Y-119519901D01*
X125798370Y-119530005D01*
X125742240Y-119507223D01*
X125620572Y-119418826D01*
X125620571Y-119418825D01*
X125615230Y-119414945D01*
X125609202Y-119412261D01*
X125609200Y-119412260D01*
X125455324Y-119343750D01*
X125455323Y-119343750D01*
X125449293Y-119341065D01*
X125360457Y-119322182D01*
X125278078Y-119304672D01*
X125278074Y-119304672D01*
X125271621Y-119303300D01*
X125089979Y-119303300D01*
X125083526Y-119304672D01*
X125083522Y-119304672D01*
X125001143Y-119322182D01*
X124912307Y-119341065D01*
X124906277Y-119343750D01*
X124906276Y-119343750D01*
X124752400Y-119412260D01*
X124752398Y-119412261D01*
X124746370Y-119414945D01*
X124741029Y-119418825D01*
X124741028Y-119418826D01*
X124608656Y-119515000D01*
X124599419Y-119521711D01*
X124477877Y-119656697D01*
X124387057Y-119814003D01*
X124330927Y-119986754D01*
X124311940Y-120167400D01*
X124330927Y-120348046D01*
X124387057Y-120520797D01*
X124477877Y-120678103D01*
X124599419Y-120813089D01*
X124604761Y-120816970D01*
X124604763Y-120816972D01*
X124741028Y-120915974D01*
X124746370Y-120919855D01*
X124752398Y-120922539D01*
X124752400Y-120922540D01*
X124768062Y-120929513D01*
X124912307Y-120993735D01*
X125001143Y-121012617D01*
X125083522Y-121030128D01*
X125083526Y-121030128D01*
X125089979Y-121031500D01*
X125271621Y-121031500D01*
X125278074Y-121030128D01*
X125278078Y-121030128D01*
X125360457Y-121012617D01*
X125449293Y-120993735D01*
X125593538Y-120929513D01*
X125609200Y-120922540D01*
X125609202Y-120922539D01*
X125615230Y-120919855D01*
X125742240Y-120827577D01*
X125809108Y-120803718D01*
X125878259Y-120819799D01*
X125927740Y-120870713D01*
X125942301Y-120929513D01*
X125942301Y-121539500D01*
X125922299Y-121607621D01*
X125868643Y-121654114D01*
X125816301Y-121665500D01*
X114883700Y-121665500D01*
X114815579Y-121645498D01*
X114769086Y-121591842D01*
X114757700Y-121539500D01*
X114757700Y-120929514D01*
X114777702Y-120861393D01*
X114831358Y-120814900D01*
X114901632Y-120804796D01*
X114957761Y-120827578D01*
X115079428Y-120915974D01*
X115084770Y-120919855D01*
X115090798Y-120922539D01*
X115090800Y-120922540D01*
X115106462Y-120929513D01*
X115250707Y-120993735D01*
X115339543Y-121012617D01*
X115421922Y-121030128D01*
X115421926Y-121030128D01*
X115428379Y-121031500D01*
X115610021Y-121031500D01*
X115616474Y-121030128D01*
X115616478Y-121030128D01*
X115698857Y-121012617D01*
X115787693Y-120993735D01*
X115931938Y-120929513D01*
X115947600Y-120922540D01*
X115947602Y-120922539D01*
X115953630Y-120919855D01*
X115958972Y-120915974D01*
X116095237Y-120816972D01*
X116095239Y-120816970D01*
X116100581Y-120813089D01*
X116222123Y-120678103D01*
X116312943Y-120520797D01*
X116369073Y-120348046D01*
X116388060Y-120167400D01*
X116369073Y-119986754D01*
X116312943Y-119814003D01*
X116222123Y-119656697D01*
X116100581Y-119521711D01*
X116091345Y-119515000D01*
X115958972Y-119418826D01*
X115958971Y-119418825D01*
X115953630Y-119414945D01*
X115947602Y-119412261D01*
X115947600Y-119412260D01*
X115793724Y-119343750D01*
X115793723Y-119343750D01*
X115787693Y-119341065D01*
X115698857Y-119322182D01*
X115616478Y-119304672D01*
X115616474Y-119304672D01*
X115610021Y-119303300D01*
X115428379Y-119303300D01*
X115421926Y-119304672D01*
X115421922Y-119304672D01*
X115339543Y-119322182D01*
X115250707Y-119341065D01*
X115244677Y-119343750D01*
X115244676Y-119343750D01*
X115090800Y-119412260D01*
X115090798Y-119412261D01*
X115084770Y-119414945D01*
X115079429Y-119418825D01*
X115079428Y-119418826D01*
X114957761Y-119507222D01*
X114890893Y-119531081D01*
X114821741Y-119515000D01*
X114772261Y-119464086D01*
X114757700Y-119405286D01*
X114757699Y-118719713D01*
X114777701Y-118651592D01*
X114831357Y-118605099D01*
X114901630Y-118594995D01*
X114957760Y-118617777D01*
X115084770Y-118710055D01*
X115090798Y-118712739D01*
X115090800Y-118712740D01*
X115106462Y-118719713D01*
X115250707Y-118783935D01*
X115339543Y-118802817D01*
X115421922Y-118820328D01*
X115421926Y-118820328D01*
X115428379Y-118821700D01*
X115610021Y-118821700D01*
X115616474Y-118820328D01*
X115616478Y-118820328D01*
X115698857Y-118802817D01*
X115787693Y-118783935D01*
X115931938Y-118719713D01*
X115947600Y-118712740D01*
X115947602Y-118712739D01*
X115953630Y-118710055D01*
X116080640Y-118617777D01*
X116095237Y-118607172D01*
X116095239Y-118607170D01*
X116100581Y-118603289D01*
X116222123Y-118468303D01*
X116312943Y-118310997D01*
X116369073Y-118138246D01*
X116388060Y-117957600D01*
X116369073Y-117776954D01*
X116312943Y-117604203D01*
X116222123Y-117446897D01*
X116100581Y-117311911D01*
X116091346Y-117305201D01*
X115958972Y-117209026D01*
X115958971Y-117209025D01*
X115953630Y-117205145D01*
X115947602Y-117202461D01*
X115947600Y-117202460D01*
X115793724Y-117133950D01*
X115793723Y-117133950D01*
X115787693Y-117131265D01*
X115698857Y-117112382D01*
X115616478Y-117094872D01*
X115616474Y-117094872D01*
X115610021Y-117093500D01*
X115428379Y-117093500D01*
X115421926Y-117094872D01*
X115421922Y-117094872D01*
X115339543Y-117112382D01*
X115250707Y-117131265D01*
X115244677Y-117133950D01*
X115244676Y-117133950D01*
X115090800Y-117202460D01*
X115090798Y-117202461D01*
X115084770Y-117205145D01*
X115079429Y-117209025D01*
X115079428Y-117209026D01*
X114957760Y-117297423D01*
X114890892Y-117321282D01*
X114821741Y-117305201D01*
X114772260Y-117254287D01*
X114757699Y-117195487D01*
X114757699Y-116357734D01*
X114742934Y-116283499D01*
X114736038Y-116273178D01*
X114731289Y-116261714D01*
X114734745Y-116260283D01*
X114719600Y-116210356D01*
X114719600Y-114525994D01*
X114739602Y-114457873D01*
X114756505Y-114436899D01*
X117484899Y-111708505D01*
X117547211Y-111674479D01*
X117573994Y-111671600D01*
X120694458Y-111671600D01*
X120703889Y-111668536D01*
X120703893Y-111668535D01*
X120716828Y-111664332D01*
X120736052Y-111659716D01*
X120749488Y-111657588D01*
X120749489Y-111657588D01*
X120759280Y-111656037D01*
X120780237Y-111645359D01*
X120798499Y-111637794D01*
X120820868Y-111630526D01*
X120839891Y-111616705D01*
X120856750Y-111606374D01*
X120858049Y-111605712D01*
X120877709Y-111595695D01*
X125543695Y-106929709D01*
X125554373Y-106908751D01*
X125564699Y-106891899D01*
X125578526Y-106872869D01*
X125581591Y-106863437D01*
X125585796Y-106850497D01*
X125593360Y-106832236D01*
X125599534Y-106820118D01*
X125599534Y-106820117D01*
X125604037Y-106811280D01*
X125607716Y-106788052D01*
X125612332Y-106768828D01*
X125616535Y-106755893D01*
X125616536Y-106755889D01*
X125619600Y-106746458D01*
X125619600Y-101566980D01*
X125619599Y-101566975D01*
X125619599Y-101524134D01*
X125604834Y-101449899D01*
X125597941Y-101439583D01*
X125597939Y-101439578D01*
X125565219Y-101390610D01*
X125557718Y-101377812D01*
X125548200Y-101359132D01*
X125548199Y-101359130D01*
X125543695Y-101350291D01*
X125449709Y-101256305D01*
X125389020Y-101225383D01*
X125340117Y-101200465D01*
X125340114Y-101200464D01*
X125331280Y-101195963D01*
X125200000Y-101175170D01*
X125068720Y-101195963D01*
X125059886Y-101200464D01*
X125059883Y-101200465D01*
X125010980Y-101225383D01*
X124950291Y-101256305D01*
X124856305Y-101350291D01*
X124851801Y-101359130D01*
X124851800Y-101359132D01*
X124842282Y-101377812D01*
X124834781Y-101390610D01*
X124802060Y-101439580D01*
X124802058Y-101439584D01*
X124795166Y-101449899D01*
X124792745Y-101462068D01*
X124792745Y-101462069D01*
X124792744Y-101462074D01*
X124780400Y-101524133D01*
X124780400Y-106454006D01*
X124760398Y-106522127D01*
X124743495Y-106543101D01*
X120491101Y-110795495D01*
X120428789Y-110829521D01*
X120402006Y-110832400D01*
X117281542Y-110832400D01*
X117272111Y-110835464D01*
X117272107Y-110835465D01*
X117259172Y-110839668D01*
X117239948Y-110844284D01*
X117226512Y-110846412D01*
X117226511Y-110846412D01*
X117216720Y-110847963D01*
X117195766Y-110858640D01*
X117177501Y-110866206D01*
X117155132Y-110873474D01*
X117147108Y-110879304D01*
X117136109Y-110887295D01*
X117119249Y-110897626D01*
X117098291Y-110908305D01*
X113956305Y-114050291D01*
X113946288Y-114069951D01*
X113945626Y-114071250D01*
X113935295Y-114088109D01*
X113921474Y-114107132D01*
X113914206Y-114129501D01*
X113906641Y-114147763D01*
X113895963Y-114168720D01*
X113894412Y-114178511D01*
X113894412Y-114178512D01*
X113892284Y-114191948D01*
X113887668Y-114211172D01*
X113883465Y-114224107D01*
X113883464Y-114224111D01*
X113880400Y-114233542D01*
X113880400Y-116210356D01*
X113865255Y-116260284D01*
X113868710Y-116261715D01*
X113863960Y-116273181D01*
X113857066Y-116283499D01*
X113842300Y-116357733D01*
X113842300Y-117195486D01*
X113822298Y-117263607D01*
X113768642Y-117310100D01*
X113698368Y-117320204D01*
X113642239Y-117297422D01*
X113520572Y-117209026D01*
X113520571Y-117209025D01*
X113515230Y-117205145D01*
X113509202Y-117202461D01*
X113509200Y-117202460D01*
X113355324Y-117133950D01*
X113355323Y-117133950D01*
X113349293Y-117131265D01*
X113260457Y-117112382D01*
X113178078Y-117094872D01*
X113178074Y-117094872D01*
X113171621Y-117093500D01*
X112989979Y-117093500D01*
X112983526Y-117094872D01*
X112983522Y-117094872D01*
X112901143Y-117112382D01*
X112812307Y-117131265D01*
X112806277Y-117133950D01*
X112806276Y-117133950D01*
X112652400Y-117202460D01*
X112652398Y-117202461D01*
X112646370Y-117205145D01*
X112641029Y-117209025D01*
X112641028Y-117209026D01*
X112508655Y-117305201D01*
X112499419Y-117311911D01*
X112377877Y-117446897D01*
X112287057Y-117604203D01*
X112230927Y-117776954D01*
X112211940Y-117957600D01*
X112230927Y-118138246D01*
X112287057Y-118310997D01*
X112377877Y-118468303D01*
X112499419Y-118603289D01*
X112504761Y-118607170D01*
X112504763Y-118607172D01*
X112519360Y-118617777D01*
X112646370Y-118710055D01*
X112652398Y-118712739D01*
X112652400Y-118712740D01*
X112668062Y-118719713D01*
X112812307Y-118783935D01*
X112901143Y-118802817D01*
X112983522Y-118820328D01*
X112983526Y-118820328D01*
X112989979Y-118821700D01*
X113171621Y-118821700D01*
X113178074Y-118820328D01*
X113178078Y-118820328D01*
X113260457Y-118802817D01*
X113349293Y-118783935D01*
X113493538Y-118719713D01*
X113509200Y-118712740D01*
X113509202Y-118712739D01*
X113515230Y-118710055D01*
X113642238Y-118617778D01*
X113709107Y-118593919D01*
X113778259Y-118610000D01*
X113827739Y-118660914D01*
X113842300Y-118719714D01*
X113842301Y-119405287D01*
X113822299Y-119473408D01*
X113768643Y-119519901D01*
X113698370Y-119530005D01*
X113642240Y-119507223D01*
X113520572Y-119418826D01*
X113520571Y-119418825D01*
X113515230Y-119414945D01*
X113509202Y-119412261D01*
X113509200Y-119412260D01*
X113355324Y-119343750D01*
X113355323Y-119343750D01*
X113349293Y-119341065D01*
X113260457Y-119322182D01*
X113178078Y-119304672D01*
X113178074Y-119304672D01*
X113171621Y-119303300D01*
X112989979Y-119303300D01*
X112983526Y-119304672D01*
X112983522Y-119304672D01*
X112901143Y-119322182D01*
X112812307Y-119341065D01*
X112806277Y-119343750D01*
X112806276Y-119343750D01*
X112652400Y-119412260D01*
X112652398Y-119412261D01*
X112646370Y-119414945D01*
X112641029Y-119418825D01*
X112641028Y-119418826D01*
X112508656Y-119515000D01*
X112499419Y-119521711D01*
X112377877Y-119656697D01*
X112287057Y-119814003D01*
X112230927Y-119986754D01*
X112211940Y-120167400D01*
X112230927Y-120348046D01*
X112287057Y-120520797D01*
X112377877Y-120678103D01*
X112499419Y-120813089D01*
X112504761Y-120816970D01*
X112504763Y-120816972D01*
X112641028Y-120915974D01*
X112646370Y-120919855D01*
X112652398Y-120922539D01*
X112652400Y-120922540D01*
X112668062Y-120929513D01*
X112812307Y-120993735D01*
X112901143Y-121012617D01*
X112983522Y-121030128D01*
X112983526Y-121030128D01*
X112989979Y-121031500D01*
X113171621Y-121031500D01*
X113178074Y-121030128D01*
X113178078Y-121030128D01*
X113260457Y-121012617D01*
X113349293Y-120993735D01*
X113493538Y-120929513D01*
X113509200Y-120922540D01*
X113509202Y-120922539D01*
X113515230Y-120919855D01*
X113642240Y-120827577D01*
X113709108Y-120803718D01*
X113778259Y-120819799D01*
X113827740Y-120870713D01*
X113842301Y-120929513D01*
X113842301Y-121539500D01*
X113822299Y-121607621D01*
X113768643Y-121654114D01*
X113716301Y-121665500D01*
X108330500Y-121665500D01*
X108262379Y-121645498D01*
X108215886Y-121591842D01*
X108204500Y-121539500D01*
X108204500Y-111912400D01*
X109515539Y-111912400D01*
X109535354Y-112164175D01*
X109536508Y-112168982D01*
X109536509Y-112168988D01*
X109573613Y-112323535D01*
X109594312Y-112409751D01*
X109690960Y-112643080D01*
X109822919Y-112858417D01*
X109986939Y-113050461D01*
X110178983Y-113214481D01*
X110394320Y-113346440D01*
X110398890Y-113348333D01*
X110398894Y-113348335D01*
X110623076Y-113441194D01*
X110627649Y-113443088D01*
X110713865Y-113463787D01*
X110868412Y-113500891D01*
X110868418Y-113500892D01*
X110873225Y-113502046D01*
X110961253Y-113508974D01*
X111059507Y-113516707D01*
X111059516Y-113516707D01*
X111061964Y-113516900D01*
X111188036Y-113516900D01*
X111190484Y-113516707D01*
X111190493Y-113516707D01*
X111288747Y-113508974D01*
X111376775Y-113502046D01*
X111381582Y-113500892D01*
X111381588Y-113500891D01*
X111536135Y-113463787D01*
X111622351Y-113443088D01*
X111626924Y-113441194D01*
X111851106Y-113348335D01*
X111851110Y-113348333D01*
X111855680Y-113346440D01*
X112071017Y-113214481D01*
X112263061Y-113050461D01*
X112427081Y-112858417D01*
X112559040Y-112643080D01*
X112655688Y-112409751D01*
X112676387Y-112323535D01*
X112713491Y-112168988D01*
X112713492Y-112168982D01*
X112714646Y-112164175D01*
X112734461Y-111912400D01*
X112714646Y-111660625D01*
X112713492Y-111655818D01*
X112713491Y-111655812D01*
X112656843Y-111419861D01*
X112655688Y-111415049D01*
X112559040Y-111181720D01*
X112427081Y-110966383D01*
X112263061Y-110774339D01*
X112071017Y-110610319D01*
X111855680Y-110478360D01*
X111851110Y-110476467D01*
X111851106Y-110476465D01*
X111626924Y-110383606D01*
X111626922Y-110383605D01*
X111622351Y-110381712D01*
X111536135Y-110361013D01*
X111381588Y-110323909D01*
X111381582Y-110323908D01*
X111376775Y-110322754D01*
X111288747Y-110315826D01*
X111190493Y-110308093D01*
X111190484Y-110308093D01*
X111188036Y-110307900D01*
X111061964Y-110307900D01*
X111059516Y-110308093D01*
X111059507Y-110308093D01*
X110961253Y-110315826D01*
X110873225Y-110322754D01*
X110868418Y-110323908D01*
X110868412Y-110323909D01*
X110713865Y-110361013D01*
X110627649Y-110381712D01*
X110623078Y-110383605D01*
X110623076Y-110383606D01*
X110398894Y-110476465D01*
X110398890Y-110476467D01*
X110394320Y-110478360D01*
X110178983Y-110610319D01*
X109986939Y-110774339D01*
X109822919Y-110966383D01*
X109690960Y-111181720D01*
X109594312Y-111415049D01*
X109593157Y-111419861D01*
X109536509Y-111655812D01*
X109536508Y-111655818D01*
X109535354Y-111660625D01*
X109515539Y-111912400D01*
X108204500Y-111912400D01*
X108204500Y-91287600D01*
X109515539Y-91287600D01*
X109535354Y-91539375D01*
X109536508Y-91544182D01*
X109536509Y-91544188D01*
X109573613Y-91698735D01*
X109594312Y-91784951D01*
X109690960Y-92018280D01*
X109822919Y-92233617D01*
X109986939Y-92425661D01*
X110178983Y-92589681D01*
X110394320Y-92721640D01*
X110398890Y-92723533D01*
X110398894Y-92723535D01*
X110623076Y-92816394D01*
X110627649Y-92818288D01*
X110713865Y-92838987D01*
X110868412Y-92876091D01*
X110868418Y-92876092D01*
X110873225Y-92877246D01*
X110961253Y-92884174D01*
X111059507Y-92891907D01*
X111059516Y-92891907D01*
X111061964Y-92892100D01*
X111188036Y-92892100D01*
X111190484Y-92891907D01*
X111190493Y-92891907D01*
X111288747Y-92884174D01*
X111376775Y-92877246D01*
X111381582Y-92876092D01*
X111381588Y-92876091D01*
X111536135Y-92838987D01*
X111622351Y-92818288D01*
X111626924Y-92816394D01*
X111851106Y-92723535D01*
X111851110Y-92723533D01*
X111855680Y-92721640D01*
X112071017Y-92589681D01*
X112263061Y-92425661D01*
X112427081Y-92233617D01*
X112559040Y-92018280D01*
X112655688Y-91784951D01*
X112676387Y-91698735D01*
X112713491Y-91544188D01*
X112713492Y-91544182D01*
X112714646Y-91539375D01*
X112734461Y-91287600D01*
X141265539Y-91287600D01*
X141285354Y-91539375D01*
X141286508Y-91544182D01*
X141286509Y-91544188D01*
X141323613Y-91698735D01*
X141344312Y-91784951D01*
X141440960Y-92018280D01*
X141572919Y-92233617D01*
X141736939Y-92425661D01*
X141928983Y-92589681D01*
X142144320Y-92721640D01*
X142148890Y-92723533D01*
X142148894Y-92723535D01*
X142373076Y-92816394D01*
X142377649Y-92818288D01*
X142463865Y-92838987D01*
X142618412Y-92876091D01*
X142618418Y-92876092D01*
X142623225Y-92877246D01*
X142711253Y-92884174D01*
X142809507Y-92891907D01*
X142809516Y-92891907D01*
X142811964Y-92892100D01*
X142938036Y-92892100D01*
X142940484Y-92891907D01*
X142940493Y-92891907D01*
X143038747Y-92884174D01*
X143126775Y-92877246D01*
X143131582Y-92876092D01*
X143131588Y-92876091D01*
X143286135Y-92838987D01*
X143372351Y-92818288D01*
X143376924Y-92816394D01*
X143601106Y-92723535D01*
X143601110Y-92723533D01*
X143605680Y-92721640D01*
X143821017Y-92589681D01*
X144013061Y-92425661D01*
X144177081Y-92233617D01*
X144309040Y-92018280D01*
X144405688Y-91784951D01*
X144426387Y-91698735D01*
X144463491Y-91544188D01*
X144463492Y-91544182D01*
X144464646Y-91539375D01*
X144484461Y-91287600D01*
X144464646Y-91035825D01*
X144463492Y-91031018D01*
X144463491Y-91031012D01*
X144406843Y-90795061D01*
X144405688Y-90790249D01*
X144309040Y-90556920D01*
X144177081Y-90341583D01*
X144013061Y-90149539D01*
X143821017Y-89985519D01*
X143605680Y-89853560D01*
X143601110Y-89851667D01*
X143601106Y-89851665D01*
X143376924Y-89758806D01*
X143376922Y-89758805D01*
X143372351Y-89756912D01*
X143286135Y-89736213D01*
X143131588Y-89699109D01*
X143131582Y-89699108D01*
X143126775Y-89697954D01*
X143038747Y-89691026D01*
X142940493Y-89683293D01*
X142940484Y-89683293D01*
X142938036Y-89683100D01*
X142811964Y-89683100D01*
X142809516Y-89683293D01*
X142809507Y-89683293D01*
X142711253Y-89691026D01*
X142623225Y-89697954D01*
X142618418Y-89699108D01*
X142618412Y-89699109D01*
X142463865Y-89736213D01*
X142377649Y-89756912D01*
X142373078Y-89758805D01*
X142373076Y-89758806D01*
X142148894Y-89851665D01*
X142148890Y-89851667D01*
X142144320Y-89853560D01*
X141928983Y-89985519D01*
X141736939Y-90149539D01*
X141572919Y-90341583D01*
X141440960Y-90556920D01*
X141344312Y-90790249D01*
X141343157Y-90795061D01*
X141286509Y-91031012D01*
X141286508Y-91031018D01*
X141285354Y-91035825D01*
X141265539Y-91287600D01*
X112734461Y-91287600D01*
X112714646Y-91035825D01*
X112713492Y-91031018D01*
X112713491Y-91031012D01*
X112656843Y-90795061D01*
X112655688Y-90790249D01*
X112559040Y-90556920D01*
X112427081Y-90341583D01*
X112263061Y-90149539D01*
X112071017Y-89985519D01*
X111855680Y-89853560D01*
X111851110Y-89851667D01*
X111851106Y-89851665D01*
X111626924Y-89758806D01*
X111626922Y-89758805D01*
X111622351Y-89756912D01*
X111536135Y-89736213D01*
X111381588Y-89699109D01*
X111381582Y-89699108D01*
X111376775Y-89697954D01*
X111288747Y-89691026D01*
X111190493Y-89683293D01*
X111190484Y-89683293D01*
X111188036Y-89683100D01*
X111061964Y-89683100D01*
X111059516Y-89683293D01*
X111059507Y-89683293D01*
X110961253Y-89691026D01*
X110873225Y-89697954D01*
X110868418Y-89699108D01*
X110868412Y-89699109D01*
X110713865Y-89736213D01*
X110627649Y-89756912D01*
X110623078Y-89758805D01*
X110623076Y-89758806D01*
X110398894Y-89851665D01*
X110398890Y-89851667D01*
X110394320Y-89853560D01*
X110178983Y-89985519D01*
X109986939Y-90149539D01*
X109822919Y-90341583D01*
X109690960Y-90556920D01*
X109594312Y-90790249D01*
X109593157Y-90795061D01*
X109536509Y-91031012D01*
X109536508Y-91031018D01*
X109535354Y-91035825D01*
X109515539Y-91287600D01*
X108204500Y-91287600D01*
X108204500Y-86740500D01*
X108224502Y-86672379D01*
X108278158Y-86625886D01*
X108330500Y-86614500D01*
X145669500Y-86614500D01*
X145737621Y-86634502D01*
G37*
G04 #@! TD.AperFunction*
G04 #@! TD*
M02*
