G04 #@! TF.GenerationSoftware,KiCad,Pcbnew,(6.0.7)*
G04 #@! TF.CreationDate,2022-08-31T16:19:09-05:00*
G04 #@! TF.ProjectId,UTCPW_MountingBoard,55544350-575f-44d6-9f75-6e74696e6742,rev?*
G04 #@! TF.SameCoordinates,Original*
G04 #@! TF.FileFunction,Copper,L1,Top*
G04 #@! TF.FilePolarity,Positive*
%FSLAX46Y46*%
G04 Gerber Fmt 4.6, Leading zero omitted, Abs format (unit mm)*
G04 Created by KiCad (PCBNEW (6.0.7)) date 2022-08-31 16:19:09*
%MOMM*%
%LPD*%
G01*
G04 APERTURE LIST*
G04 #@! TA.AperFunction,ConnectorPad*
%ADD10R,0.330200X0.101600*%
G04 #@! TD*
G04 #@! TA.AperFunction,ComponentPad*
%ADD11C,1.219200*%
G04 #@! TD*
G04 #@! TA.AperFunction,SMDPad,CuDef*
%ADD12R,0.406400X5.537200*%
G04 #@! TD*
G04 #@! TA.AperFunction,SMDPad,CuDef*
%ADD13R,3.609340X5.537200*%
G04 #@! TD*
G04 #@! TA.AperFunction,Conductor*
%ADD14C,0.330200*%
G04 #@! TD*
G04 #@! TA.AperFunction,Conductor*
%ADD15C,0.250000*%
G04 #@! TD*
G04 APERTURE END LIST*
D10*
G04 #@! TO.P,U1,1*
G04 #@! TO.N,/Dev1*
X125200000Y-101600000D03*
G04 #@! TO.P,U1,2*
G04 #@! TO.N,/Dev2*
X126400000Y-101600000D03*
G04 #@! TO.P,U1,3*
G04 #@! TO.N,/Dev3*
X127600000Y-101600000D03*
G04 #@! TO.P,U1,4*
G04 #@! TO.N,/Dev4*
X128800000Y-101600000D03*
G04 #@! TD*
D11*
G04 #@! TO.P,REF\u002A\u002A,*
G04 #@! TO.N,/GND*
X138480800Y-117957600D03*
X140919200Y-117957600D03*
X140919200Y-120167400D03*
X138480800Y-120167400D03*
D12*
G04 #@! TO.P,REF\u002A\u002A,1*
G04 #@! TO.N,/Dev3*
X139700000Y-119151400D03*
D13*
G04 #@! TO.P,REF\u002A\u002A,2*
G04 #@! TO.N,/GND*
X137439400Y-119151400D03*
X141960600Y-119151400D03*
G04 #@! TD*
D11*
G04 #@! TO.P,REF\u002A\u002A,*
G04 #@! TO.N,/GND*
X113080800Y-120167400D03*
X115519200Y-120167400D03*
X113080800Y-117957600D03*
X115519200Y-117957600D03*
D12*
G04 #@! TO.P,REF\u002A\u002A,1*
G04 #@! TO.N,/Dev1*
X114300000Y-119151400D03*
D13*
G04 #@! TO.P,REF\u002A\u002A,2*
G04 #@! TO.N,/GND*
X112039400Y-119151400D03*
X116560600Y-119151400D03*
G04 #@! TD*
D11*
G04 #@! TO.P,REF\u002A\u002A,*
G04 #@! TO.N,/GND*
X125180800Y-120167400D03*
X125180800Y-117957600D03*
X127619200Y-120167400D03*
X127619200Y-117957600D03*
D12*
G04 #@! TO.P,REF\u002A\u002A,1*
G04 #@! TO.N,/Dev2*
X126400000Y-119151400D03*
D13*
G04 #@! TO.P,REF\u002A\u002A,2*
G04 #@! TO.N,/GND*
X128660600Y-119151400D03*
X124139400Y-119151400D03*
G04 #@! TD*
D14*
G04 #@! TO.N,/Dev2*
X126400000Y-101600000D02*
X126400000Y-119151400D01*
G04 #@! TO.N,/Dev3*
X139700000Y-114300000D02*
X136652000Y-111252000D01*
X132080000Y-111252000D02*
X127600000Y-106772000D01*
X127600000Y-106772000D02*
X127600000Y-101600000D01*
X136652000Y-111252000D02*
X132080000Y-111252000D01*
X139700000Y-119151400D02*
X139700000Y-114300000D01*
G04 #@! TO.N,/Dev1*
X125200000Y-101600000D02*
X125200000Y-106680000D01*
X120628000Y-111252000D02*
X125200000Y-106680000D01*
D15*
X125200000Y-101602814D02*
X125200000Y-101600000D01*
X125200000Y-101602814D02*
X125200000Y-101622000D01*
D14*
X114300000Y-119151400D02*
X114300000Y-114300000D01*
X117348000Y-111252000D02*
X120628000Y-111252000D01*
X114300000Y-114300000D02*
X117348000Y-111252000D01*
G04 #@! TD*
G04 #@! TA.AperFunction,Conductor*
G04 #@! TO.N,/GND*
G36*
X145870238Y-86530493D02*
G01*
X145895958Y-86575042D01*
X145897100Y-86588100D01*
X145897100Y-121691900D01*
X145879507Y-121740238D01*
X145834958Y-121765958D01*
X145821900Y-121767100D01*
X140131300Y-121767100D01*
X140082962Y-121749507D01*
X140057242Y-121704958D01*
X140056100Y-121691900D01*
X140056099Y-116371441D01*
X140056099Y-116367744D01*
X140047228Y-116323142D01*
X140043114Y-116316985D01*
X140043112Y-116316980D01*
X140030674Y-116298366D01*
X140018000Y-116256587D01*
X140018000Y-114317170D01*
X140018286Y-114310616D01*
X140021104Y-114278411D01*
X140021104Y-114278409D01*
X140021677Y-114271857D01*
X140019974Y-114265503D01*
X140019974Y-114265499D01*
X140011606Y-114234271D01*
X140010192Y-114227894D01*
X140003432Y-114189560D01*
X140000141Y-114183861D01*
X139997891Y-114177678D01*
X139997901Y-114177674D01*
X139997145Y-114175849D01*
X139997136Y-114175853D01*
X139994354Y-114169887D01*
X139992652Y-114163534D01*
X139970329Y-114131654D01*
X139966811Y-114126130D01*
X139950652Y-114098141D01*
X139950650Y-114098139D01*
X139947360Y-114092440D01*
X139917552Y-114067428D01*
X139912716Y-114062996D01*
X137762120Y-111912400D01*
X141269551Y-111912400D01*
X141289317Y-112163548D01*
X141348127Y-112408511D01*
X141444534Y-112641259D01*
X141576164Y-112856059D01*
X141739776Y-113047624D01*
X141931341Y-113211236D01*
X141933864Y-113212782D01*
X142143616Y-113341319D01*
X142143619Y-113341321D01*
X142146141Y-113342866D01*
X142221250Y-113373977D01*
X142376155Y-113438141D01*
X142376160Y-113438143D01*
X142378889Y-113439273D01*
X142381766Y-113439964D01*
X142381770Y-113439965D01*
X142608568Y-113494414D01*
X142623852Y-113498083D01*
X142626796Y-113498315D01*
X142626798Y-113498315D01*
X142810640Y-113512784D01*
X142810648Y-113512784D01*
X142812118Y-113512900D01*
X142937882Y-113512900D01*
X142939352Y-113512784D01*
X142939360Y-113512784D01*
X143123202Y-113498315D01*
X143123204Y-113498315D01*
X143126148Y-113498083D01*
X143141432Y-113494414D01*
X143368230Y-113439965D01*
X143368234Y-113439964D01*
X143371111Y-113439273D01*
X143373840Y-113438143D01*
X143373845Y-113438141D01*
X143528750Y-113373977D01*
X143603859Y-113342866D01*
X143606381Y-113341321D01*
X143606384Y-113341319D01*
X143816136Y-113212782D01*
X143818659Y-113211236D01*
X144010224Y-113047624D01*
X144173836Y-112856059D01*
X144305466Y-112641259D01*
X144401873Y-112408511D01*
X144460683Y-112163548D01*
X144480449Y-111912400D01*
X144460683Y-111661252D01*
X144457014Y-111645968D01*
X144402565Y-111419170D01*
X144402564Y-111419166D01*
X144401873Y-111416289D01*
X144305466Y-111183541D01*
X144173836Y-110968741D01*
X144010224Y-110777176D01*
X143818659Y-110613564D01*
X143766599Y-110581661D01*
X143606384Y-110483481D01*
X143606381Y-110483479D01*
X143603859Y-110481934D01*
X143528750Y-110450823D01*
X143373845Y-110386659D01*
X143373840Y-110386657D01*
X143371111Y-110385527D01*
X143368234Y-110384836D01*
X143368230Y-110384835D01*
X143129022Y-110327407D01*
X143126148Y-110326717D01*
X143123204Y-110326485D01*
X143123202Y-110326485D01*
X142939360Y-110312016D01*
X142939352Y-110312016D01*
X142937882Y-110311900D01*
X142812118Y-110311900D01*
X142810648Y-110312016D01*
X142810640Y-110312016D01*
X142626798Y-110326485D01*
X142626796Y-110326485D01*
X142623852Y-110326717D01*
X142620978Y-110327407D01*
X142381770Y-110384835D01*
X142381766Y-110384836D01*
X142378889Y-110385527D01*
X142376160Y-110386657D01*
X142376155Y-110386659D01*
X142221250Y-110450823D01*
X142146141Y-110481934D01*
X142143619Y-110483479D01*
X142143616Y-110483481D01*
X141983401Y-110581661D01*
X141931341Y-110613564D01*
X141739776Y-110777176D01*
X141576164Y-110968741D01*
X141444534Y-111183541D01*
X141348127Y-111416289D01*
X141347436Y-111419166D01*
X141347435Y-111419170D01*
X141292986Y-111645968D01*
X141289317Y-111661252D01*
X141269551Y-111912400D01*
X137762120Y-111912400D01*
X136889004Y-111039284D01*
X136884572Y-111034448D01*
X136863792Y-111009683D01*
X136863791Y-111009682D01*
X136859560Y-111004640D01*
X136853861Y-111001350D01*
X136853859Y-111001348D01*
X136825870Y-110985189D01*
X136820346Y-110981671D01*
X136788466Y-110959348D01*
X136782113Y-110957646D01*
X136776147Y-110954864D01*
X136776151Y-110954855D01*
X136774326Y-110954099D01*
X136774322Y-110954109D01*
X136768139Y-110951859D01*
X136762440Y-110948568D01*
X136724106Y-110941808D01*
X136717729Y-110940394D01*
X136686501Y-110932026D01*
X136686497Y-110932026D01*
X136680143Y-110930323D01*
X136673591Y-110930896D01*
X136673589Y-110930896D01*
X136641384Y-110933714D01*
X136634830Y-110934000D01*
X132242868Y-110934000D01*
X132194530Y-110916407D01*
X132189694Y-110911974D01*
X127940026Y-106662306D01*
X127918286Y-106615686D01*
X127918000Y-106609132D01*
X127918000Y-101572177D01*
X127917999Y-101572173D01*
X127917999Y-101534144D01*
X127917999Y-101534143D01*
X128482000Y-101534143D01*
X128482001Y-101665856D01*
X128490872Y-101710458D01*
X128524666Y-101761034D01*
X128530823Y-101765148D01*
X128569083Y-101790713D01*
X128569084Y-101790714D01*
X128575242Y-101794828D01*
X128619843Y-101803700D01*
X128799975Y-101803700D01*
X128980156Y-101803699D01*
X129024758Y-101794828D01*
X129075334Y-101761034D01*
X129109128Y-101710458D01*
X129118000Y-101665857D01*
X129117999Y-101534144D01*
X129109128Y-101489542D01*
X129075334Y-101438966D01*
X129030918Y-101409288D01*
X129030916Y-101409286D01*
X129024758Y-101405172D01*
X128980157Y-101396300D01*
X128800025Y-101396300D01*
X128619844Y-101396301D01*
X128575242Y-101405172D01*
X128524666Y-101438966D01*
X128490872Y-101489542D01*
X128482000Y-101534143D01*
X127917999Y-101534143D01*
X127909128Y-101489542D01*
X127875334Y-101438966D01*
X127875399Y-101438923D01*
X127870544Y-101432596D01*
X127857087Y-101409288D01*
X127847360Y-101392440D01*
X127761453Y-101320355D01*
X127656072Y-101282000D01*
X127543928Y-101282000D01*
X127438547Y-101320355D01*
X127352640Y-101392440D01*
X127342913Y-101409288D01*
X127329456Y-101432596D01*
X127324601Y-101438923D01*
X127324666Y-101438966D01*
X127290872Y-101489542D01*
X127282000Y-101534143D01*
X127282000Y-106754830D01*
X127281714Y-106761384D01*
X127279739Y-106783963D01*
X127278323Y-106800143D01*
X127280026Y-106806497D01*
X127280026Y-106806501D01*
X127288394Y-106837729D01*
X127289808Y-106844106D01*
X127296568Y-106882440D01*
X127299859Y-106888139D01*
X127302109Y-106894322D01*
X127302099Y-106894326D01*
X127302855Y-106896151D01*
X127302864Y-106896147D01*
X127305646Y-106902113D01*
X127307348Y-106908466D01*
X127329671Y-106940346D01*
X127333189Y-106945870D01*
X127349348Y-106973859D01*
X127349350Y-106973861D01*
X127352640Y-106979560D01*
X127357682Y-106983791D01*
X127357683Y-106983792D01*
X127382448Y-107004572D01*
X127387284Y-107009004D01*
X131842996Y-111464716D01*
X131847428Y-111469552D01*
X131872440Y-111499360D01*
X131878139Y-111502650D01*
X131878141Y-111502652D01*
X131906130Y-111518811D01*
X131911654Y-111522329D01*
X131943534Y-111544652D01*
X131949887Y-111546354D01*
X131955853Y-111549136D01*
X131955849Y-111549145D01*
X131957674Y-111549901D01*
X131957678Y-111549891D01*
X131963861Y-111552141D01*
X131969560Y-111555432D01*
X132007894Y-111562192D01*
X132014271Y-111563606D01*
X132045500Y-111571974D01*
X132045502Y-111571974D01*
X132051857Y-111573677D01*
X132058409Y-111573104D01*
X132058411Y-111573104D01*
X132090621Y-111570286D01*
X132097174Y-111570000D01*
X136489132Y-111570000D01*
X136537470Y-111587593D01*
X136542306Y-111592026D01*
X139359974Y-114409694D01*
X139381714Y-114456314D01*
X139382000Y-114462868D01*
X139382000Y-116256587D01*
X139369326Y-116298366D01*
X139356887Y-116316982D01*
X139356885Y-116316986D01*
X139352772Y-116323142D01*
X139351327Y-116330404D01*
X139351327Y-116330405D01*
X139344621Y-116364116D01*
X139343900Y-116367743D01*
X139343900Y-116371439D01*
X139343901Y-121691900D01*
X139326308Y-121740238D01*
X139281759Y-121765958D01*
X139268701Y-121767100D01*
X126831300Y-121767100D01*
X126782962Y-121749507D01*
X126757242Y-121704958D01*
X126756100Y-121691900D01*
X126756099Y-116371441D01*
X126756099Y-116367744D01*
X126747228Y-116323142D01*
X126743114Y-116316985D01*
X126743112Y-116316980D01*
X126730674Y-116298366D01*
X126718000Y-116256587D01*
X126718000Y-101572177D01*
X126717999Y-101572173D01*
X126717999Y-101534144D01*
X126709128Y-101489542D01*
X126675334Y-101438966D01*
X126675399Y-101438923D01*
X126670544Y-101432596D01*
X126657087Y-101409288D01*
X126647360Y-101392440D01*
X126561453Y-101320355D01*
X126456072Y-101282000D01*
X126343928Y-101282000D01*
X126238547Y-101320355D01*
X126152640Y-101392440D01*
X126142913Y-101409288D01*
X126129456Y-101432596D01*
X126124601Y-101438923D01*
X126124666Y-101438966D01*
X126090872Y-101489542D01*
X126082000Y-101534143D01*
X126082000Y-116256587D01*
X126069326Y-116298366D01*
X126056887Y-116316982D01*
X126056885Y-116316986D01*
X126052772Y-116323142D01*
X126051327Y-116330404D01*
X126051327Y-116330405D01*
X126044621Y-116364116D01*
X126043900Y-116367743D01*
X126043900Y-116371439D01*
X126043901Y-121691900D01*
X126026308Y-121740238D01*
X125981759Y-121765958D01*
X125968701Y-121767100D01*
X114731300Y-121767100D01*
X114682962Y-121749507D01*
X114657242Y-121704958D01*
X114656100Y-121691900D01*
X114656099Y-116371441D01*
X114656099Y-116367744D01*
X114647228Y-116323142D01*
X114643114Y-116316985D01*
X114643112Y-116316980D01*
X114630674Y-116298366D01*
X114618000Y-116256587D01*
X114618000Y-114462868D01*
X114635593Y-114414530D01*
X114640026Y-114409694D01*
X117457694Y-111592026D01*
X117504314Y-111570286D01*
X117510868Y-111570000D01*
X120610830Y-111570000D01*
X120617384Y-111570286D01*
X120649589Y-111573104D01*
X120649591Y-111573104D01*
X120656143Y-111573677D01*
X120662497Y-111571974D01*
X120662501Y-111571974D01*
X120693729Y-111563606D01*
X120700106Y-111562192D01*
X120738440Y-111555432D01*
X120744139Y-111552141D01*
X120750322Y-111549891D01*
X120750326Y-111549901D01*
X120752151Y-111549145D01*
X120752147Y-111549136D01*
X120758113Y-111546354D01*
X120764466Y-111544652D01*
X120796346Y-111522329D01*
X120801870Y-111518811D01*
X120829859Y-111502652D01*
X120829861Y-111502650D01*
X120835560Y-111499360D01*
X120860572Y-111469552D01*
X120865004Y-111464716D01*
X125412716Y-106917004D01*
X125417552Y-106912572D01*
X125442321Y-106891789D01*
X125442323Y-106891786D01*
X125447360Y-106887560D01*
X125450647Y-106881866D01*
X125450649Y-106881864D01*
X125466814Y-106853863D01*
X125470340Y-106848329D01*
X125477763Y-106837729D01*
X125492651Y-106816466D01*
X125494353Y-106810114D01*
X125497135Y-106804149D01*
X125497143Y-106804153D01*
X125497900Y-106802324D01*
X125497892Y-106802321D01*
X125500142Y-106796139D01*
X125503432Y-106790440D01*
X125510192Y-106752102D01*
X125511607Y-106745725D01*
X125519974Y-106714500D01*
X125519974Y-106714498D01*
X125521677Y-106708143D01*
X125518286Y-106669384D01*
X125518000Y-106662830D01*
X125518000Y-101572177D01*
X125517999Y-101572173D01*
X125517999Y-101534144D01*
X125509128Y-101489542D01*
X125475334Y-101438966D01*
X125475399Y-101438923D01*
X125470544Y-101432596D01*
X125457087Y-101409288D01*
X125447360Y-101392440D01*
X125361453Y-101320355D01*
X125256072Y-101282000D01*
X125143928Y-101282000D01*
X125038547Y-101320355D01*
X124952640Y-101392440D01*
X124942913Y-101409288D01*
X124929456Y-101432596D01*
X124924601Y-101438923D01*
X124924666Y-101438966D01*
X124890872Y-101489542D01*
X124882000Y-101534143D01*
X124882000Y-106517132D01*
X124864407Y-106565470D01*
X124859974Y-106570306D01*
X120518306Y-110911974D01*
X120471686Y-110933714D01*
X120465132Y-110934000D01*
X117365170Y-110934000D01*
X117358616Y-110933714D01*
X117326411Y-110930896D01*
X117326409Y-110930896D01*
X117319857Y-110930323D01*
X117313503Y-110932026D01*
X117313499Y-110932026D01*
X117282271Y-110940394D01*
X117275894Y-110941808D01*
X117237560Y-110948568D01*
X117231861Y-110951859D01*
X117225678Y-110954109D01*
X117225674Y-110954099D01*
X117223849Y-110954855D01*
X117223853Y-110954864D01*
X117217887Y-110957646D01*
X117211534Y-110959348D01*
X117179654Y-110981671D01*
X117174130Y-110985189D01*
X117146141Y-111001348D01*
X117146139Y-111001350D01*
X117140440Y-111004640D01*
X117136209Y-111009682D01*
X117136208Y-111009683D01*
X117115428Y-111034448D01*
X117110996Y-111039284D01*
X114087284Y-114062996D01*
X114082448Y-114067428D01*
X114052640Y-114092440D01*
X114049350Y-114098139D01*
X114049348Y-114098141D01*
X114033189Y-114126130D01*
X114029671Y-114131654D01*
X114007348Y-114163534D01*
X114005646Y-114169887D01*
X114002864Y-114175853D01*
X114002855Y-114175849D01*
X114002099Y-114177674D01*
X114002109Y-114177678D01*
X113999859Y-114183861D01*
X113996568Y-114189560D01*
X113989808Y-114227894D01*
X113988394Y-114234271D01*
X113980026Y-114265499D01*
X113980026Y-114265503D01*
X113978323Y-114271857D01*
X113978896Y-114278409D01*
X113978896Y-114278411D01*
X113981714Y-114310616D01*
X113982000Y-114317170D01*
X113982000Y-116256587D01*
X113969326Y-116298366D01*
X113956887Y-116316982D01*
X113956885Y-116316986D01*
X113952772Y-116323142D01*
X113951327Y-116330404D01*
X113951327Y-116330405D01*
X113944621Y-116364116D01*
X113943900Y-116367743D01*
X113943900Y-116371439D01*
X113943901Y-121691900D01*
X113926308Y-121740238D01*
X113881759Y-121765958D01*
X113868701Y-121767100D01*
X108178100Y-121767100D01*
X108129762Y-121749507D01*
X108104042Y-121704958D01*
X108102900Y-121691900D01*
X108102900Y-111912400D01*
X109519551Y-111912400D01*
X109539317Y-112163548D01*
X109598127Y-112408511D01*
X109694534Y-112641259D01*
X109826164Y-112856059D01*
X109989776Y-113047624D01*
X110181341Y-113211236D01*
X110183864Y-113212782D01*
X110393616Y-113341319D01*
X110393619Y-113341321D01*
X110396141Y-113342866D01*
X110471250Y-113373977D01*
X110626155Y-113438141D01*
X110626160Y-113438143D01*
X110628889Y-113439273D01*
X110631766Y-113439964D01*
X110631770Y-113439965D01*
X110858568Y-113494414D01*
X110873852Y-113498083D01*
X110876796Y-113498315D01*
X110876798Y-113498315D01*
X111060640Y-113512784D01*
X111060648Y-113512784D01*
X111062118Y-113512900D01*
X111187882Y-113512900D01*
X111189352Y-113512784D01*
X111189360Y-113512784D01*
X111373202Y-113498315D01*
X111373204Y-113498315D01*
X111376148Y-113498083D01*
X111391432Y-113494414D01*
X111618230Y-113439965D01*
X111618234Y-113439964D01*
X111621111Y-113439273D01*
X111623840Y-113438143D01*
X111623845Y-113438141D01*
X111778750Y-113373977D01*
X111853859Y-113342866D01*
X111856381Y-113341321D01*
X111856384Y-113341319D01*
X112066136Y-113212782D01*
X112068659Y-113211236D01*
X112260224Y-113047624D01*
X112423836Y-112856059D01*
X112555466Y-112641259D01*
X112651873Y-112408511D01*
X112710683Y-112163548D01*
X112730449Y-111912400D01*
X112710683Y-111661252D01*
X112707014Y-111645968D01*
X112652565Y-111419170D01*
X112652564Y-111419166D01*
X112651873Y-111416289D01*
X112555466Y-111183541D01*
X112423836Y-110968741D01*
X112260224Y-110777176D01*
X112068659Y-110613564D01*
X112016599Y-110581661D01*
X111856384Y-110483481D01*
X111856381Y-110483479D01*
X111853859Y-110481934D01*
X111778750Y-110450823D01*
X111623845Y-110386659D01*
X111623840Y-110386657D01*
X111621111Y-110385527D01*
X111618234Y-110384836D01*
X111618230Y-110384835D01*
X111379022Y-110327407D01*
X111376148Y-110326717D01*
X111373204Y-110326485D01*
X111373202Y-110326485D01*
X111189360Y-110312016D01*
X111189352Y-110312016D01*
X111187882Y-110311900D01*
X111062118Y-110311900D01*
X111060648Y-110312016D01*
X111060640Y-110312016D01*
X110876798Y-110326485D01*
X110876796Y-110326485D01*
X110873852Y-110326717D01*
X110870978Y-110327407D01*
X110631770Y-110384835D01*
X110631766Y-110384836D01*
X110628889Y-110385527D01*
X110626160Y-110386657D01*
X110626155Y-110386659D01*
X110471250Y-110450823D01*
X110396141Y-110481934D01*
X110393619Y-110483479D01*
X110393616Y-110483481D01*
X110233401Y-110581661D01*
X110181341Y-110613564D01*
X109989776Y-110777176D01*
X109826164Y-110968741D01*
X109694534Y-111183541D01*
X109598127Y-111416289D01*
X109597436Y-111419166D01*
X109597435Y-111419170D01*
X109542986Y-111645968D01*
X109539317Y-111661252D01*
X109519551Y-111912400D01*
X108102900Y-111912400D01*
X108102900Y-91287600D01*
X109519551Y-91287600D01*
X109539317Y-91538748D01*
X109598127Y-91783711D01*
X109694534Y-92016459D01*
X109826164Y-92231259D01*
X109989776Y-92422824D01*
X110181341Y-92586436D01*
X110183864Y-92587982D01*
X110393616Y-92716519D01*
X110393619Y-92716521D01*
X110396141Y-92718066D01*
X110471250Y-92749177D01*
X110626155Y-92813341D01*
X110626160Y-92813343D01*
X110628889Y-92814473D01*
X110631766Y-92815164D01*
X110631770Y-92815165D01*
X110858568Y-92869614D01*
X110873852Y-92873283D01*
X110876796Y-92873515D01*
X110876798Y-92873515D01*
X111060640Y-92887984D01*
X111060648Y-92887984D01*
X111062118Y-92888100D01*
X111187882Y-92888100D01*
X111189352Y-92887984D01*
X111189360Y-92887984D01*
X111373202Y-92873515D01*
X111373204Y-92873515D01*
X111376148Y-92873283D01*
X111391432Y-92869614D01*
X111618230Y-92815165D01*
X111618234Y-92815164D01*
X111621111Y-92814473D01*
X111623840Y-92813343D01*
X111623845Y-92813341D01*
X111778750Y-92749177D01*
X111853859Y-92718066D01*
X111856381Y-92716521D01*
X111856384Y-92716519D01*
X112066136Y-92587982D01*
X112068659Y-92586436D01*
X112260224Y-92422824D01*
X112423836Y-92231259D01*
X112555466Y-92016459D01*
X112651873Y-91783711D01*
X112710683Y-91538748D01*
X112730449Y-91287600D01*
X141269551Y-91287600D01*
X141289317Y-91538748D01*
X141348127Y-91783711D01*
X141444534Y-92016459D01*
X141576164Y-92231259D01*
X141739776Y-92422824D01*
X141931341Y-92586436D01*
X141933864Y-92587982D01*
X142143616Y-92716519D01*
X142143619Y-92716521D01*
X142146141Y-92718066D01*
X142221250Y-92749177D01*
X142376155Y-92813341D01*
X142376160Y-92813343D01*
X142378889Y-92814473D01*
X142381766Y-92815164D01*
X142381770Y-92815165D01*
X142608568Y-92869614D01*
X142623852Y-92873283D01*
X142626796Y-92873515D01*
X142626798Y-92873515D01*
X142810640Y-92887984D01*
X142810648Y-92887984D01*
X142812118Y-92888100D01*
X142937882Y-92888100D01*
X142939352Y-92887984D01*
X142939360Y-92887984D01*
X143123202Y-92873515D01*
X143123204Y-92873515D01*
X143126148Y-92873283D01*
X143141432Y-92869614D01*
X143368230Y-92815165D01*
X143368234Y-92815164D01*
X143371111Y-92814473D01*
X143373840Y-92813343D01*
X143373845Y-92813341D01*
X143528750Y-92749177D01*
X143603859Y-92718066D01*
X143606381Y-92716521D01*
X143606384Y-92716519D01*
X143816136Y-92587982D01*
X143818659Y-92586436D01*
X144010224Y-92422824D01*
X144173836Y-92231259D01*
X144305466Y-92016459D01*
X144401873Y-91783711D01*
X144460683Y-91538748D01*
X144480449Y-91287600D01*
X144460683Y-91036452D01*
X144401873Y-90791489D01*
X144305466Y-90558741D01*
X144173836Y-90343941D01*
X144010224Y-90152376D01*
X143818659Y-89988764D01*
X143766599Y-89956861D01*
X143606384Y-89858681D01*
X143606381Y-89858679D01*
X143603859Y-89857134D01*
X143528750Y-89826023D01*
X143373845Y-89761859D01*
X143373840Y-89761857D01*
X143371111Y-89760727D01*
X143368234Y-89760036D01*
X143368230Y-89760035D01*
X143129022Y-89702607D01*
X143126148Y-89701917D01*
X143123204Y-89701685D01*
X143123202Y-89701685D01*
X142939360Y-89687216D01*
X142939352Y-89687216D01*
X142937882Y-89687100D01*
X142812118Y-89687100D01*
X142810648Y-89687216D01*
X142810640Y-89687216D01*
X142626798Y-89701685D01*
X142626796Y-89701685D01*
X142623852Y-89701917D01*
X142620978Y-89702607D01*
X142381770Y-89760035D01*
X142381766Y-89760036D01*
X142378889Y-89760727D01*
X142376160Y-89761857D01*
X142376155Y-89761859D01*
X142221250Y-89826023D01*
X142146141Y-89857134D01*
X142143619Y-89858679D01*
X142143616Y-89858681D01*
X141983401Y-89956861D01*
X141931341Y-89988764D01*
X141739776Y-90152376D01*
X141576164Y-90343941D01*
X141444534Y-90558741D01*
X141348127Y-90791489D01*
X141289317Y-91036452D01*
X141269551Y-91287600D01*
X112730449Y-91287600D01*
X112710683Y-91036452D01*
X112651873Y-90791489D01*
X112555466Y-90558741D01*
X112423836Y-90343941D01*
X112260224Y-90152376D01*
X112068659Y-89988764D01*
X112016599Y-89956861D01*
X111856384Y-89858681D01*
X111856381Y-89858679D01*
X111853859Y-89857134D01*
X111778750Y-89826023D01*
X111623845Y-89761859D01*
X111623840Y-89761857D01*
X111621111Y-89760727D01*
X111618234Y-89760036D01*
X111618230Y-89760035D01*
X111379022Y-89702607D01*
X111376148Y-89701917D01*
X111373204Y-89701685D01*
X111373202Y-89701685D01*
X111189360Y-89687216D01*
X111189352Y-89687216D01*
X111187882Y-89687100D01*
X111062118Y-89687100D01*
X111060648Y-89687216D01*
X111060640Y-89687216D01*
X110876798Y-89701685D01*
X110876796Y-89701685D01*
X110873852Y-89701917D01*
X110870978Y-89702607D01*
X110631770Y-89760035D01*
X110631766Y-89760036D01*
X110628889Y-89760727D01*
X110626160Y-89761857D01*
X110626155Y-89761859D01*
X110471250Y-89826023D01*
X110396141Y-89857134D01*
X110393619Y-89858679D01*
X110393616Y-89858681D01*
X110233401Y-89956861D01*
X110181341Y-89988764D01*
X109989776Y-90152376D01*
X109826164Y-90343941D01*
X109694534Y-90558741D01*
X109598127Y-90791489D01*
X109539317Y-91036452D01*
X109519551Y-91287600D01*
X108102900Y-91287600D01*
X108102900Y-86588100D01*
X108120493Y-86539762D01*
X108165042Y-86514042D01*
X108178100Y-86512900D01*
X145821900Y-86512900D01*
X145870238Y-86530493D01*
G37*
G04 #@! TD.AperFunction*
G04 #@! TD*
M02*
