G04 #@! TF.GenerationSoftware,KiCad,Pcbnew,(6.0.7)*
G04 #@! TF.CreationDate,2022-08-31T16:19:09-05:00*
G04 #@! TF.ProjectId,UTCPW_MountingBoard,55544350-575f-44d6-9f75-6e74696e6742,rev?*
G04 #@! TF.SameCoordinates,Original*
G04 #@! TF.FileFunction,Other,ECO1*
%FSLAX46Y46*%
G04 Gerber Fmt 4.6, Leading zero omitted, Abs format (unit mm)*
G04 Created by KiCad (PCBNEW (6.0.7)) date 2022-08-31 16:19:09*
%MOMM*%
%LPD*%
G01*
G04 APERTURE LIST*
%ADD10C,0.150000*%
%ADD11C,0.120000*%
G04 APERTURE END LIST*
D10*
G04 #@! TO.C,U1*
X119238095Y-98052380D02*
X119238095Y-97052380D01*
X119571428Y-97766666D01*
X119904761Y-97052380D01*
X119904761Y-98052380D01*
X120380952Y-98052380D02*
X120380952Y-97385714D01*
X120380952Y-97052380D02*
X120333333Y-97100000D01*
X120380952Y-97147619D01*
X120428571Y-97100000D01*
X120380952Y-97052380D01*
X120380952Y-97147619D01*
X121000000Y-98052380D02*
X120904761Y-98004761D01*
X120857142Y-97909523D01*
X120857142Y-97052380D01*
X121523809Y-98052380D02*
X121428571Y-98004761D01*
X121380952Y-97909523D01*
X121380952Y-97052380D01*
X123095238Y-98052380D02*
X123095238Y-97052380D01*
X123095238Y-98004761D02*
X123000000Y-98052380D01*
X122809523Y-98052380D01*
X122714285Y-98004761D01*
X122666666Y-97957142D01*
X122619047Y-97861904D01*
X122619047Y-97576190D01*
X122666666Y-97480952D01*
X122714285Y-97433333D01*
X122809523Y-97385714D01*
X123000000Y-97385714D01*
X123095238Y-97433333D01*
X123714285Y-98052380D02*
X123619047Y-98004761D01*
X123571428Y-97957142D01*
X123523809Y-97861904D01*
X123523809Y-97576190D01*
X123571428Y-97480952D01*
X123619047Y-97433333D01*
X123714285Y-97385714D01*
X123857142Y-97385714D01*
X123952380Y-97433333D01*
X124000000Y-97480952D01*
X124047619Y-97576190D01*
X124047619Y-97861904D01*
X124000000Y-97957142D01*
X123952380Y-98004761D01*
X123857142Y-98052380D01*
X123714285Y-98052380D01*
X124380952Y-97385714D02*
X124571428Y-98052380D01*
X124761904Y-97576190D01*
X124952380Y-98052380D01*
X125142857Y-97385714D01*
X125523809Y-97385714D02*
X125523809Y-98052380D01*
X125523809Y-97480952D02*
X125571428Y-97433333D01*
X125666666Y-97385714D01*
X125809523Y-97385714D01*
X125904761Y-97433333D01*
X125952380Y-97528571D01*
X125952380Y-98052380D01*
X127047619Y-97385714D02*
X127428571Y-97385714D01*
X127190476Y-97052380D02*
X127190476Y-97909523D01*
X127238095Y-98004761D01*
X127333333Y-98052380D01*
X127428571Y-98052380D01*
X127904761Y-98052380D02*
X127809523Y-98004761D01*
X127761904Y-97957142D01*
X127714285Y-97861904D01*
X127714285Y-97576190D01*
X127761904Y-97480952D01*
X127809523Y-97433333D01*
X127904761Y-97385714D01*
X128047619Y-97385714D01*
X128142857Y-97433333D01*
X128190476Y-97480952D01*
X128238095Y-97576190D01*
X128238095Y-97861904D01*
X128190476Y-97957142D01*
X128142857Y-98004761D01*
X128047619Y-98052380D01*
X127904761Y-98052380D01*
X129619047Y-97052380D02*
X129714285Y-97052380D01*
X129809523Y-97100000D01*
X129857142Y-97147619D01*
X129904761Y-97242857D01*
X129952380Y-97433333D01*
X129952380Y-97671428D01*
X129904761Y-97861904D01*
X129857142Y-97957142D01*
X129809523Y-98004761D01*
X129714285Y-98052380D01*
X129619047Y-98052380D01*
X129523809Y-98004761D01*
X129476190Y-97957142D01*
X129428571Y-97861904D01*
X129380952Y-97671428D01*
X129380952Y-97433333D01*
X129428571Y-97242857D01*
X129476190Y-97147619D01*
X129523809Y-97100000D01*
X129619047Y-97052380D01*
X130380952Y-97957142D02*
X130428571Y-98004761D01*
X130380952Y-98052380D01*
X130333333Y-98004761D01*
X130380952Y-97957142D01*
X130380952Y-98052380D01*
X131333333Y-97052380D02*
X130857142Y-97052380D01*
X130809523Y-97528571D01*
X130857142Y-97480952D01*
X130952380Y-97433333D01*
X131190476Y-97433333D01*
X131285714Y-97480952D01*
X131333333Y-97528571D01*
X131380952Y-97623809D01*
X131380952Y-97861904D01*
X131333333Y-97957142D01*
X131285714Y-98004761D01*
X131190476Y-98052380D01*
X130952380Y-98052380D01*
X130857142Y-98004761D01*
X130809523Y-97957142D01*
X132571428Y-98052380D02*
X132571428Y-97385714D01*
X132571428Y-97480952D02*
X132619047Y-97433333D01*
X132714285Y-97385714D01*
X132857142Y-97385714D01*
X132952380Y-97433333D01*
X133000000Y-97528571D01*
X133000000Y-98052380D01*
X133000000Y-97528571D02*
X133047619Y-97433333D01*
X133142857Y-97385714D01*
X133285714Y-97385714D01*
X133380952Y-97433333D01*
X133428571Y-97528571D01*
X133428571Y-98052380D01*
X133904761Y-98052380D02*
X133904761Y-97385714D01*
X133904761Y-97480952D02*
X133952380Y-97433333D01*
X134047619Y-97385714D01*
X134190476Y-97385714D01*
X134285714Y-97433333D01*
X134333333Y-97528571D01*
X134333333Y-98052380D01*
X134333333Y-97528571D02*
X134380952Y-97433333D01*
X134476190Y-97385714D01*
X134619047Y-97385714D01*
X134714285Y-97433333D01*
X134761904Y-97528571D01*
X134761904Y-98052380D01*
D11*
X131064000Y-102108000D02*
X131064000Y-99060000D01*
X122936000Y-99060000D02*
X122936000Y-102108000D01*
X131064000Y-99060000D02*
X122936000Y-99060000D01*
X122936000Y-102108000D02*
X131064000Y-102108000D01*
G04 #@! TD*
M02*
