G04 #@! TF.GenerationSoftware,KiCad,Pcbnew,(5.1.12)-1*
G04 #@! TF.CreationDate,2021-12-21T12:41:33-06:00*
G04 #@! TF.ProjectId,UTCPW_MountingBoard,55544350-575f-44d6-9f75-6e74696e6742,rev?*
G04 #@! TF.SameCoordinates,Original*
G04 #@! TF.FileFunction,Copper,L1,Top*
G04 #@! TF.FilePolarity,Positive*
%FSLAX46Y46*%
G04 Gerber Fmt 4.6, Leading zero omitted, Abs format (unit mm)*
G04 Created by KiCad (PCBNEW (5.1.12)-1) date 2021-12-21 12:41:33*
%MOMM*%
%LPD*%
G01*
G04 APERTURE LIST*
G04 #@! TA.AperFunction,SMDPad,CuDef*
%ADD10R,10.160000X1.200000*%
G04 #@! TD*
G04 #@! TA.AperFunction,SMDPad,CuDef*
%ADD11R,1.100000X1.500000*%
G04 #@! TD*
G04 #@! TA.AperFunction,SMDPad,CuDef*
%ADD12R,1.500000X1.100000*%
G04 #@! TD*
G04 #@! TA.AperFunction,SMDPad,CuDef*
%ADD13R,10.000000X4.000000*%
G04 #@! TD*
G04 #@! TA.AperFunction,SMDPad,CuDef*
%ADD14R,5.080000X1.500000*%
G04 #@! TD*
G04 #@! TA.AperFunction,SMDPad,CuDef*
%ADD15R,1.500000X5.080000*%
G04 #@! TD*
G04 #@! TA.AperFunction,Conductor*
%ADD16C,1.500000*%
G04 #@! TD*
G04 #@! TA.AperFunction,Conductor*
%ADD17C,0.050800*%
G04 #@! TD*
G04 #@! TA.AperFunction,Conductor*
%ADD18C,0.100000*%
G04 #@! TD*
G04 APERTURE END LIST*
D10*
G04 #@! TO.P,U1,6*
G04 #@! TO.N,/GND*
X127000000Y-98552000D03*
D11*
G04 #@! TO.P,U1,5*
G04 #@! TO.N,/Dev5*
X132842000Y-101600000D03*
G04 #@! TO.P,U1,1*
G04 #@! TO.N,/Dev1*
X121158000Y-101600000D03*
D12*
G04 #@! TO.P,U1,4*
G04 #@! TO.N,/Dev4*
X130810000Y-104444800D03*
G04 #@! TO.P,U1,3*
G04 #@! TO.N,/Dev3*
X127000000Y-104444800D03*
G04 #@! TO.P,U1,2*
G04 #@! TO.N,/Dev2*
X123190000Y-104444800D03*
D13*
G04 #@! TO.P,U1,*
G04 #@! TO.N,*
X127000000Y-101600000D03*
G04 #@! TD*
D14*
G04 #@! TO.P,REF\u002A\u002A,2*
G04 #@! TO.N,/GND*
X143510000Y-105850000D03*
X143510000Y-97350000D03*
G04 #@! TO.P,REF\u002A\u002A,1*
G04 #@! TO.N,/Dev5*
X143510000Y-101600000D03*
G04 #@! TD*
D15*
G04 #@! TO.P,REF\u002A\u002A,2*
G04 #@! TO.N,/GND*
X135450000Y-119380000D03*
X143950000Y-119380000D03*
G04 #@! TO.P,REF\u002A\u002A,1*
G04 #@! TO.N,/Dev4*
X139700000Y-119380000D03*
G04 #@! TD*
G04 #@! TO.P,REF\u002A\u002A,2*
G04 #@! TO.N,/GND*
X122750000Y-119380000D03*
X131250000Y-119380000D03*
G04 #@! TO.P,REF\u002A\u002A,1*
G04 #@! TO.N,/Dev3*
X127000000Y-119380000D03*
G04 #@! TD*
G04 #@! TO.P,REF\u002A\u002A,1*
G04 #@! TO.N,/Dev2*
X114300000Y-119380000D03*
G04 #@! TO.P,REF\u002A\u002A,2*
G04 #@! TO.N,/GND*
X118550000Y-119380000D03*
X110050000Y-119380000D03*
G04 #@! TD*
D16*
G04 #@! TO.N,/Dev2*
X123190000Y-104902000D02*
X123190000Y-106680000D01*
X123190000Y-106680000D02*
X114300000Y-115570000D01*
X114300000Y-115570000D02*
X114300000Y-119380000D01*
G04 #@! TO.N,/Dev3*
X127000000Y-104902000D02*
X127000000Y-119736000D01*
G04 #@! TO.N,/Dev4*
X130810000Y-104902000D02*
X130810000Y-106680000D01*
X130810000Y-106680000D02*
X139700000Y-115570000D01*
X139700000Y-115570000D02*
X139700000Y-119380000D01*
G04 #@! TO.N,/Dev5*
X143914000Y-101600000D02*
X133350000Y-101600000D01*
G04 #@! TD*
D17*
G04 #@! TO.N,/GND*
X140944600Y-105098750D02*
X140944477Y-105100000D01*
X140944600Y-105615050D01*
X140950950Y-105621400D01*
X143281400Y-105621400D01*
X143281400Y-105601400D01*
X143738600Y-105601400D01*
X143738600Y-105621400D01*
X143758600Y-105621400D01*
X143758600Y-106078600D01*
X143738600Y-106078600D01*
X143738600Y-106619050D01*
X143744950Y-106625400D01*
X145770600Y-106625508D01*
X145770600Y-121640600D01*
X144725508Y-121640600D01*
X144725400Y-119614950D01*
X144719050Y-119608600D01*
X144178600Y-119608600D01*
X144178600Y-119628600D01*
X143721400Y-119628600D01*
X143721400Y-119608600D01*
X143701400Y-119608600D01*
X143701400Y-119151400D01*
X143721400Y-119151400D01*
X143721400Y-116820950D01*
X144178600Y-116820950D01*
X144178600Y-119151400D01*
X144719050Y-119151400D01*
X144725400Y-119145050D01*
X144725523Y-116840000D01*
X144725033Y-116835021D01*
X144723580Y-116830233D01*
X144721222Y-116825820D01*
X144718047Y-116821953D01*
X144714180Y-116818778D01*
X144709767Y-116816420D01*
X144704979Y-116814967D01*
X144700000Y-116814477D01*
X144184950Y-116814600D01*
X144178600Y-116820950D01*
X143721400Y-116820950D01*
X143715050Y-116814600D01*
X143200000Y-116814477D01*
X143198750Y-116814600D01*
X140602400Y-116814600D01*
X140602400Y-115614319D01*
X140606765Y-115570000D01*
X140602400Y-115525681D01*
X140602400Y-115525671D01*
X140589343Y-115393099D01*
X140537743Y-115222996D01*
X140453949Y-115066229D01*
X140453948Y-115066227D01*
X140369438Y-114963252D01*
X140369436Y-114963250D01*
X140341180Y-114928820D01*
X140306751Y-114900565D01*
X137145990Y-111739804D01*
X141122600Y-111739804D01*
X141122600Y-112084996D01*
X141189944Y-112423556D01*
X141322043Y-112742473D01*
X141513822Y-113029490D01*
X141757910Y-113273578D01*
X142044927Y-113465357D01*
X142363844Y-113597456D01*
X142702404Y-113664800D01*
X143047596Y-113664800D01*
X143386156Y-113597456D01*
X143705073Y-113465357D01*
X143992090Y-113273578D01*
X144236178Y-113029490D01*
X144427957Y-112742473D01*
X144560056Y-112423556D01*
X144627400Y-112084996D01*
X144627400Y-111739804D01*
X144560056Y-111401244D01*
X144427957Y-111082327D01*
X144236178Y-110795310D01*
X143992090Y-110551222D01*
X143705073Y-110359443D01*
X143386156Y-110227344D01*
X143047596Y-110160000D01*
X142702404Y-110160000D01*
X142363844Y-110227344D01*
X142044927Y-110359443D01*
X141757910Y-110551222D01*
X141513822Y-110795310D01*
X141322043Y-111082327D01*
X141189944Y-111401244D01*
X141122600Y-111739804D01*
X137145990Y-111739804D01*
X132006186Y-106600000D01*
X140944477Y-106600000D01*
X140944967Y-106604979D01*
X140946420Y-106609767D01*
X140948778Y-106614180D01*
X140951953Y-106618047D01*
X140955820Y-106621222D01*
X140960233Y-106623580D01*
X140965021Y-106625033D01*
X140970000Y-106625523D01*
X143275050Y-106625400D01*
X143281400Y-106619050D01*
X143281400Y-106078600D01*
X140950950Y-106078600D01*
X140944600Y-106084950D01*
X140944477Y-106600000D01*
X132006186Y-106600000D01*
X131712400Y-106306215D01*
X131712400Y-105002284D01*
X131713137Y-104994800D01*
X131713137Y-103924100D01*
X132295900Y-103924100D01*
X132300855Y-103923612D01*
X132305620Y-103922167D01*
X132310011Y-103919819D01*
X132313861Y-103916661D01*
X132317019Y-103912811D01*
X132319367Y-103908420D01*
X132320812Y-103903655D01*
X132321300Y-103898700D01*
X132321300Y-102503137D01*
X133392000Y-102503137D01*
X133399484Y-102502400D01*
X140944600Y-102502400D01*
X140944600Y-105098750D01*
G04 #@! TA.AperFunction,Conductor*
D18*
G36*
X140944600Y-105098750D02*
G01*
X140944477Y-105100000D01*
X140944600Y-105615050D01*
X140950950Y-105621400D01*
X143281400Y-105621400D01*
X143281400Y-105601400D01*
X143738600Y-105601400D01*
X143738600Y-105621400D01*
X143758600Y-105621400D01*
X143758600Y-106078600D01*
X143738600Y-106078600D01*
X143738600Y-106619050D01*
X143744950Y-106625400D01*
X145770600Y-106625508D01*
X145770600Y-121640600D01*
X144725508Y-121640600D01*
X144725400Y-119614950D01*
X144719050Y-119608600D01*
X144178600Y-119608600D01*
X144178600Y-119628600D01*
X143721400Y-119628600D01*
X143721400Y-119608600D01*
X143701400Y-119608600D01*
X143701400Y-119151400D01*
X143721400Y-119151400D01*
X143721400Y-116820950D01*
X144178600Y-116820950D01*
X144178600Y-119151400D01*
X144719050Y-119151400D01*
X144725400Y-119145050D01*
X144725523Y-116840000D01*
X144725033Y-116835021D01*
X144723580Y-116830233D01*
X144721222Y-116825820D01*
X144718047Y-116821953D01*
X144714180Y-116818778D01*
X144709767Y-116816420D01*
X144704979Y-116814967D01*
X144700000Y-116814477D01*
X144184950Y-116814600D01*
X144178600Y-116820950D01*
X143721400Y-116820950D01*
X143715050Y-116814600D01*
X143200000Y-116814477D01*
X143198750Y-116814600D01*
X140602400Y-116814600D01*
X140602400Y-115614319D01*
X140606765Y-115570000D01*
X140602400Y-115525681D01*
X140602400Y-115525671D01*
X140589343Y-115393099D01*
X140537743Y-115222996D01*
X140453949Y-115066229D01*
X140453948Y-115066227D01*
X140369438Y-114963252D01*
X140369436Y-114963250D01*
X140341180Y-114928820D01*
X140306751Y-114900565D01*
X137145990Y-111739804D01*
X141122600Y-111739804D01*
X141122600Y-112084996D01*
X141189944Y-112423556D01*
X141322043Y-112742473D01*
X141513822Y-113029490D01*
X141757910Y-113273578D01*
X142044927Y-113465357D01*
X142363844Y-113597456D01*
X142702404Y-113664800D01*
X143047596Y-113664800D01*
X143386156Y-113597456D01*
X143705073Y-113465357D01*
X143992090Y-113273578D01*
X144236178Y-113029490D01*
X144427957Y-112742473D01*
X144560056Y-112423556D01*
X144627400Y-112084996D01*
X144627400Y-111739804D01*
X144560056Y-111401244D01*
X144427957Y-111082327D01*
X144236178Y-110795310D01*
X143992090Y-110551222D01*
X143705073Y-110359443D01*
X143386156Y-110227344D01*
X143047596Y-110160000D01*
X142702404Y-110160000D01*
X142363844Y-110227344D01*
X142044927Y-110359443D01*
X141757910Y-110551222D01*
X141513822Y-110795310D01*
X141322043Y-111082327D01*
X141189944Y-111401244D01*
X141122600Y-111739804D01*
X137145990Y-111739804D01*
X132006186Y-106600000D01*
X140944477Y-106600000D01*
X140944967Y-106604979D01*
X140946420Y-106609767D01*
X140948778Y-106614180D01*
X140951953Y-106618047D01*
X140955820Y-106621222D01*
X140960233Y-106623580D01*
X140965021Y-106625033D01*
X140970000Y-106625523D01*
X143275050Y-106625400D01*
X143281400Y-106619050D01*
X143281400Y-106078600D01*
X140950950Y-106078600D01*
X140944600Y-106084950D01*
X140944477Y-106600000D01*
X132006186Y-106600000D01*
X131712400Y-106306215D01*
X131712400Y-105002284D01*
X131713137Y-104994800D01*
X131713137Y-103924100D01*
X132295900Y-103924100D01*
X132300855Y-103923612D01*
X132305620Y-103922167D01*
X132310011Y-103919819D01*
X132313861Y-103916661D01*
X132317019Y-103912811D01*
X132319367Y-103908420D01*
X132320812Y-103903655D01*
X132321300Y-103898700D01*
X132321300Y-102503137D01*
X133392000Y-102503137D01*
X133399484Y-102502400D01*
X140944600Y-102502400D01*
X140944600Y-105098750D01*
G37*
G04 #@! TD.AperFunction*
G04 #@! TD*
D17*
G04 #@! TO.N,/GND*
X129906863Y-104994800D02*
X129907600Y-105002285D01*
X129907601Y-106635671D01*
X129903235Y-106680000D01*
X129920658Y-106856901D01*
X129972258Y-107027004D01*
X130056052Y-107183772D01*
X130140562Y-107286747D01*
X130140563Y-107286748D01*
X130168821Y-107321180D01*
X130203251Y-107349436D01*
X138797600Y-115943786D01*
X138797600Y-116814600D01*
X136201250Y-116814600D01*
X136200000Y-116814477D01*
X135684950Y-116814600D01*
X135678600Y-116820950D01*
X135678600Y-119151400D01*
X135698600Y-119151400D01*
X135698600Y-119608600D01*
X135678600Y-119608600D01*
X135678600Y-119628600D01*
X135221400Y-119628600D01*
X135221400Y-119608600D01*
X134680950Y-119608600D01*
X134674600Y-119614950D01*
X134674492Y-121640600D01*
X132025508Y-121640600D01*
X132025400Y-119614950D01*
X132019050Y-119608600D01*
X131478600Y-119608600D01*
X131478600Y-119628600D01*
X131021400Y-119628600D01*
X131021400Y-119608600D01*
X131001400Y-119608600D01*
X131001400Y-119151400D01*
X131021400Y-119151400D01*
X131021400Y-116820950D01*
X131478600Y-116820950D01*
X131478600Y-119151400D01*
X132019050Y-119151400D01*
X132025400Y-119145050D01*
X132025523Y-116840000D01*
X134674477Y-116840000D01*
X134674600Y-119145050D01*
X134680950Y-119151400D01*
X135221400Y-119151400D01*
X135221400Y-116820950D01*
X135215050Y-116814600D01*
X134700000Y-116814477D01*
X134695021Y-116814967D01*
X134690233Y-116816420D01*
X134685820Y-116818778D01*
X134681953Y-116821953D01*
X134678778Y-116825820D01*
X134676420Y-116830233D01*
X134674967Y-116835021D01*
X134674477Y-116840000D01*
X132025523Y-116840000D01*
X132025033Y-116835021D01*
X132023580Y-116830233D01*
X132021222Y-116825820D01*
X132018047Y-116821953D01*
X132014180Y-116818778D01*
X132009767Y-116816420D01*
X132004979Y-116814967D01*
X132000000Y-116814477D01*
X131484950Y-116814600D01*
X131478600Y-116820950D01*
X131021400Y-116820950D01*
X131015050Y-116814600D01*
X130500000Y-116814477D01*
X130498750Y-116814600D01*
X127902400Y-116814600D01*
X127902400Y-105002284D01*
X127903137Y-104994800D01*
X127903137Y-103924100D01*
X129906863Y-103924100D01*
X129906863Y-104994800D01*
G04 #@! TA.AperFunction,Conductor*
D18*
G36*
X129906863Y-104994800D02*
G01*
X129907600Y-105002285D01*
X129907601Y-106635671D01*
X129903235Y-106680000D01*
X129920658Y-106856901D01*
X129972258Y-107027004D01*
X130056052Y-107183772D01*
X130140562Y-107286747D01*
X130140563Y-107286748D01*
X130168821Y-107321180D01*
X130203251Y-107349436D01*
X138797600Y-115943786D01*
X138797600Y-116814600D01*
X136201250Y-116814600D01*
X136200000Y-116814477D01*
X135684950Y-116814600D01*
X135678600Y-116820950D01*
X135678600Y-119151400D01*
X135698600Y-119151400D01*
X135698600Y-119608600D01*
X135678600Y-119608600D01*
X135678600Y-119628600D01*
X135221400Y-119628600D01*
X135221400Y-119608600D01*
X134680950Y-119608600D01*
X134674600Y-119614950D01*
X134674492Y-121640600D01*
X132025508Y-121640600D01*
X132025400Y-119614950D01*
X132019050Y-119608600D01*
X131478600Y-119608600D01*
X131478600Y-119628600D01*
X131021400Y-119628600D01*
X131021400Y-119608600D01*
X131001400Y-119608600D01*
X131001400Y-119151400D01*
X131021400Y-119151400D01*
X131021400Y-116820950D01*
X131478600Y-116820950D01*
X131478600Y-119151400D01*
X132019050Y-119151400D01*
X132025400Y-119145050D01*
X132025523Y-116840000D01*
X134674477Y-116840000D01*
X134674600Y-119145050D01*
X134680950Y-119151400D01*
X135221400Y-119151400D01*
X135221400Y-116820950D01*
X135215050Y-116814600D01*
X134700000Y-116814477D01*
X134695021Y-116814967D01*
X134690233Y-116816420D01*
X134685820Y-116818778D01*
X134681953Y-116821953D01*
X134678778Y-116825820D01*
X134676420Y-116830233D01*
X134674967Y-116835021D01*
X134674477Y-116840000D01*
X132025523Y-116840000D01*
X132025033Y-116835021D01*
X132023580Y-116830233D01*
X132021222Y-116825820D01*
X132018047Y-116821953D01*
X132014180Y-116818778D01*
X132009767Y-116816420D01*
X132004979Y-116814967D01*
X132000000Y-116814477D01*
X131484950Y-116814600D01*
X131478600Y-116820950D01*
X131021400Y-116820950D01*
X131015050Y-116814600D01*
X130500000Y-116814477D01*
X130498750Y-116814600D01*
X127902400Y-116814600D01*
X127902400Y-105002284D01*
X127903137Y-104994800D01*
X127903137Y-103924100D01*
X129906863Y-103924100D01*
X129906863Y-104994800D01*
G37*
G04 #@! TD.AperFunction*
D17*
X126096863Y-104994800D02*
X126097600Y-105002284D01*
X126097601Y-116814600D01*
X123501250Y-116814600D01*
X123500000Y-116814477D01*
X122984950Y-116814600D01*
X122978600Y-116820950D01*
X122978600Y-119151400D01*
X122998600Y-119151400D01*
X122998600Y-119608600D01*
X122978600Y-119608600D01*
X122978600Y-119628600D01*
X122521400Y-119628600D01*
X122521400Y-119608600D01*
X121980950Y-119608600D01*
X121974600Y-119614950D01*
X121974492Y-121640600D01*
X119325508Y-121640600D01*
X119325400Y-119614950D01*
X119319050Y-119608600D01*
X118778600Y-119608600D01*
X118778600Y-119628600D01*
X118321400Y-119628600D01*
X118321400Y-119608600D01*
X118301400Y-119608600D01*
X118301400Y-119151400D01*
X118321400Y-119151400D01*
X118321400Y-116820950D01*
X118778600Y-116820950D01*
X118778600Y-119151400D01*
X119319050Y-119151400D01*
X119325400Y-119145050D01*
X119325523Y-116840000D01*
X121974477Y-116840000D01*
X121974600Y-119145050D01*
X121980950Y-119151400D01*
X122521400Y-119151400D01*
X122521400Y-116820950D01*
X122515050Y-116814600D01*
X122000000Y-116814477D01*
X121995021Y-116814967D01*
X121990233Y-116816420D01*
X121985820Y-116818778D01*
X121981953Y-116821953D01*
X121978778Y-116825820D01*
X121976420Y-116830233D01*
X121974967Y-116835021D01*
X121974477Y-116840000D01*
X119325523Y-116840000D01*
X119325033Y-116835021D01*
X119323580Y-116830233D01*
X119321222Y-116825820D01*
X119318047Y-116821953D01*
X119314180Y-116818778D01*
X119309767Y-116816420D01*
X119304979Y-116814967D01*
X119300000Y-116814477D01*
X118784950Y-116814600D01*
X118778600Y-116820950D01*
X118321400Y-116820950D01*
X118315050Y-116814600D01*
X117800000Y-116814477D01*
X117798750Y-116814600D01*
X115202400Y-116814600D01*
X115202400Y-115943785D01*
X123796750Y-107349436D01*
X123831180Y-107321180D01*
X123859438Y-107286748D01*
X123943948Y-107183773D01*
X124027742Y-107027005D01*
X124027743Y-107027004D01*
X124079343Y-106856901D01*
X124092400Y-106724329D01*
X124092400Y-106724319D01*
X124096765Y-106680000D01*
X124092400Y-106635681D01*
X124092400Y-105002284D01*
X124093137Y-104994800D01*
X124093137Y-103924100D01*
X126096863Y-103924100D01*
X126096863Y-104994800D01*
G04 #@! TA.AperFunction,Conductor*
D18*
G36*
X126096863Y-104994800D02*
G01*
X126097600Y-105002284D01*
X126097601Y-116814600D01*
X123501250Y-116814600D01*
X123500000Y-116814477D01*
X122984950Y-116814600D01*
X122978600Y-116820950D01*
X122978600Y-119151400D01*
X122998600Y-119151400D01*
X122998600Y-119608600D01*
X122978600Y-119608600D01*
X122978600Y-119628600D01*
X122521400Y-119628600D01*
X122521400Y-119608600D01*
X121980950Y-119608600D01*
X121974600Y-119614950D01*
X121974492Y-121640600D01*
X119325508Y-121640600D01*
X119325400Y-119614950D01*
X119319050Y-119608600D01*
X118778600Y-119608600D01*
X118778600Y-119628600D01*
X118321400Y-119628600D01*
X118321400Y-119608600D01*
X118301400Y-119608600D01*
X118301400Y-119151400D01*
X118321400Y-119151400D01*
X118321400Y-116820950D01*
X118778600Y-116820950D01*
X118778600Y-119151400D01*
X119319050Y-119151400D01*
X119325400Y-119145050D01*
X119325523Y-116840000D01*
X121974477Y-116840000D01*
X121974600Y-119145050D01*
X121980950Y-119151400D01*
X122521400Y-119151400D01*
X122521400Y-116820950D01*
X122515050Y-116814600D01*
X122000000Y-116814477D01*
X121995021Y-116814967D01*
X121990233Y-116816420D01*
X121985820Y-116818778D01*
X121981953Y-116821953D01*
X121978778Y-116825820D01*
X121976420Y-116830233D01*
X121974967Y-116835021D01*
X121974477Y-116840000D01*
X119325523Y-116840000D01*
X119325033Y-116835021D01*
X119323580Y-116830233D01*
X119321222Y-116825820D01*
X119318047Y-116821953D01*
X119314180Y-116818778D01*
X119309767Y-116816420D01*
X119304979Y-116814967D01*
X119300000Y-116814477D01*
X118784950Y-116814600D01*
X118778600Y-116820950D01*
X118321400Y-116820950D01*
X118315050Y-116814600D01*
X117800000Y-116814477D01*
X117798750Y-116814600D01*
X115202400Y-116814600D01*
X115202400Y-115943785D01*
X123796750Y-107349436D01*
X123831180Y-107321180D01*
X123859438Y-107286748D01*
X123943948Y-107183773D01*
X124027742Y-107027005D01*
X124027743Y-107027004D01*
X124079343Y-106856901D01*
X124092400Y-106724329D01*
X124092400Y-106724319D01*
X124096765Y-106680000D01*
X124092400Y-106635681D01*
X124092400Y-105002284D01*
X124093137Y-104994800D01*
X124093137Y-103924100D01*
X126096863Y-103924100D01*
X126096863Y-104994800D01*
G37*
G04 #@! TD.AperFunction*
G04 #@! TD*
D17*
G04 #@! TO.N,/GND*
X145770600Y-96574492D02*
X143744950Y-96574600D01*
X143738600Y-96580950D01*
X143738600Y-97121400D01*
X143758600Y-97121400D01*
X143758600Y-97578600D01*
X143738600Y-97578600D01*
X143738600Y-97598600D01*
X143281400Y-97598600D01*
X143281400Y-97578600D01*
X140950950Y-97578600D01*
X140944600Y-97584950D01*
X140944477Y-98100000D01*
X140944600Y-98101250D01*
X140944600Y-100697600D01*
X133399484Y-100697600D01*
X133392000Y-100696863D01*
X132321300Y-100696863D01*
X132321300Y-99148900D01*
X132320812Y-99143945D01*
X132319367Y-99139180D01*
X132317019Y-99134789D01*
X132313861Y-99130939D01*
X132310011Y-99127781D01*
X132305620Y-99125433D01*
X132300855Y-99123988D01*
X132295900Y-99123500D01*
X132105513Y-99123500D01*
X132105400Y-98786950D01*
X132099050Y-98780600D01*
X127228600Y-98780600D01*
X127228600Y-98800600D01*
X126771400Y-98800600D01*
X126771400Y-98780600D01*
X121900950Y-98780600D01*
X121894600Y-98786950D01*
X121894487Y-99123500D01*
X121704100Y-99123500D01*
X121699145Y-99123988D01*
X121694380Y-99125433D01*
X121689989Y-99127781D01*
X121686139Y-99130939D01*
X121682981Y-99134789D01*
X121680633Y-99139180D01*
X121679188Y-99143945D01*
X121678700Y-99148900D01*
X121678700Y-100696863D01*
X120608000Y-100696863D01*
X120578124Y-100699805D01*
X120549397Y-100708520D01*
X120522922Y-100722671D01*
X120499716Y-100741716D01*
X120480671Y-100764922D01*
X120466520Y-100791397D01*
X120457805Y-100820124D01*
X120454863Y-100850000D01*
X120454863Y-102350000D01*
X120457805Y-102379876D01*
X120466520Y-102408603D01*
X120480671Y-102435078D01*
X120499716Y-102458284D01*
X120522922Y-102477329D01*
X120549397Y-102491480D01*
X120578124Y-102500195D01*
X120608000Y-102503137D01*
X121678700Y-102503137D01*
X121678700Y-103911400D01*
X121679188Y-103916355D01*
X121680633Y-103921120D01*
X121682981Y-103925511D01*
X121686139Y-103929361D01*
X121689989Y-103932519D01*
X121694380Y-103934867D01*
X121699145Y-103936312D01*
X121704100Y-103936800D01*
X122286863Y-103936800D01*
X122286863Y-104994800D01*
X122287600Y-105002285D01*
X122287601Y-106306213D01*
X113693256Y-114900559D01*
X113658820Y-114928820D01*
X113630563Y-114963252D01*
X113630562Y-114963253D01*
X113546052Y-115066228D01*
X113501263Y-115150023D01*
X113462257Y-115222997D01*
X113410657Y-115393100D01*
X113397600Y-115525672D01*
X113397600Y-115525681D01*
X113393235Y-115570000D01*
X113397600Y-115614319D01*
X113397600Y-116814600D01*
X110801250Y-116814600D01*
X110800000Y-116814477D01*
X110284950Y-116814600D01*
X110278600Y-116820950D01*
X110278600Y-119151400D01*
X110298600Y-119151400D01*
X110298600Y-119608600D01*
X110278600Y-119608600D01*
X110278600Y-119628600D01*
X109821400Y-119628600D01*
X109821400Y-119608600D01*
X109280950Y-119608600D01*
X109274600Y-119614950D01*
X109274492Y-121640600D01*
X108229400Y-121640600D01*
X108229400Y-116840000D01*
X109274477Y-116840000D01*
X109274600Y-119145050D01*
X109280950Y-119151400D01*
X109821400Y-119151400D01*
X109821400Y-116820950D01*
X109815050Y-116814600D01*
X109300000Y-116814477D01*
X109295021Y-116814967D01*
X109290233Y-116816420D01*
X109285820Y-116818778D01*
X109281953Y-116821953D01*
X109278778Y-116825820D01*
X109276420Y-116830233D01*
X109274967Y-116835021D01*
X109274477Y-116840000D01*
X108229400Y-116840000D01*
X108229400Y-111739804D01*
X109372600Y-111739804D01*
X109372600Y-112084996D01*
X109439944Y-112423556D01*
X109572043Y-112742473D01*
X109763822Y-113029490D01*
X110007910Y-113273578D01*
X110294927Y-113465357D01*
X110613844Y-113597456D01*
X110952404Y-113664800D01*
X111297596Y-113664800D01*
X111636156Y-113597456D01*
X111955073Y-113465357D01*
X112242090Y-113273578D01*
X112486178Y-113029490D01*
X112677957Y-112742473D01*
X112810056Y-112423556D01*
X112877400Y-112084996D01*
X112877400Y-111739804D01*
X112810056Y-111401244D01*
X112677957Y-111082327D01*
X112486178Y-110795310D01*
X112242090Y-110551222D01*
X111955073Y-110359443D01*
X111636156Y-110227344D01*
X111297596Y-110160000D01*
X110952404Y-110160000D01*
X110613844Y-110227344D01*
X110294927Y-110359443D01*
X110007910Y-110551222D01*
X109763822Y-110795310D01*
X109572043Y-111082327D01*
X109439944Y-111401244D01*
X109372600Y-111739804D01*
X108229400Y-111739804D01*
X108229400Y-103921922D01*
X114199322Y-97952000D01*
X121894477Y-97952000D01*
X121894600Y-98317050D01*
X121900950Y-98323400D01*
X126771400Y-98323400D01*
X126771400Y-97932950D01*
X127228600Y-97932950D01*
X127228600Y-98323400D01*
X132099050Y-98323400D01*
X132105400Y-98317050D01*
X132105523Y-97952000D01*
X132105033Y-97947021D01*
X132103580Y-97942233D01*
X132101222Y-97937820D01*
X132098047Y-97933953D01*
X132094180Y-97930778D01*
X132089767Y-97928420D01*
X132084979Y-97926967D01*
X132080000Y-97926477D01*
X127234950Y-97926600D01*
X127228600Y-97932950D01*
X126771400Y-97932950D01*
X126765050Y-97926600D01*
X121920000Y-97926477D01*
X121915021Y-97926967D01*
X121910233Y-97928420D01*
X121905820Y-97930778D01*
X121901953Y-97933953D01*
X121898778Y-97937820D01*
X121896420Y-97942233D01*
X121894967Y-97947021D01*
X121894477Y-97952000D01*
X114199322Y-97952000D01*
X115551322Y-96600000D01*
X140944477Y-96600000D01*
X140944600Y-97115050D01*
X140950950Y-97121400D01*
X143281400Y-97121400D01*
X143281400Y-96580950D01*
X143275050Y-96574600D01*
X140970000Y-96574477D01*
X140965021Y-96574967D01*
X140960233Y-96576420D01*
X140955820Y-96578778D01*
X140951953Y-96581953D01*
X140948778Y-96585820D01*
X140946420Y-96590233D01*
X140944967Y-96595021D01*
X140944477Y-96600000D01*
X115551322Y-96600000D01*
X121036318Y-91115004D01*
X141122600Y-91115004D01*
X141122600Y-91460196D01*
X141189944Y-91798756D01*
X141322043Y-92117673D01*
X141513822Y-92404690D01*
X141757910Y-92648778D01*
X142044927Y-92840557D01*
X142363844Y-92972656D01*
X142702404Y-93040000D01*
X143047596Y-93040000D01*
X143386156Y-92972656D01*
X143705073Y-92840557D01*
X143992090Y-92648778D01*
X144236178Y-92404690D01*
X144427957Y-92117673D01*
X144560056Y-91798756D01*
X144627400Y-91460196D01*
X144627400Y-91115004D01*
X144560056Y-90776444D01*
X144427957Y-90457527D01*
X144236178Y-90170510D01*
X143992090Y-89926422D01*
X143705073Y-89734643D01*
X143386156Y-89602544D01*
X143047596Y-89535200D01*
X142702404Y-89535200D01*
X142363844Y-89602544D01*
X142044927Y-89734643D01*
X141757910Y-89926422D01*
X141513822Y-90170510D01*
X141322043Y-90457527D01*
X141189944Y-90776444D01*
X141122600Y-91115004D01*
X121036318Y-91115004D01*
X125511922Y-86639400D01*
X145770600Y-86639400D01*
X145770600Y-96574492D01*
G04 #@! TA.AperFunction,Conductor*
D18*
G36*
X145770600Y-96574492D02*
G01*
X143744950Y-96574600D01*
X143738600Y-96580950D01*
X143738600Y-97121400D01*
X143758600Y-97121400D01*
X143758600Y-97578600D01*
X143738600Y-97578600D01*
X143738600Y-97598600D01*
X143281400Y-97598600D01*
X143281400Y-97578600D01*
X140950950Y-97578600D01*
X140944600Y-97584950D01*
X140944477Y-98100000D01*
X140944600Y-98101250D01*
X140944600Y-100697600D01*
X133399484Y-100697600D01*
X133392000Y-100696863D01*
X132321300Y-100696863D01*
X132321300Y-99148900D01*
X132320812Y-99143945D01*
X132319367Y-99139180D01*
X132317019Y-99134789D01*
X132313861Y-99130939D01*
X132310011Y-99127781D01*
X132305620Y-99125433D01*
X132300855Y-99123988D01*
X132295900Y-99123500D01*
X132105513Y-99123500D01*
X132105400Y-98786950D01*
X132099050Y-98780600D01*
X127228600Y-98780600D01*
X127228600Y-98800600D01*
X126771400Y-98800600D01*
X126771400Y-98780600D01*
X121900950Y-98780600D01*
X121894600Y-98786950D01*
X121894487Y-99123500D01*
X121704100Y-99123500D01*
X121699145Y-99123988D01*
X121694380Y-99125433D01*
X121689989Y-99127781D01*
X121686139Y-99130939D01*
X121682981Y-99134789D01*
X121680633Y-99139180D01*
X121679188Y-99143945D01*
X121678700Y-99148900D01*
X121678700Y-100696863D01*
X120608000Y-100696863D01*
X120578124Y-100699805D01*
X120549397Y-100708520D01*
X120522922Y-100722671D01*
X120499716Y-100741716D01*
X120480671Y-100764922D01*
X120466520Y-100791397D01*
X120457805Y-100820124D01*
X120454863Y-100850000D01*
X120454863Y-102350000D01*
X120457805Y-102379876D01*
X120466520Y-102408603D01*
X120480671Y-102435078D01*
X120499716Y-102458284D01*
X120522922Y-102477329D01*
X120549397Y-102491480D01*
X120578124Y-102500195D01*
X120608000Y-102503137D01*
X121678700Y-102503137D01*
X121678700Y-103911400D01*
X121679188Y-103916355D01*
X121680633Y-103921120D01*
X121682981Y-103925511D01*
X121686139Y-103929361D01*
X121689989Y-103932519D01*
X121694380Y-103934867D01*
X121699145Y-103936312D01*
X121704100Y-103936800D01*
X122286863Y-103936800D01*
X122286863Y-104994800D01*
X122287600Y-105002285D01*
X122287601Y-106306213D01*
X113693256Y-114900559D01*
X113658820Y-114928820D01*
X113630563Y-114963252D01*
X113630562Y-114963253D01*
X113546052Y-115066228D01*
X113501263Y-115150023D01*
X113462257Y-115222997D01*
X113410657Y-115393100D01*
X113397600Y-115525672D01*
X113397600Y-115525681D01*
X113393235Y-115570000D01*
X113397600Y-115614319D01*
X113397600Y-116814600D01*
X110801250Y-116814600D01*
X110800000Y-116814477D01*
X110284950Y-116814600D01*
X110278600Y-116820950D01*
X110278600Y-119151400D01*
X110298600Y-119151400D01*
X110298600Y-119608600D01*
X110278600Y-119608600D01*
X110278600Y-119628600D01*
X109821400Y-119628600D01*
X109821400Y-119608600D01*
X109280950Y-119608600D01*
X109274600Y-119614950D01*
X109274492Y-121640600D01*
X108229400Y-121640600D01*
X108229400Y-116840000D01*
X109274477Y-116840000D01*
X109274600Y-119145050D01*
X109280950Y-119151400D01*
X109821400Y-119151400D01*
X109821400Y-116820950D01*
X109815050Y-116814600D01*
X109300000Y-116814477D01*
X109295021Y-116814967D01*
X109290233Y-116816420D01*
X109285820Y-116818778D01*
X109281953Y-116821953D01*
X109278778Y-116825820D01*
X109276420Y-116830233D01*
X109274967Y-116835021D01*
X109274477Y-116840000D01*
X108229400Y-116840000D01*
X108229400Y-111739804D01*
X109372600Y-111739804D01*
X109372600Y-112084996D01*
X109439944Y-112423556D01*
X109572043Y-112742473D01*
X109763822Y-113029490D01*
X110007910Y-113273578D01*
X110294927Y-113465357D01*
X110613844Y-113597456D01*
X110952404Y-113664800D01*
X111297596Y-113664800D01*
X111636156Y-113597456D01*
X111955073Y-113465357D01*
X112242090Y-113273578D01*
X112486178Y-113029490D01*
X112677957Y-112742473D01*
X112810056Y-112423556D01*
X112877400Y-112084996D01*
X112877400Y-111739804D01*
X112810056Y-111401244D01*
X112677957Y-111082327D01*
X112486178Y-110795310D01*
X112242090Y-110551222D01*
X111955073Y-110359443D01*
X111636156Y-110227344D01*
X111297596Y-110160000D01*
X110952404Y-110160000D01*
X110613844Y-110227344D01*
X110294927Y-110359443D01*
X110007910Y-110551222D01*
X109763822Y-110795310D01*
X109572043Y-111082327D01*
X109439944Y-111401244D01*
X109372600Y-111739804D01*
X108229400Y-111739804D01*
X108229400Y-103921922D01*
X114199322Y-97952000D01*
X121894477Y-97952000D01*
X121894600Y-98317050D01*
X121900950Y-98323400D01*
X126771400Y-98323400D01*
X126771400Y-97932950D01*
X127228600Y-97932950D01*
X127228600Y-98323400D01*
X132099050Y-98323400D01*
X132105400Y-98317050D01*
X132105523Y-97952000D01*
X132105033Y-97947021D01*
X132103580Y-97942233D01*
X132101222Y-97937820D01*
X132098047Y-97933953D01*
X132094180Y-97930778D01*
X132089767Y-97928420D01*
X132084979Y-97926967D01*
X132080000Y-97926477D01*
X127234950Y-97926600D01*
X127228600Y-97932950D01*
X126771400Y-97932950D01*
X126765050Y-97926600D01*
X121920000Y-97926477D01*
X121915021Y-97926967D01*
X121910233Y-97928420D01*
X121905820Y-97930778D01*
X121901953Y-97933953D01*
X121898778Y-97937820D01*
X121896420Y-97942233D01*
X121894967Y-97947021D01*
X121894477Y-97952000D01*
X114199322Y-97952000D01*
X115551322Y-96600000D01*
X140944477Y-96600000D01*
X140944600Y-97115050D01*
X140950950Y-97121400D01*
X143281400Y-97121400D01*
X143281400Y-96580950D01*
X143275050Y-96574600D01*
X140970000Y-96574477D01*
X140965021Y-96574967D01*
X140960233Y-96576420D01*
X140955820Y-96578778D01*
X140951953Y-96581953D01*
X140948778Y-96585820D01*
X140946420Y-96590233D01*
X140944967Y-96595021D01*
X140944477Y-96600000D01*
X115551322Y-96600000D01*
X121036318Y-91115004D01*
X141122600Y-91115004D01*
X141122600Y-91460196D01*
X141189944Y-91798756D01*
X141322043Y-92117673D01*
X141513822Y-92404690D01*
X141757910Y-92648778D01*
X142044927Y-92840557D01*
X142363844Y-92972656D01*
X142702404Y-93040000D01*
X143047596Y-93040000D01*
X143386156Y-92972656D01*
X143705073Y-92840557D01*
X143992090Y-92648778D01*
X144236178Y-92404690D01*
X144427957Y-92117673D01*
X144560056Y-91798756D01*
X144627400Y-91460196D01*
X144627400Y-91115004D01*
X144560056Y-90776444D01*
X144427957Y-90457527D01*
X144236178Y-90170510D01*
X143992090Y-89926422D01*
X143705073Y-89734643D01*
X143386156Y-89602544D01*
X143047596Y-89535200D01*
X142702404Y-89535200D01*
X142363844Y-89602544D01*
X142044927Y-89734643D01*
X141757910Y-89926422D01*
X141513822Y-90170510D01*
X141322043Y-90457527D01*
X141189944Y-90776444D01*
X141122600Y-91115004D01*
X121036318Y-91115004D01*
X125511922Y-86639400D01*
X145770600Y-86639400D01*
X145770600Y-96574492D01*
G37*
G04 #@! TD.AperFunction*
G04 #@! TD*
M02*
