G04 #@! TF.GenerationSoftware,KiCad,Pcbnew,(6.0.7)*
G04 #@! TF.CreationDate,2022-08-26T14:01:08-05:00*
G04 #@! TF.ProjectId,UTCPW_MountingBoard,55544350-575f-44d6-9f75-6e74696e6742,rev?*
G04 #@! TF.SameCoordinates,Original*
G04 #@! TF.FileFunction,Copper,L2,Bot*
G04 #@! TF.FilePolarity,Positive*
%FSLAX46Y46*%
G04 Gerber Fmt 4.6, Leading zero omitted, Abs format (unit mm)*
G04 Created by KiCad (PCBNEW (6.0.7)) date 2022-08-26 14:01:08*
%MOMM*%
%LPD*%
G01*
G04 APERTURE LIST*
G04 #@! TA.AperFunction,ComponentPad*
%ADD10C,1.219200*%
G04 #@! TD*
G04 APERTURE END LIST*
D10*
G04 #@! TO.P,REF\u002A\u002A,*
G04 #@! TO.N,*
X140919200Y-120167400D03*
X138480800Y-120167400D03*
X138480800Y-117957600D03*
X140919200Y-117957600D03*
G04 #@! TD*
G04 #@! TO.P,REF\u002A\u002A,*
G04 #@! TO.N,*
X115519200Y-120167400D03*
X113080800Y-120167400D03*
X113080800Y-117957600D03*
X115519200Y-117957600D03*
G04 #@! TD*
G04 #@! TO.P,REF\u002A\u002A,*
G04 #@! TO.N,*
X127619200Y-120167400D03*
X125180800Y-120167400D03*
X125180800Y-117957600D03*
X127619200Y-117957600D03*
G04 #@! TD*
G04 #@! TA.AperFunction,NonConductor*
G36*
X145864621Y-86507502D02*
G01*
X145911114Y-86561158D01*
X145922500Y-86613500D01*
X145922500Y-121666500D01*
X145902498Y-121734621D01*
X145848842Y-121781114D01*
X145796500Y-121792500D01*
X108203500Y-121792500D01*
X108135379Y-121772498D01*
X108088886Y-121718842D01*
X108077500Y-121666500D01*
X108077500Y-120120121D01*
X112235156Y-120120121D01*
X112244730Y-120302814D01*
X112293312Y-120479189D01*
X112378634Y-120641017D01*
X112383039Y-120646230D01*
X112383042Y-120646234D01*
X112437515Y-120710693D01*
X112496716Y-120780748D01*
X112502135Y-120784891D01*
X112502137Y-120784893D01*
X112636626Y-120887718D01*
X112642049Y-120891864D01*
X112648232Y-120894747D01*
X112648235Y-120894749D01*
X112801675Y-120966299D01*
X112801678Y-120966300D01*
X112807852Y-120969179D01*
X112814500Y-120970665D01*
X112814503Y-120970666D01*
X112911871Y-120992430D01*
X112986390Y-121009087D01*
X112991989Y-121009400D01*
X113126503Y-121009400D01*
X113262673Y-120994607D01*
X113436061Y-120936256D01*
X113592874Y-120842033D01*
X113653298Y-120784893D01*
X113720838Y-120721024D01*
X113720840Y-120721022D01*
X113725796Y-120716335D01*
X113828626Y-120565026D01*
X113860543Y-120485228D01*
X113894031Y-120401503D01*
X113894032Y-120401498D01*
X113896565Y-120395166D01*
X113926444Y-120214679D01*
X113921489Y-120120121D01*
X114673556Y-120120121D01*
X114683130Y-120302814D01*
X114731712Y-120479189D01*
X114817034Y-120641017D01*
X114821439Y-120646230D01*
X114821442Y-120646234D01*
X114875915Y-120710693D01*
X114935116Y-120780748D01*
X114940535Y-120784891D01*
X114940537Y-120784893D01*
X115075026Y-120887718D01*
X115080449Y-120891864D01*
X115086632Y-120894747D01*
X115086635Y-120894749D01*
X115240075Y-120966299D01*
X115240078Y-120966300D01*
X115246252Y-120969179D01*
X115252900Y-120970665D01*
X115252903Y-120970666D01*
X115350271Y-120992430D01*
X115424790Y-121009087D01*
X115430389Y-121009400D01*
X115564903Y-121009400D01*
X115701073Y-120994607D01*
X115874461Y-120936256D01*
X116031274Y-120842033D01*
X116091698Y-120784893D01*
X116159238Y-120721024D01*
X116159240Y-120721022D01*
X116164196Y-120716335D01*
X116267026Y-120565026D01*
X116298943Y-120485228D01*
X116332431Y-120401503D01*
X116332432Y-120401498D01*
X116334965Y-120395166D01*
X116364844Y-120214679D01*
X116359889Y-120120121D01*
X124335156Y-120120121D01*
X124344730Y-120302814D01*
X124393312Y-120479189D01*
X124478634Y-120641017D01*
X124483039Y-120646230D01*
X124483042Y-120646234D01*
X124537515Y-120710693D01*
X124596716Y-120780748D01*
X124602135Y-120784891D01*
X124602137Y-120784893D01*
X124736626Y-120887718D01*
X124742049Y-120891864D01*
X124748232Y-120894747D01*
X124748235Y-120894749D01*
X124901675Y-120966299D01*
X124901678Y-120966300D01*
X124907852Y-120969179D01*
X124914500Y-120970665D01*
X124914503Y-120970666D01*
X125011871Y-120992430D01*
X125086390Y-121009087D01*
X125091989Y-121009400D01*
X125226503Y-121009400D01*
X125362673Y-120994607D01*
X125536061Y-120936256D01*
X125692874Y-120842033D01*
X125753298Y-120784893D01*
X125820838Y-120721024D01*
X125820840Y-120721022D01*
X125825796Y-120716335D01*
X125928626Y-120565026D01*
X125960543Y-120485228D01*
X125994031Y-120401503D01*
X125994032Y-120401498D01*
X125996565Y-120395166D01*
X126026444Y-120214679D01*
X126021489Y-120120121D01*
X126773556Y-120120121D01*
X126783130Y-120302814D01*
X126831712Y-120479189D01*
X126917034Y-120641017D01*
X126921439Y-120646230D01*
X126921442Y-120646234D01*
X126975915Y-120710693D01*
X127035116Y-120780748D01*
X127040535Y-120784891D01*
X127040537Y-120784893D01*
X127175026Y-120887718D01*
X127180449Y-120891864D01*
X127186632Y-120894747D01*
X127186635Y-120894749D01*
X127340075Y-120966299D01*
X127340078Y-120966300D01*
X127346252Y-120969179D01*
X127352900Y-120970665D01*
X127352903Y-120970666D01*
X127450271Y-120992430D01*
X127524790Y-121009087D01*
X127530389Y-121009400D01*
X127664903Y-121009400D01*
X127801073Y-120994607D01*
X127974461Y-120936256D01*
X128131274Y-120842033D01*
X128191698Y-120784893D01*
X128259238Y-120721024D01*
X128259240Y-120721022D01*
X128264196Y-120716335D01*
X128367026Y-120565026D01*
X128398943Y-120485228D01*
X128432431Y-120401503D01*
X128432432Y-120401498D01*
X128434965Y-120395166D01*
X128464844Y-120214679D01*
X128459889Y-120120121D01*
X137635156Y-120120121D01*
X137644730Y-120302814D01*
X137693312Y-120479189D01*
X137778634Y-120641017D01*
X137783039Y-120646230D01*
X137783042Y-120646234D01*
X137837515Y-120710693D01*
X137896716Y-120780748D01*
X137902135Y-120784891D01*
X137902137Y-120784893D01*
X138036626Y-120887718D01*
X138042049Y-120891864D01*
X138048232Y-120894747D01*
X138048235Y-120894749D01*
X138201675Y-120966299D01*
X138201678Y-120966300D01*
X138207852Y-120969179D01*
X138214500Y-120970665D01*
X138214503Y-120970666D01*
X138311871Y-120992430D01*
X138386390Y-121009087D01*
X138391989Y-121009400D01*
X138526503Y-121009400D01*
X138662673Y-120994607D01*
X138836061Y-120936256D01*
X138992874Y-120842033D01*
X139053298Y-120784893D01*
X139120838Y-120721024D01*
X139120840Y-120721022D01*
X139125796Y-120716335D01*
X139228626Y-120565026D01*
X139260543Y-120485228D01*
X139294031Y-120401503D01*
X139294032Y-120401498D01*
X139296565Y-120395166D01*
X139326444Y-120214679D01*
X139321489Y-120120121D01*
X140073556Y-120120121D01*
X140083130Y-120302814D01*
X140131712Y-120479189D01*
X140217034Y-120641017D01*
X140221439Y-120646230D01*
X140221442Y-120646234D01*
X140275915Y-120710693D01*
X140335116Y-120780748D01*
X140340535Y-120784891D01*
X140340537Y-120784893D01*
X140475026Y-120887718D01*
X140480449Y-120891864D01*
X140486632Y-120894747D01*
X140486635Y-120894749D01*
X140640075Y-120966299D01*
X140640078Y-120966300D01*
X140646252Y-120969179D01*
X140652900Y-120970665D01*
X140652903Y-120970666D01*
X140750271Y-120992430D01*
X140824790Y-121009087D01*
X140830389Y-121009400D01*
X140964903Y-121009400D01*
X141101073Y-120994607D01*
X141274461Y-120936256D01*
X141431274Y-120842033D01*
X141491698Y-120784893D01*
X141559238Y-120721024D01*
X141559240Y-120721022D01*
X141564196Y-120716335D01*
X141667026Y-120565026D01*
X141698943Y-120485228D01*
X141732431Y-120401503D01*
X141732432Y-120401498D01*
X141734965Y-120395166D01*
X141764844Y-120214679D01*
X141755270Y-120031986D01*
X141706688Y-119855611D01*
X141621366Y-119693783D01*
X141616961Y-119688570D01*
X141616958Y-119688566D01*
X141507689Y-119559265D01*
X141503284Y-119554052D01*
X141418529Y-119489251D01*
X141363374Y-119447082D01*
X141363373Y-119447081D01*
X141357951Y-119442936D01*
X141351768Y-119440053D01*
X141351765Y-119440051D01*
X141198325Y-119368501D01*
X141198322Y-119368500D01*
X141192148Y-119365621D01*
X141185500Y-119364135D01*
X141185497Y-119364134D01*
X141018647Y-119326839D01*
X141018648Y-119326839D01*
X141013610Y-119325713D01*
X141008011Y-119325400D01*
X140873497Y-119325400D01*
X140737327Y-119340193D01*
X140563939Y-119398544D01*
X140407126Y-119492767D01*
X140402166Y-119497458D01*
X140402164Y-119497459D01*
X140342319Y-119554052D01*
X140274204Y-119618465D01*
X140171374Y-119769774D01*
X140168841Y-119776108D01*
X140168839Y-119776111D01*
X140105969Y-119933297D01*
X140105968Y-119933302D01*
X140103435Y-119939634D01*
X140073556Y-120120121D01*
X139321489Y-120120121D01*
X139316870Y-120031986D01*
X139268288Y-119855611D01*
X139182966Y-119693783D01*
X139178561Y-119688570D01*
X139178558Y-119688566D01*
X139069289Y-119559265D01*
X139064884Y-119554052D01*
X138980129Y-119489251D01*
X138924974Y-119447082D01*
X138924973Y-119447081D01*
X138919551Y-119442936D01*
X138913368Y-119440053D01*
X138913365Y-119440051D01*
X138759925Y-119368501D01*
X138759922Y-119368500D01*
X138753748Y-119365621D01*
X138747100Y-119364135D01*
X138747097Y-119364134D01*
X138580247Y-119326839D01*
X138580248Y-119326839D01*
X138575210Y-119325713D01*
X138569611Y-119325400D01*
X138435097Y-119325400D01*
X138298927Y-119340193D01*
X138125539Y-119398544D01*
X137968726Y-119492767D01*
X137963766Y-119497458D01*
X137963764Y-119497459D01*
X137903919Y-119554052D01*
X137835804Y-119618465D01*
X137732974Y-119769774D01*
X137730441Y-119776108D01*
X137730439Y-119776111D01*
X137667569Y-119933297D01*
X137667568Y-119933302D01*
X137665035Y-119939634D01*
X137635156Y-120120121D01*
X128459889Y-120120121D01*
X128455270Y-120031986D01*
X128406688Y-119855611D01*
X128321366Y-119693783D01*
X128316961Y-119688570D01*
X128316958Y-119688566D01*
X128207689Y-119559265D01*
X128203284Y-119554052D01*
X128118529Y-119489251D01*
X128063374Y-119447082D01*
X128063373Y-119447081D01*
X128057951Y-119442936D01*
X128051768Y-119440053D01*
X128051765Y-119440051D01*
X127898325Y-119368501D01*
X127898322Y-119368500D01*
X127892148Y-119365621D01*
X127885500Y-119364135D01*
X127885497Y-119364134D01*
X127718647Y-119326839D01*
X127718648Y-119326839D01*
X127713610Y-119325713D01*
X127708011Y-119325400D01*
X127573497Y-119325400D01*
X127437327Y-119340193D01*
X127263939Y-119398544D01*
X127107126Y-119492767D01*
X127102166Y-119497458D01*
X127102164Y-119497459D01*
X127042319Y-119554052D01*
X126974204Y-119618465D01*
X126871374Y-119769774D01*
X126868841Y-119776108D01*
X126868839Y-119776111D01*
X126805969Y-119933297D01*
X126805968Y-119933302D01*
X126803435Y-119939634D01*
X126773556Y-120120121D01*
X126021489Y-120120121D01*
X126016870Y-120031986D01*
X125968288Y-119855611D01*
X125882966Y-119693783D01*
X125878561Y-119688570D01*
X125878558Y-119688566D01*
X125769289Y-119559265D01*
X125764884Y-119554052D01*
X125680129Y-119489251D01*
X125624974Y-119447082D01*
X125624973Y-119447081D01*
X125619551Y-119442936D01*
X125613368Y-119440053D01*
X125613365Y-119440051D01*
X125459925Y-119368501D01*
X125459922Y-119368500D01*
X125453748Y-119365621D01*
X125447100Y-119364135D01*
X125447097Y-119364134D01*
X125280247Y-119326839D01*
X125280248Y-119326839D01*
X125275210Y-119325713D01*
X125269611Y-119325400D01*
X125135097Y-119325400D01*
X124998927Y-119340193D01*
X124825539Y-119398544D01*
X124668726Y-119492767D01*
X124663766Y-119497458D01*
X124663764Y-119497459D01*
X124603919Y-119554052D01*
X124535804Y-119618465D01*
X124432974Y-119769774D01*
X124430441Y-119776108D01*
X124430439Y-119776111D01*
X124367569Y-119933297D01*
X124367568Y-119933302D01*
X124365035Y-119939634D01*
X124335156Y-120120121D01*
X116359889Y-120120121D01*
X116355270Y-120031986D01*
X116306688Y-119855611D01*
X116221366Y-119693783D01*
X116216961Y-119688570D01*
X116216958Y-119688566D01*
X116107689Y-119559265D01*
X116103284Y-119554052D01*
X116018529Y-119489251D01*
X115963374Y-119447082D01*
X115963373Y-119447081D01*
X115957951Y-119442936D01*
X115951768Y-119440053D01*
X115951765Y-119440051D01*
X115798325Y-119368501D01*
X115798322Y-119368500D01*
X115792148Y-119365621D01*
X115785500Y-119364135D01*
X115785497Y-119364134D01*
X115618647Y-119326839D01*
X115618648Y-119326839D01*
X115613610Y-119325713D01*
X115608011Y-119325400D01*
X115473497Y-119325400D01*
X115337327Y-119340193D01*
X115163939Y-119398544D01*
X115007126Y-119492767D01*
X115002166Y-119497458D01*
X115002164Y-119497459D01*
X114942319Y-119554052D01*
X114874204Y-119618465D01*
X114771374Y-119769774D01*
X114768841Y-119776108D01*
X114768839Y-119776111D01*
X114705969Y-119933297D01*
X114705968Y-119933302D01*
X114703435Y-119939634D01*
X114673556Y-120120121D01*
X113921489Y-120120121D01*
X113916870Y-120031986D01*
X113868288Y-119855611D01*
X113782966Y-119693783D01*
X113778561Y-119688570D01*
X113778558Y-119688566D01*
X113669289Y-119559265D01*
X113664884Y-119554052D01*
X113580129Y-119489251D01*
X113524974Y-119447082D01*
X113524973Y-119447081D01*
X113519551Y-119442936D01*
X113513368Y-119440053D01*
X113513365Y-119440051D01*
X113359925Y-119368501D01*
X113359922Y-119368500D01*
X113353748Y-119365621D01*
X113347100Y-119364135D01*
X113347097Y-119364134D01*
X113180247Y-119326839D01*
X113180248Y-119326839D01*
X113175210Y-119325713D01*
X113169611Y-119325400D01*
X113035097Y-119325400D01*
X112898927Y-119340193D01*
X112725539Y-119398544D01*
X112568726Y-119492767D01*
X112563766Y-119497458D01*
X112563764Y-119497459D01*
X112503919Y-119554052D01*
X112435804Y-119618465D01*
X112332974Y-119769774D01*
X112330441Y-119776108D01*
X112330439Y-119776111D01*
X112267569Y-119933297D01*
X112267568Y-119933302D01*
X112265035Y-119939634D01*
X112235156Y-120120121D01*
X108077500Y-120120121D01*
X108077500Y-117910321D01*
X112235156Y-117910321D01*
X112244730Y-118093014D01*
X112293312Y-118269389D01*
X112378634Y-118431217D01*
X112383039Y-118436430D01*
X112383042Y-118436434D01*
X112437515Y-118500893D01*
X112496716Y-118570948D01*
X112502135Y-118575091D01*
X112502137Y-118575093D01*
X112636626Y-118677918D01*
X112642049Y-118682064D01*
X112648232Y-118684947D01*
X112648235Y-118684949D01*
X112801675Y-118756499D01*
X112801678Y-118756500D01*
X112807852Y-118759379D01*
X112814500Y-118760865D01*
X112814503Y-118760866D01*
X112911871Y-118782630D01*
X112986390Y-118799287D01*
X112991989Y-118799600D01*
X113126503Y-118799600D01*
X113262673Y-118784807D01*
X113436061Y-118726456D01*
X113592874Y-118632233D01*
X113653298Y-118575093D01*
X113720838Y-118511224D01*
X113720840Y-118511222D01*
X113725796Y-118506535D01*
X113828626Y-118355226D01*
X113860543Y-118275428D01*
X113894031Y-118191703D01*
X113894032Y-118191698D01*
X113896565Y-118185366D01*
X113926444Y-118004879D01*
X113921489Y-117910321D01*
X114673556Y-117910321D01*
X114683130Y-118093014D01*
X114731712Y-118269389D01*
X114817034Y-118431217D01*
X114821439Y-118436430D01*
X114821442Y-118436434D01*
X114875915Y-118500893D01*
X114935116Y-118570948D01*
X114940535Y-118575091D01*
X114940537Y-118575093D01*
X115075026Y-118677918D01*
X115080449Y-118682064D01*
X115086632Y-118684947D01*
X115086635Y-118684949D01*
X115240075Y-118756499D01*
X115240078Y-118756500D01*
X115246252Y-118759379D01*
X115252900Y-118760865D01*
X115252903Y-118760866D01*
X115350271Y-118782630D01*
X115424790Y-118799287D01*
X115430389Y-118799600D01*
X115564903Y-118799600D01*
X115701073Y-118784807D01*
X115874461Y-118726456D01*
X116031274Y-118632233D01*
X116091698Y-118575093D01*
X116159238Y-118511224D01*
X116159240Y-118511222D01*
X116164196Y-118506535D01*
X116267026Y-118355226D01*
X116298943Y-118275428D01*
X116332431Y-118191703D01*
X116332432Y-118191698D01*
X116334965Y-118185366D01*
X116364844Y-118004879D01*
X116359889Y-117910321D01*
X124335156Y-117910321D01*
X124344730Y-118093014D01*
X124393312Y-118269389D01*
X124478634Y-118431217D01*
X124483039Y-118436430D01*
X124483042Y-118436434D01*
X124537515Y-118500893D01*
X124596716Y-118570948D01*
X124602135Y-118575091D01*
X124602137Y-118575093D01*
X124736626Y-118677918D01*
X124742049Y-118682064D01*
X124748232Y-118684947D01*
X124748235Y-118684949D01*
X124901675Y-118756499D01*
X124901678Y-118756500D01*
X124907852Y-118759379D01*
X124914500Y-118760865D01*
X124914503Y-118760866D01*
X125011871Y-118782630D01*
X125086390Y-118799287D01*
X125091989Y-118799600D01*
X125226503Y-118799600D01*
X125362673Y-118784807D01*
X125536061Y-118726456D01*
X125692874Y-118632233D01*
X125753298Y-118575093D01*
X125820838Y-118511224D01*
X125820840Y-118511222D01*
X125825796Y-118506535D01*
X125928626Y-118355226D01*
X125960543Y-118275428D01*
X125994031Y-118191703D01*
X125994032Y-118191698D01*
X125996565Y-118185366D01*
X126026444Y-118004879D01*
X126021489Y-117910321D01*
X126773556Y-117910321D01*
X126783130Y-118093014D01*
X126831712Y-118269389D01*
X126917034Y-118431217D01*
X126921439Y-118436430D01*
X126921442Y-118436434D01*
X126975915Y-118500893D01*
X127035116Y-118570948D01*
X127040535Y-118575091D01*
X127040537Y-118575093D01*
X127175026Y-118677918D01*
X127180449Y-118682064D01*
X127186632Y-118684947D01*
X127186635Y-118684949D01*
X127340075Y-118756499D01*
X127340078Y-118756500D01*
X127346252Y-118759379D01*
X127352900Y-118760865D01*
X127352903Y-118760866D01*
X127450271Y-118782630D01*
X127524790Y-118799287D01*
X127530389Y-118799600D01*
X127664903Y-118799600D01*
X127801073Y-118784807D01*
X127974461Y-118726456D01*
X128131274Y-118632233D01*
X128191698Y-118575093D01*
X128259238Y-118511224D01*
X128259240Y-118511222D01*
X128264196Y-118506535D01*
X128367026Y-118355226D01*
X128398943Y-118275428D01*
X128432431Y-118191703D01*
X128432432Y-118191698D01*
X128434965Y-118185366D01*
X128464844Y-118004879D01*
X128459889Y-117910321D01*
X137635156Y-117910321D01*
X137644730Y-118093014D01*
X137693312Y-118269389D01*
X137778634Y-118431217D01*
X137783039Y-118436430D01*
X137783042Y-118436434D01*
X137837515Y-118500893D01*
X137896716Y-118570948D01*
X137902135Y-118575091D01*
X137902137Y-118575093D01*
X138036626Y-118677918D01*
X138042049Y-118682064D01*
X138048232Y-118684947D01*
X138048235Y-118684949D01*
X138201675Y-118756499D01*
X138201678Y-118756500D01*
X138207852Y-118759379D01*
X138214500Y-118760865D01*
X138214503Y-118760866D01*
X138311871Y-118782630D01*
X138386390Y-118799287D01*
X138391989Y-118799600D01*
X138526503Y-118799600D01*
X138662673Y-118784807D01*
X138836061Y-118726456D01*
X138992874Y-118632233D01*
X139053298Y-118575093D01*
X139120838Y-118511224D01*
X139120840Y-118511222D01*
X139125796Y-118506535D01*
X139228626Y-118355226D01*
X139260543Y-118275428D01*
X139294031Y-118191703D01*
X139294032Y-118191698D01*
X139296565Y-118185366D01*
X139326444Y-118004879D01*
X139321489Y-117910321D01*
X140073556Y-117910321D01*
X140083130Y-118093014D01*
X140131712Y-118269389D01*
X140217034Y-118431217D01*
X140221439Y-118436430D01*
X140221442Y-118436434D01*
X140275915Y-118500893D01*
X140335116Y-118570948D01*
X140340535Y-118575091D01*
X140340537Y-118575093D01*
X140475026Y-118677918D01*
X140480449Y-118682064D01*
X140486632Y-118684947D01*
X140486635Y-118684949D01*
X140640075Y-118756499D01*
X140640078Y-118756500D01*
X140646252Y-118759379D01*
X140652900Y-118760865D01*
X140652903Y-118760866D01*
X140750271Y-118782630D01*
X140824790Y-118799287D01*
X140830389Y-118799600D01*
X140964903Y-118799600D01*
X141101073Y-118784807D01*
X141274461Y-118726456D01*
X141431274Y-118632233D01*
X141491698Y-118575093D01*
X141559238Y-118511224D01*
X141559240Y-118511222D01*
X141564196Y-118506535D01*
X141667026Y-118355226D01*
X141698943Y-118275428D01*
X141732431Y-118191703D01*
X141732432Y-118191698D01*
X141734965Y-118185366D01*
X141764844Y-118004879D01*
X141755270Y-117822186D01*
X141706688Y-117645811D01*
X141621366Y-117483983D01*
X141616961Y-117478770D01*
X141616958Y-117478766D01*
X141507689Y-117349465D01*
X141503284Y-117344252D01*
X141418529Y-117279451D01*
X141363374Y-117237282D01*
X141363373Y-117237281D01*
X141357951Y-117233136D01*
X141351768Y-117230253D01*
X141351765Y-117230251D01*
X141198325Y-117158701D01*
X141198322Y-117158700D01*
X141192148Y-117155821D01*
X141185500Y-117154335D01*
X141185497Y-117154334D01*
X141018647Y-117117039D01*
X141018648Y-117117039D01*
X141013610Y-117115913D01*
X141008011Y-117115600D01*
X140873497Y-117115600D01*
X140737327Y-117130393D01*
X140563939Y-117188744D01*
X140407126Y-117282967D01*
X140402166Y-117287658D01*
X140402164Y-117287659D01*
X140342319Y-117344252D01*
X140274204Y-117408665D01*
X140171374Y-117559974D01*
X140168841Y-117566308D01*
X140168839Y-117566311D01*
X140105969Y-117723497D01*
X140105968Y-117723502D01*
X140103435Y-117729834D01*
X140073556Y-117910321D01*
X139321489Y-117910321D01*
X139316870Y-117822186D01*
X139268288Y-117645811D01*
X139182966Y-117483983D01*
X139178561Y-117478770D01*
X139178558Y-117478766D01*
X139069289Y-117349465D01*
X139064884Y-117344252D01*
X138980129Y-117279451D01*
X138924974Y-117237282D01*
X138924973Y-117237281D01*
X138919551Y-117233136D01*
X138913368Y-117230253D01*
X138913365Y-117230251D01*
X138759925Y-117158701D01*
X138759922Y-117158700D01*
X138753748Y-117155821D01*
X138747100Y-117154335D01*
X138747097Y-117154334D01*
X138580247Y-117117039D01*
X138580248Y-117117039D01*
X138575210Y-117115913D01*
X138569611Y-117115600D01*
X138435097Y-117115600D01*
X138298927Y-117130393D01*
X138125539Y-117188744D01*
X137968726Y-117282967D01*
X137963766Y-117287658D01*
X137963764Y-117287659D01*
X137903919Y-117344252D01*
X137835804Y-117408665D01*
X137732974Y-117559974D01*
X137730441Y-117566308D01*
X137730439Y-117566311D01*
X137667569Y-117723497D01*
X137667568Y-117723502D01*
X137665035Y-117729834D01*
X137635156Y-117910321D01*
X128459889Y-117910321D01*
X128455270Y-117822186D01*
X128406688Y-117645811D01*
X128321366Y-117483983D01*
X128316961Y-117478770D01*
X128316958Y-117478766D01*
X128207689Y-117349465D01*
X128203284Y-117344252D01*
X128118529Y-117279451D01*
X128063374Y-117237282D01*
X128063373Y-117237281D01*
X128057951Y-117233136D01*
X128051768Y-117230253D01*
X128051765Y-117230251D01*
X127898325Y-117158701D01*
X127898322Y-117158700D01*
X127892148Y-117155821D01*
X127885500Y-117154335D01*
X127885497Y-117154334D01*
X127718647Y-117117039D01*
X127718648Y-117117039D01*
X127713610Y-117115913D01*
X127708011Y-117115600D01*
X127573497Y-117115600D01*
X127437327Y-117130393D01*
X127263939Y-117188744D01*
X127107126Y-117282967D01*
X127102166Y-117287658D01*
X127102164Y-117287659D01*
X127042319Y-117344252D01*
X126974204Y-117408665D01*
X126871374Y-117559974D01*
X126868841Y-117566308D01*
X126868839Y-117566311D01*
X126805969Y-117723497D01*
X126805968Y-117723502D01*
X126803435Y-117729834D01*
X126773556Y-117910321D01*
X126021489Y-117910321D01*
X126016870Y-117822186D01*
X125968288Y-117645811D01*
X125882966Y-117483983D01*
X125878561Y-117478770D01*
X125878558Y-117478766D01*
X125769289Y-117349465D01*
X125764884Y-117344252D01*
X125680129Y-117279451D01*
X125624974Y-117237282D01*
X125624973Y-117237281D01*
X125619551Y-117233136D01*
X125613368Y-117230253D01*
X125613365Y-117230251D01*
X125459925Y-117158701D01*
X125459922Y-117158700D01*
X125453748Y-117155821D01*
X125447100Y-117154335D01*
X125447097Y-117154334D01*
X125280247Y-117117039D01*
X125280248Y-117117039D01*
X125275210Y-117115913D01*
X125269611Y-117115600D01*
X125135097Y-117115600D01*
X124998927Y-117130393D01*
X124825539Y-117188744D01*
X124668726Y-117282967D01*
X124663766Y-117287658D01*
X124663764Y-117287659D01*
X124603919Y-117344252D01*
X124535804Y-117408665D01*
X124432974Y-117559974D01*
X124430441Y-117566308D01*
X124430439Y-117566311D01*
X124367569Y-117723497D01*
X124367568Y-117723502D01*
X124365035Y-117729834D01*
X124335156Y-117910321D01*
X116359889Y-117910321D01*
X116355270Y-117822186D01*
X116306688Y-117645811D01*
X116221366Y-117483983D01*
X116216961Y-117478770D01*
X116216958Y-117478766D01*
X116107689Y-117349465D01*
X116103284Y-117344252D01*
X116018529Y-117279451D01*
X115963374Y-117237282D01*
X115963373Y-117237281D01*
X115957951Y-117233136D01*
X115951768Y-117230253D01*
X115951765Y-117230251D01*
X115798325Y-117158701D01*
X115798322Y-117158700D01*
X115792148Y-117155821D01*
X115785500Y-117154335D01*
X115785497Y-117154334D01*
X115618647Y-117117039D01*
X115618648Y-117117039D01*
X115613610Y-117115913D01*
X115608011Y-117115600D01*
X115473497Y-117115600D01*
X115337327Y-117130393D01*
X115163939Y-117188744D01*
X115007126Y-117282967D01*
X115002166Y-117287658D01*
X115002164Y-117287659D01*
X114942319Y-117344252D01*
X114874204Y-117408665D01*
X114771374Y-117559974D01*
X114768841Y-117566308D01*
X114768839Y-117566311D01*
X114705969Y-117723497D01*
X114705968Y-117723502D01*
X114703435Y-117729834D01*
X114673556Y-117910321D01*
X113921489Y-117910321D01*
X113916870Y-117822186D01*
X113868288Y-117645811D01*
X113782966Y-117483983D01*
X113778561Y-117478770D01*
X113778558Y-117478766D01*
X113669289Y-117349465D01*
X113664884Y-117344252D01*
X113580129Y-117279451D01*
X113524974Y-117237282D01*
X113524973Y-117237281D01*
X113519551Y-117233136D01*
X113513368Y-117230253D01*
X113513365Y-117230251D01*
X113359925Y-117158701D01*
X113359922Y-117158700D01*
X113353748Y-117155821D01*
X113347100Y-117154335D01*
X113347097Y-117154334D01*
X113180247Y-117117039D01*
X113180248Y-117117039D01*
X113175210Y-117115913D01*
X113169611Y-117115600D01*
X113035097Y-117115600D01*
X112898927Y-117130393D01*
X112725539Y-117188744D01*
X112568726Y-117282967D01*
X112563766Y-117287658D01*
X112563764Y-117287659D01*
X112503919Y-117344252D01*
X112435804Y-117408665D01*
X112332974Y-117559974D01*
X112330441Y-117566308D01*
X112330439Y-117566311D01*
X112267569Y-117723497D01*
X112267568Y-117723502D01*
X112265035Y-117729834D01*
X112235156Y-117910321D01*
X108077500Y-117910321D01*
X108077500Y-111912400D01*
X109519551Y-111912400D01*
X109539317Y-112163548D01*
X109598127Y-112408511D01*
X109694534Y-112641259D01*
X109826164Y-112856059D01*
X109829376Y-112859819D01*
X109829379Y-112859824D01*
X109974256Y-113029452D01*
X109989776Y-113047624D01*
X109993538Y-113050837D01*
X110177576Y-113208021D01*
X110177581Y-113208024D01*
X110181341Y-113211236D01*
X110396141Y-113342866D01*
X110400711Y-113344759D01*
X110400715Y-113344761D01*
X110624316Y-113437379D01*
X110628889Y-113439273D01*
X110713289Y-113459535D01*
X110869039Y-113496928D01*
X110869045Y-113496929D01*
X110873852Y-113498083D01*
X110962149Y-113505032D01*
X111059661Y-113512707D01*
X111059670Y-113512707D01*
X111062118Y-113512900D01*
X111187882Y-113512900D01*
X111190330Y-113512707D01*
X111190339Y-113512707D01*
X111287851Y-113505032D01*
X111376148Y-113498083D01*
X111380955Y-113496929D01*
X111380961Y-113496928D01*
X111536711Y-113459535D01*
X111621111Y-113439273D01*
X111625684Y-113437379D01*
X111849285Y-113344761D01*
X111849289Y-113344759D01*
X111853859Y-113342866D01*
X112068659Y-113211236D01*
X112072419Y-113208024D01*
X112072424Y-113208021D01*
X112256462Y-113050837D01*
X112260224Y-113047624D01*
X112275744Y-113029452D01*
X112420621Y-112859824D01*
X112420624Y-112859819D01*
X112423836Y-112856059D01*
X112555466Y-112641259D01*
X112651873Y-112408511D01*
X112710683Y-112163548D01*
X112730449Y-111912400D01*
X141269551Y-111912400D01*
X141289317Y-112163548D01*
X141348127Y-112408511D01*
X141444534Y-112641259D01*
X141576164Y-112856059D01*
X141579376Y-112859819D01*
X141579379Y-112859824D01*
X141724256Y-113029452D01*
X141739776Y-113047624D01*
X141743538Y-113050837D01*
X141927576Y-113208021D01*
X141927581Y-113208024D01*
X141931341Y-113211236D01*
X142146141Y-113342866D01*
X142150711Y-113344759D01*
X142150715Y-113344761D01*
X142374316Y-113437379D01*
X142378889Y-113439273D01*
X142463289Y-113459535D01*
X142619039Y-113496928D01*
X142619045Y-113496929D01*
X142623852Y-113498083D01*
X142712149Y-113505032D01*
X142809661Y-113512707D01*
X142809670Y-113512707D01*
X142812118Y-113512900D01*
X142937882Y-113512900D01*
X142940330Y-113512707D01*
X142940339Y-113512707D01*
X143037851Y-113505032D01*
X143126148Y-113498083D01*
X143130955Y-113496929D01*
X143130961Y-113496928D01*
X143286711Y-113459535D01*
X143371111Y-113439273D01*
X143375684Y-113437379D01*
X143599285Y-113344761D01*
X143599289Y-113344759D01*
X143603859Y-113342866D01*
X143818659Y-113211236D01*
X143822419Y-113208024D01*
X143822424Y-113208021D01*
X144006462Y-113050837D01*
X144010224Y-113047624D01*
X144025744Y-113029452D01*
X144170621Y-112859824D01*
X144170624Y-112859819D01*
X144173836Y-112856059D01*
X144305466Y-112641259D01*
X144401873Y-112408511D01*
X144460683Y-112163548D01*
X144480449Y-111912400D01*
X144460683Y-111661252D01*
X144401873Y-111416289D01*
X144305466Y-111183541D01*
X144173836Y-110968741D01*
X144170624Y-110964981D01*
X144170621Y-110964976D01*
X144013437Y-110780938D01*
X144010224Y-110777176D01*
X143992052Y-110761656D01*
X143822424Y-110616779D01*
X143822419Y-110616776D01*
X143818659Y-110613564D01*
X143603859Y-110481934D01*
X143599289Y-110480041D01*
X143599285Y-110480039D01*
X143375684Y-110387421D01*
X143375682Y-110387420D01*
X143371111Y-110385527D01*
X143286711Y-110365265D01*
X143130961Y-110327872D01*
X143130955Y-110327871D01*
X143126148Y-110326717D01*
X143037851Y-110319768D01*
X142940339Y-110312093D01*
X142940330Y-110312093D01*
X142937882Y-110311900D01*
X142812118Y-110311900D01*
X142809670Y-110312093D01*
X142809661Y-110312093D01*
X142712149Y-110319768D01*
X142623852Y-110326717D01*
X142619045Y-110327871D01*
X142619039Y-110327872D01*
X142463289Y-110365265D01*
X142378889Y-110385527D01*
X142374318Y-110387420D01*
X142374316Y-110387421D01*
X142150715Y-110480039D01*
X142150711Y-110480041D01*
X142146141Y-110481934D01*
X141931341Y-110613564D01*
X141927581Y-110616776D01*
X141927576Y-110616779D01*
X141757948Y-110761656D01*
X141739776Y-110777176D01*
X141736563Y-110780938D01*
X141579379Y-110964976D01*
X141579376Y-110964981D01*
X141576164Y-110968741D01*
X141444534Y-111183541D01*
X141348127Y-111416289D01*
X141289317Y-111661252D01*
X141269551Y-111912400D01*
X112730449Y-111912400D01*
X112710683Y-111661252D01*
X112651873Y-111416289D01*
X112555466Y-111183541D01*
X112423836Y-110968741D01*
X112420624Y-110964981D01*
X112420621Y-110964976D01*
X112263437Y-110780938D01*
X112260224Y-110777176D01*
X112242052Y-110761656D01*
X112072424Y-110616779D01*
X112072419Y-110616776D01*
X112068659Y-110613564D01*
X111853859Y-110481934D01*
X111849289Y-110480041D01*
X111849285Y-110480039D01*
X111625684Y-110387421D01*
X111625682Y-110387420D01*
X111621111Y-110385527D01*
X111536711Y-110365265D01*
X111380961Y-110327872D01*
X111380955Y-110327871D01*
X111376148Y-110326717D01*
X111287851Y-110319768D01*
X111190339Y-110312093D01*
X111190330Y-110312093D01*
X111187882Y-110311900D01*
X111062118Y-110311900D01*
X111059670Y-110312093D01*
X111059661Y-110312093D01*
X110962149Y-110319768D01*
X110873852Y-110326717D01*
X110869045Y-110327871D01*
X110869039Y-110327872D01*
X110713289Y-110365265D01*
X110628889Y-110385527D01*
X110624318Y-110387420D01*
X110624316Y-110387421D01*
X110400715Y-110480039D01*
X110400711Y-110480041D01*
X110396141Y-110481934D01*
X110181341Y-110613564D01*
X110177581Y-110616776D01*
X110177576Y-110616779D01*
X110007948Y-110761656D01*
X109989776Y-110777176D01*
X109986563Y-110780938D01*
X109829379Y-110964976D01*
X109829376Y-110964981D01*
X109826164Y-110968741D01*
X109694534Y-111183541D01*
X109598127Y-111416289D01*
X109539317Y-111661252D01*
X109519551Y-111912400D01*
X108077500Y-111912400D01*
X108077500Y-91287600D01*
X109519551Y-91287600D01*
X109539317Y-91538748D01*
X109598127Y-91783711D01*
X109694534Y-92016459D01*
X109826164Y-92231259D01*
X109829376Y-92235019D01*
X109829379Y-92235024D01*
X109974256Y-92404652D01*
X109989776Y-92422824D01*
X109993538Y-92426037D01*
X110177576Y-92583221D01*
X110177581Y-92583224D01*
X110181341Y-92586436D01*
X110396141Y-92718066D01*
X110400711Y-92719959D01*
X110400715Y-92719961D01*
X110624316Y-92812579D01*
X110628889Y-92814473D01*
X110713289Y-92834735D01*
X110869039Y-92872128D01*
X110869045Y-92872129D01*
X110873852Y-92873283D01*
X110962149Y-92880232D01*
X111059661Y-92887907D01*
X111059670Y-92887907D01*
X111062118Y-92888100D01*
X111187882Y-92888100D01*
X111190330Y-92887907D01*
X111190339Y-92887907D01*
X111287851Y-92880232D01*
X111376148Y-92873283D01*
X111380955Y-92872129D01*
X111380961Y-92872128D01*
X111536711Y-92834735D01*
X111621111Y-92814473D01*
X111625684Y-92812579D01*
X111849285Y-92719961D01*
X111849289Y-92719959D01*
X111853859Y-92718066D01*
X112068659Y-92586436D01*
X112072419Y-92583224D01*
X112072424Y-92583221D01*
X112256462Y-92426037D01*
X112260224Y-92422824D01*
X112275744Y-92404652D01*
X112420621Y-92235024D01*
X112420624Y-92235019D01*
X112423836Y-92231259D01*
X112555466Y-92016459D01*
X112651873Y-91783711D01*
X112710683Y-91538748D01*
X112730449Y-91287600D01*
X141269551Y-91287600D01*
X141289317Y-91538748D01*
X141348127Y-91783711D01*
X141444534Y-92016459D01*
X141576164Y-92231259D01*
X141579376Y-92235019D01*
X141579379Y-92235024D01*
X141724256Y-92404652D01*
X141739776Y-92422824D01*
X141743538Y-92426037D01*
X141927576Y-92583221D01*
X141927581Y-92583224D01*
X141931341Y-92586436D01*
X142146141Y-92718066D01*
X142150711Y-92719959D01*
X142150715Y-92719961D01*
X142374316Y-92812579D01*
X142378889Y-92814473D01*
X142463289Y-92834735D01*
X142619039Y-92872128D01*
X142619045Y-92872129D01*
X142623852Y-92873283D01*
X142712149Y-92880232D01*
X142809661Y-92887907D01*
X142809670Y-92887907D01*
X142812118Y-92888100D01*
X142937882Y-92888100D01*
X142940330Y-92887907D01*
X142940339Y-92887907D01*
X143037851Y-92880232D01*
X143126148Y-92873283D01*
X143130955Y-92872129D01*
X143130961Y-92872128D01*
X143286711Y-92834735D01*
X143371111Y-92814473D01*
X143375684Y-92812579D01*
X143599285Y-92719961D01*
X143599289Y-92719959D01*
X143603859Y-92718066D01*
X143818659Y-92586436D01*
X143822419Y-92583224D01*
X143822424Y-92583221D01*
X144006462Y-92426037D01*
X144010224Y-92422824D01*
X144025744Y-92404652D01*
X144170621Y-92235024D01*
X144170624Y-92235019D01*
X144173836Y-92231259D01*
X144305466Y-92016459D01*
X144401873Y-91783711D01*
X144460683Y-91538748D01*
X144480449Y-91287600D01*
X144460683Y-91036452D01*
X144401873Y-90791489D01*
X144305466Y-90558741D01*
X144173836Y-90343941D01*
X144170624Y-90340181D01*
X144170621Y-90340176D01*
X144013437Y-90156138D01*
X144010224Y-90152376D01*
X143992052Y-90136856D01*
X143822424Y-89991979D01*
X143822419Y-89991976D01*
X143818659Y-89988764D01*
X143603859Y-89857134D01*
X143599289Y-89855241D01*
X143599285Y-89855239D01*
X143375684Y-89762621D01*
X143375682Y-89762620D01*
X143371111Y-89760727D01*
X143286711Y-89740465D01*
X143130961Y-89703072D01*
X143130955Y-89703071D01*
X143126148Y-89701917D01*
X143037851Y-89694968D01*
X142940339Y-89687293D01*
X142940330Y-89687293D01*
X142937882Y-89687100D01*
X142812118Y-89687100D01*
X142809670Y-89687293D01*
X142809661Y-89687293D01*
X142712149Y-89694968D01*
X142623852Y-89701917D01*
X142619045Y-89703071D01*
X142619039Y-89703072D01*
X142463289Y-89740465D01*
X142378889Y-89760727D01*
X142374318Y-89762620D01*
X142374316Y-89762621D01*
X142150715Y-89855239D01*
X142150711Y-89855241D01*
X142146141Y-89857134D01*
X141931341Y-89988764D01*
X141927581Y-89991976D01*
X141927576Y-89991979D01*
X141757948Y-90136856D01*
X141739776Y-90152376D01*
X141736563Y-90156138D01*
X141579379Y-90340176D01*
X141579376Y-90340181D01*
X141576164Y-90343941D01*
X141444534Y-90558741D01*
X141348127Y-90791489D01*
X141289317Y-91036452D01*
X141269551Y-91287600D01*
X112730449Y-91287600D01*
X112710683Y-91036452D01*
X112651873Y-90791489D01*
X112555466Y-90558741D01*
X112423836Y-90343941D01*
X112420624Y-90340181D01*
X112420621Y-90340176D01*
X112263437Y-90156138D01*
X112260224Y-90152376D01*
X112242052Y-90136856D01*
X112072424Y-89991979D01*
X112072419Y-89991976D01*
X112068659Y-89988764D01*
X111853859Y-89857134D01*
X111849289Y-89855241D01*
X111849285Y-89855239D01*
X111625684Y-89762621D01*
X111625682Y-89762620D01*
X111621111Y-89760727D01*
X111536711Y-89740465D01*
X111380961Y-89703072D01*
X111380955Y-89703071D01*
X111376148Y-89701917D01*
X111287851Y-89694968D01*
X111190339Y-89687293D01*
X111190330Y-89687293D01*
X111187882Y-89687100D01*
X111062118Y-89687100D01*
X111059670Y-89687293D01*
X111059661Y-89687293D01*
X110962149Y-89694968D01*
X110873852Y-89701917D01*
X110869045Y-89703071D01*
X110869039Y-89703072D01*
X110713289Y-89740465D01*
X110628889Y-89760727D01*
X110624318Y-89762620D01*
X110624316Y-89762621D01*
X110400715Y-89855239D01*
X110400711Y-89855241D01*
X110396141Y-89857134D01*
X110181341Y-89988764D01*
X110177581Y-89991976D01*
X110177576Y-89991979D01*
X110007948Y-90136856D01*
X109989776Y-90152376D01*
X109986563Y-90156138D01*
X109829379Y-90340176D01*
X109829376Y-90340181D01*
X109826164Y-90343941D01*
X109694534Y-90558741D01*
X109598127Y-90791489D01*
X109539317Y-91036452D01*
X109519551Y-91287600D01*
X108077500Y-91287600D01*
X108077500Y-86613500D01*
X108097502Y-86545379D01*
X108151158Y-86498886D01*
X108203500Y-86487500D01*
X145796500Y-86487500D01*
X145864621Y-86507502D01*
G37*
G04 #@! TD.AperFunction*
M02*
